<mxfile host="app.diagrams.net" agent="Mozilla/5.0 (Windows NT 10.0; Win64; x64) AppleWebKit/537.36 (KHTML, like Gecko) Chrome/129.0.0.0 Safari/537.36" version="24.8.0">
  <diagram name="Página-1" id="DuOKZRfc3PNXprKPjTim">
    <mxGraphModel dx="6825" dy="3398" grid="1" gridSize="10" guides="1" tooltips="1" connect="1" arrows="1" fold="1" page="1" pageScale="1" pageWidth="827" pageHeight="1169" math="0" shadow="0">
      <root>
        <mxCell id="0" />
        <mxCell id="1" parent="0" />
        <mxCell id="3vqmChRI_nULsQmvLEs1-1" value="&lt;p style=&quot;margin: 12px 0px; color: rgb(45, 59, 69); font-family: LatoWeb, &amp;quot;Lato Extended&amp;quot;, Lato, &amp;quot;Helvetica Neue&amp;quot;, Helvetica, Arial, sans-serif; font-size: 16px; font-style: normal; font-variant-ligatures: normal; font-variant-caps: normal; font-weight: 400; letter-spacing: normal; orphans: 2; text-align: start; text-indent: 0px; text-transform: none; widows: 2; word-spacing: 0px; -webkit-text-stroke-width: 0px; white-space: normal; background-color: rgb(255, 255, 255); text-decoration-thickness: initial; text-decoration-style: initial; text-decoration-color: initial;&quot;&gt;Exercício 1:&amp;nbsp;&lt;/p&gt;&lt;p style=&quot;margin: 12px 0px; color: rgb(45, 59, 69); font-family: LatoWeb, &amp;quot;Lato Extended&amp;quot;, Lato, &amp;quot;Helvetica Neue&amp;quot;, Helvetica, Arial, sans-serif; font-size: 16px; font-style: normal; font-variant-ligatures: normal; font-variant-caps: normal; font-weight: 400; letter-spacing: normal; orphans: 2; text-align: start; text-indent: 0px; text-transform: none; widows: 2; word-spacing: 0px; -webkit-text-stroke-width: 0px; white-space: normal; background-color: rgb(255, 255, 255); text-decoration-thickness: initial; text-decoration-style: initial; text-decoration-color: initial;&quot;&gt;a)&lt;br&gt;Inserção: 100-90-110-80&lt;br&gt;Remover: 80&lt;/p&gt;&lt;p style=&quot;margin: 12px 0px; color: rgb(45, 59, 69); font-family: LatoWeb, &amp;quot;Lato Extended&amp;quot;, Lato, &amp;quot;Helvetica Neue&amp;quot;, Helvetica, Arial, sans-serif; font-size: 16px; font-style: normal; font-variant-ligatures: normal; font-variant-caps: normal; font-weight: 400; letter-spacing: normal; orphans: 2; text-align: start; text-indent: 0px; text-transform: none; widows: 2; word-spacing: 0px; -webkit-text-stroke-width: 0px; white-space: normal; background-color: rgb(255, 255, 255); text-decoration-thickness: initial; text-decoration-style: initial; text-decoration-color: initial;&quot;&gt;b)&lt;br&gt;Inserção: 100-90-110-80&lt;br&gt;Remover: 90&lt;/p&gt;&lt;p style=&quot;margin: 12px 0px; color: rgb(45, 59, 69); font-family: LatoWeb, &amp;quot;Lato Extended&amp;quot;, Lato, &amp;quot;Helvetica Neue&amp;quot;, Helvetica, Arial, sans-serif; font-size: 16px; font-style: normal; font-variant-ligatures: normal; font-variant-caps: normal; font-weight: 400; letter-spacing: normal; orphans: 2; text-align: start; text-indent: 0px; text-transform: none; widows: 2; word-spacing: 0px; -webkit-text-stroke-width: 0px; white-space: normal; background-color: rgb(255, 255, 255); text-decoration-thickness: initial; text-decoration-style: initial; text-decoration-color: initial;&quot;&gt;c)&lt;br&gt;Inserção: 100-90-110-80-95&lt;br&gt;Remover: 80&lt;/p&gt;&lt;p style=&quot;margin: 12px 0px; color: rgb(45, 59, 69); font-family: LatoWeb, &amp;quot;Lato Extended&amp;quot;, Lato, &amp;quot;Helvetica Neue&amp;quot;, Helvetica, Arial, sans-serif; font-size: 16px; font-style: normal; font-variant-ligatures: normal; font-variant-caps: normal; font-weight: 400; letter-spacing: normal; orphans: 2; text-align: start; text-indent: 0px; text-transform: none; widows: 2; word-spacing: 0px; -webkit-text-stroke-width: 0px; white-space: normal; background-color: rgb(255, 255, 255); text-decoration-thickness: initial; text-decoration-style: initial; text-decoration-color: initial;&quot;&gt;d)&lt;br&gt;Inserção: 100-90-110-80-95&lt;br&gt;Remover: 90&lt;/p&gt;&lt;p style=&quot;margin: 12px 0px; color: rgb(45, 59, 69); font-family: LatoWeb, &amp;quot;Lato Extended&amp;quot;, Lato, &amp;quot;Helvetica Neue&amp;quot;, Helvetica, Arial, sans-serif; font-size: 16px; font-style: normal; font-variant-ligatures: normal; font-variant-caps: normal; font-weight: 400; letter-spacing: normal; orphans: 2; text-align: start; text-indent: 0px; text-transform: none; widows: 2; word-spacing: 0px; -webkit-text-stroke-width: 0px; white-space: normal; background-color: rgb(255, 255, 255); text-decoration-thickness: initial; text-decoration-style: initial; text-decoration-color: initial;&quot;&gt;e)&lt;br&gt;Inserção: 100-90-110-80-95-120-96&lt;br&gt;Remover: 80&lt;/p&gt;&lt;p style=&quot;margin: 12px 0px; color: rgb(45, 59, 69); font-family: LatoWeb, &amp;quot;Lato Extended&amp;quot;, Lato, &amp;quot;Helvetica Neue&amp;quot;, Helvetica, Arial, sans-serif; font-size: 16px; font-style: normal; font-variant-ligatures: normal; font-variant-caps: normal; font-weight: 400; letter-spacing: normal; orphans: 2; text-align: start; text-indent: 0px; text-transform: none; widows: 2; word-spacing: 0px; -webkit-text-stroke-width: 0px; white-space: normal; background-color: rgb(255, 255, 255); text-decoration-thickness: initial; text-decoration-style: initial; text-decoration-color: initial;&quot;&gt;f)&lt;br&gt;Inserção: 100-90-110-80-96-120&lt;br&gt;Remover: 80&lt;/p&gt;&lt;p style=&quot;margin: 12px 0px; color: rgb(45, 59, 69); font-family: LatoWeb, &amp;quot;Lato Extended&amp;quot;, Lato, &amp;quot;Helvetica Neue&amp;quot;, Helvetica, Arial, sans-serif; font-size: 16px; font-style: normal; font-variant-ligatures: normal; font-variant-caps: normal; font-weight: 400; letter-spacing: normal; orphans: 2; text-align: start; text-indent: 0px; text-transform: none; widows: 2; word-spacing: 0px; -webkit-text-stroke-width: 0px; white-space: normal; background-color: rgb(255, 255, 255); text-decoration-thickness: initial; text-decoration-style: initial; text-decoration-color: initial;&quot;&gt;g)&lt;br&gt;Inserção: 100-90-110-80-95-96-120&lt;br&gt;Remover: 90&lt;/p&gt;&lt;p style=&quot;margin: 12px 0px; color: rgb(45, 59, 69); font-family: LatoWeb, &amp;quot;Lato Extended&amp;quot;, Lato, &amp;quot;Helvetica Neue&amp;quot;, Helvetica, Arial, sans-serif; font-size: 16px; font-style: normal; font-variant-ligatures: normal; font-variant-caps: normal; font-weight: 400; letter-spacing: normal; orphans: 2; text-align: start; text-indent: 0px; text-transform: none; widows: 2; word-spacing: 0px; -webkit-text-stroke-width: 0px; white-space: normal; background-color: rgb(255, 255, 255); text-decoration-thickness: initial; text-decoration-style: initial; text-decoration-color: initial;&quot;&gt;h)&lt;br&gt;Inserção: 100-90-110-80-95-120&lt;br&gt;Remover: 90&lt;/p&gt;&lt;p style=&quot;margin: 12px 0px; color: rgb(45, 59, 69); font-family: LatoWeb, &amp;quot;Lato Extended&amp;quot;, Lato, &amp;quot;Helvetica Neue&amp;quot;, Helvetica, Arial, sans-serif; font-size: 16px; font-style: normal; font-variant-ligatures: normal; font-variant-caps: normal; font-weight: 400; letter-spacing: normal; orphans: 2; text-align: start; text-indent: 0px; text-transform: none; widows: 2; word-spacing: 0px; -webkit-text-stroke-width: 0px; white-space: normal; background-color: rgb(255, 255, 255); text-decoration-thickness: initial; text-decoration-style: initial; text-decoration-color: initial;&quot;&gt;i)&lt;br&gt;Inserção: 100-90-110-80-105-120-104&lt;br&gt;Remover: 80&lt;/p&gt;&lt;p style=&quot;margin: 12px 0px; color: rgb(45, 59, 69); font-family: LatoWeb, &amp;quot;Lato Extended&amp;quot;, Lato, &amp;quot;Helvetica Neue&amp;quot;, Helvetica, Arial, sans-serif; font-size: 16px; font-style: normal; font-variant-ligatures: normal; font-variant-caps: normal; font-weight: 400; letter-spacing: normal; orphans: 2; text-align: start; text-indent: 0px; text-transform: none; widows: 2; word-spacing: 0px; -webkit-text-stroke-width: 0px; white-space: normal; background-color: rgb(255, 255, 255); text-decoration-thickness: initial; text-decoration-style: initial; text-decoration-color: initial;&quot;&gt;j)&lt;br&gt;Inserção: 100-90-110-80-105-120-106&lt;br&gt;Remover: 80&lt;/p&gt;&lt;p style=&quot;margin: 12px 0px; color: rgb(45, 59, 69); font-family: LatoWeb, &amp;quot;Lato Extended&amp;quot;, Lato, &amp;quot;Helvetica Neue&amp;quot;, Helvetica, Arial, sans-serif; font-size: 16px; font-style: normal; font-variant-ligatures: normal; font-variant-caps: normal; font-weight: 400; letter-spacing: normal; orphans: 2; text-align: start; text-indent: 0px; text-transform: none; widows: 2; word-spacing: 0px; -webkit-text-stroke-width: 0px; white-space: normal; background-color: rgb(255, 255, 255); text-decoration-thickness: initial; text-decoration-style: initial; text-decoration-color: initial;&quot;&gt;k)&lt;br&gt;Inserção: 100-90-110-80-105-120-104-106&lt;br&gt;Remover: 80&lt;/p&gt;&lt;p style=&quot;margin: 12px 0px; color: rgb(45, 59, 69); font-family: LatoWeb, &amp;quot;Lato Extended&amp;quot;, Lato, &amp;quot;Helvetica Neue&amp;quot;, Helvetica, Arial, sans-serif; font-size: 16px; font-style: normal; font-variant-ligatures: normal; font-variant-caps: normal; font-weight: 400; letter-spacing: normal; orphans: 2; text-align: start; text-indent: 0px; text-transform: none; widows: 2; word-spacing: 0px; -webkit-text-stroke-width: 0px; white-space: normal; background-color: rgb(255, 255, 255); text-decoration-thickness: initial; text-decoration-style: initial; text-decoration-color: initial;&quot;&gt;&amp;nbsp;&lt;/p&gt;" style="text;whiteSpace=wrap;html=1;" vertex="1" parent="1">
          <mxGeometry x="-275" y="-930" width="330" height="860" as="geometry" />
        </mxCell>
        <mxCell id="3vqmChRI_nULsQmvLEs1-2" value="a)" style="text;html=1;align=center;verticalAlign=middle;resizable=0;points=[];autosize=1;strokeColor=none;fillColor=none;" vertex="1" parent="1">
          <mxGeometry x="-495" y="100" width="30" height="30" as="geometry" />
        </mxCell>
        <mxCell id="3vqmChRI_nULsQmvLEs1-8" style="edgeStyle=orthogonalEdgeStyle;rounded=0;orthogonalLoop=1;jettySize=auto;html=1;exitX=1;exitY=0.5;exitDx=0;exitDy=0;" edge="1" parent="1" source="3vqmChRI_nULsQmvLEs1-3" target="3vqmChRI_nULsQmvLEs1-7">
          <mxGeometry relative="1" as="geometry" />
        </mxCell>
        <mxCell id="3vqmChRI_nULsQmvLEs1-10" style="edgeStyle=orthogonalEdgeStyle;rounded=0;orthogonalLoop=1;jettySize=auto;html=1;exitX=0;exitY=0.5;exitDx=0;exitDy=0;" edge="1" parent="1" source="3vqmChRI_nULsQmvLEs1-3" target="3vqmChRI_nULsQmvLEs1-6">
          <mxGeometry relative="1" as="geometry" />
        </mxCell>
        <mxCell id="3vqmChRI_nULsQmvLEs1-3" value="90" style="rounded=0;whiteSpace=wrap;html=1;" vertex="1" parent="1">
          <mxGeometry x="-340" y="110" width="90" height="60" as="geometry" />
        </mxCell>
        <mxCell id="3vqmChRI_nULsQmvLEs1-4" value="110" style="rounded=0;whiteSpace=wrap;html=1;" vertex="1" parent="1">
          <mxGeometry x="-120" y="290" width="90" height="60" as="geometry" />
        </mxCell>
        <mxCell id="3vqmChRI_nULsQmvLEs1-6" value="80" style="rounded=0;whiteSpace=wrap;html=1;" vertex="1" parent="1">
          <mxGeometry x="-465" y="200" width="90" height="60" as="geometry" />
        </mxCell>
        <mxCell id="3vqmChRI_nULsQmvLEs1-9" style="edgeStyle=orthogonalEdgeStyle;rounded=0;orthogonalLoop=1;jettySize=auto;html=1;exitX=1;exitY=0.5;exitDx=0;exitDy=0;entryX=0.5;entryY=0;entryDx=0;entryDy=0;" edge="1" parent="1" source="3vqmChRI_nULsQmvLEs1-7" target="3vqmChRI_nULsQmvLEs1-4">
          <mxGeometry relative="1" as="geometry" />
        </mxCell>
        <mxCell id="3vqmChRI_nULsQmvLEs1-7" value="100" style="rounded=0;whiteSpace=wrap;html=1;" vertex="1" parent="1">
          <mxGeometry x="-220" y="210" width="90" height="60" as="geometry" />
        </mxCell>
        <mxCell id="3vqmChRI_nULsQmvLEs1-11" value="a)" style="text;html=1;align=center;verticalAlign=middle;resizable=0;points=[];autosize=1;strokeColor=none;fillColor=none;" vertex="1" parent="1">
          <mxGeometry x="-485" y="340" width="30" height="30" as="geometry" />
        </mxCell>
        <mxCell id="3vqmChRI_nULsQmvLEs1-12" style="edgeStyle=orthogonalEdgeStyle;rounded=0;orthogonalLoop=1;jettySize=auto;html=1;exitX=1;exitY=0.5;exitDx=0;exitDy=0;" edge="1" parent="1" source="3vqmChRI_nULsQmvLEs1-14" target="3vqmChRI_nULsQmvLEs1-18">
          <mxGeometry relative="1" as="geometry" />
        </mxCell>
        <mxCell id="3vqmChRI_nULsQmvLEs1-14" value="90" style="rounded=0;whiteSpace=wrap;html=1;" vertex="1" parent="1">
          <mxGeometry x="-330" y="350" width="90" height="60" as="geometry" />
        </mxCell>
        <mxCell id="3vqmChRI_nULsQmvLEs1-15" value="110" style="rounded=0;whiteSpace=wrap;html=1;" vertex="1" parent="1">
          <mxGeometry x="-110" y="530" width="90" height="60" as="geometry" />
        </mxCell>
        <mxCell id="3vqmChRI_nULsQmvLEs1-17" style="edgeStyle=orthogonalEdgeStyle;rounded=0;orthogonalLoop=1;jettySize=auto;html=1;exitX=1;exitY=0.5;exitDx=0;exitDy=0;entryX=0.5;entryY=0;entryDx=0;entryDy=0;" edge="1" parent="1" source="3vqmChRI_nULsQmvLEs1-18" target="3vqmChRI_nULsQmvLEs1-15">
          <mxGeometry relative="1" as="geometry" />
        </mxCell>
        <mxCell id="3vqmChRI_nULsQmvLEs1-18" value="100" style="rounded=0;whiteSpace=wrap;html=1;" vertex="1" parent="1">
          <mxGeometry x="-210" y="450" width="90" height="60" as="geometry" />
        </mxCell>
        <mxCell id="3vqmChRI_nULsQmvLEs1-19" value="b)" style="text;html=1;align=center;verticalAlign=middle;resizable=0;points=[];autosize=1;strokeColor=none;fillColor=none;" vertex="1" parent="1">
          <mxGeometry x="-465" y="658" width="30" height="30" as="geometry" />
        </mxCell>
        <mxCell id="3vqmChRI_nULsQmvLEs1-20" style="edgeStyle=orthogonalEdgeStyle;rounded=0;orthogonalLoop=1;jettySize=auto;html=1;exitX=1;exitY=0.5;exitDx=0;exitDy=0;" edge="1" parent="1" source="3vqmChRI_nULsQmvLEs1-22" target="3vqmChRI_nULsQmvLEs1-26">
          <mxGeometry relative="1" as="geometry" />
        </mxCell>
        <mxCell id="3vqmChRI_nULsQmvLEs1-21" style="edgeStyle=orthogonalEdgeStyle;rounded=0;orthogonalLoop=1;jettySize=auto;html=1;exitX=0;exitY=0.5;exitDx=0;exitDy=0;" edge="1" parent="1" source="3vqmChRI_nULsQmvLEs1-22" target="3vqmChRI_nULsQmvLEs1-24">
          <mxGeometry relative="1" as="geometry" />
        </mxCell>
        <mxCell id="3vqmChRI_nULsQmvLEs1-22" value="90" style="rounded=0;whiteSpace=wrap;html=1;" vertex="1" parent="1">
          <mxGeometry x="-310" y="658" width="90" height="60" as="geometry" />
        </mxCell>
        <mxCell id="3vqmChRI_nULsQmvLEs1-23" value="110" style="rounded=0;whiteSpace=wrap;html=1;" vertex="1" parent="1">
          <mxGeometry x="-90" y="838" width="90" height="60" as="geometry" />
        </mxCell>
        <mxCell id="3vqmChRI_nULsQmvLEs1-24" value="80" style="rounded=0;whiteSpace=wrap;html=1;" vertex="1" parent="1">
          <mxGeometry x="-435" y="748" width="90" height="60" as="geometry" />
        </mxCell>
        <mxCell id="3vqmChRI_nULsQmvLEs1-25" style="edgeStyle=orthogonalEdgeStyle;rounded=0;orthogonalLoop=1;jettySize=auto;html=1;exitX=1;exitY=0.5;exitDx=0;exitDy=0;entryX=0.5;entryY=0;entryDx=0;entryDy=0;" edge="1" parent="1" source="3vqmChRI_nULsQmvLEs1-26" target="3vqmChRI_nULsQmvLEs1-23">
          <mxGeometry relative="1" as="geometry" />
        </mxCell>
        <mxCell id="3vqmChRI_nULsQmvLEs1-26" value="100" style="rounded=0;whiteSpace=wrap;html=1;" vertex="1" parent="1">
          <mxGeometry x="-190" y="758" width="90" height="60" as="geometry" />
        </mxCell>
        <mxCell id="3vqmChRI_nULsQmvLEs1-27" value="b)" style="text;html=1;align=center;verticalAlign=middle;resizable=0;points=[];autosize=1;strokeColor=none;fillColor=none;" vertex="1" parent="1">
          <mxGeometry x="-465" y="898" width="30" height="30" as="geometry" />
        </mxCell>
        <mxCell id="3vqmChRI_nULsQmvLEs1-28" style="edgeStyle=orthogonalEdgeStyle;rounded=0;orthogonalLoop=1;jettySize=auto;html=1;exitX=1;exitY=0.5;exitDx=0;exitDy=0;" edge="1" parent="1" source="3vqmChRI_nULsQmvLEs1-30" target="3vqmChRI_nULsQmvLEs1-34">
          <mxGeometry relative="1" as="geometry" />
        </mxCell>
        <mxCell id="3vqmChRI_nULsQmvLEs1-29" style="edgeStyle=orthogonalEdgeStyle;rounded=0;orthogonalLoop=1;jettySize=auto;html=1;exitX=0;exitY=0.5;exitDx=0;exitDy=0;" edge="1" parent="1" source="3vqmChRI_nULsQmvLEs1-30" target="3vqmChRI_nULsQmvLEs1-32">
          <mxGeometry relative="1" as="geometry" />
        </mxCell>
        <mxCell id="3vqmChRI_nULsQmvLEs1-30" value="100" style="rounded=0;whiteSpace=wrap;html=1;" vertex="1" parent="1">
          <mxGeometry x="-310" y="898" width="90" height="60" as="geometry" />
        </mxCell>
        <mxCell id="3vqmChRI_nULsQmvLEs1-32" value="80" style="rounded=0;whiteSpace=wrap;html=1;" vertex="1" parent="1">
          <mxGeometry x="-435" y="988" width="90" height="60" as="geometry" />
        </mxCell>
        <mxCell id="3vqmChRI_nULsQmvLEs1-34" value="110" style="rounded=0;whiteSpace=wrap;html=1;" vertex="1" parent="1">
          <mxGeometry x="-190" y="998" width="90" height="60" as="geometry" />
        </mxCell>
        <mxCell id="3vqmChRI_nULsQmvLEs1-35" value="c)" style="text;html=1;align=center;verticalAlign=middle;resizable=0;points=[];autosize=1;strokeColor=none;fillColor=none;" vertex="1" parent="1">
          <mxGeometry x="-470" y="1140" width="30" height="30" as="geometry" />
        </mxCell>
        <mxCell id="3vqmChRI_nULsQmvLEs1-36" style="edgeStyle=orthogonalEdgeStyle;rounded=0;orthogonalLoop=1;jettySize=auto;html=1;exitX=1;exitY=0.5;exitDx=0;exitDy=0;" edge="1" parent="1" source="3vqmChRI_nULsQmvLEs1-38" target="3vqmChRI_nULsQmvLEs1-42">
          <mxGeometry relative="1" as="geometry" />
        </mxCell>
        <mxCell id="3vqmChRI_nULsQmvLEs1-37" style="edgeStyle=orthogonalEdgeStyle;rounded=0;orthogonalLoop=1;jettySize=auto;html=1;exitX=0;exitY=0.5;exitDx=0;exitDy=0;" edge="1" parent="1" source="3vqmChRI_nULsQmvLEs1-38" target="3vqmChRI_nULsQmvLEs1-40">
          <mxGeometry relative="1" as="geometry" />
        </mxCell>
        <mxCell id="3vqmChRI_nULsQmvLEs1-38" value="90" style="rounded=0;whiteSpace=wrap;html=1;" vertex="1" parent="1">
          <mxGeometry x="-315" y="1140" width="90" height="60" as="geometry" />
        </mxCell>
        <mxCell id="3vqmChRI_nULsQmvLEs1-39" value="110" style="rounded=0;whiteSpace=wrap;html=1;" vertex="1" parent="1">
          <mxGeometry x="-95" y="1320" width="90" height="60" as="geometry" />
        </mxCell>
        <mxCell id="3vqmChRI_nULsQmvLEs1-40" value="80" style="rounded=0;whiteSpace=wrap;html=1;" vertex="1" parent="1">
          <mxGeometry x="-440" y="1230" width="90" height="60" as="geometry" />
        </mxCell>
        <mxCell id="3vqmChRI_nULsQmvLEs1-41" style="edgeStyle=orthogonalEdgeStyle;rounded=0;orthogonalLoop=1;jettySize=auto;html=1;exitX=1;exitY=0.5;exitDx=0;exitDy=0;entryX=0.5;entryY=0;entryDx=0;entryDy=0;" edge="1" parent="1" source="3vqmChRI_nULsQmvLEs1-42" target="3vqmChRI_nULsQmvLEs1-39">
          <mxGeometry relative="1" as="geometry" />
        </mxCell>
        <mxCell id="3vqmChRI_nULsQmvLEs1-44" style="edgeStyle=orthogonalEdgeStyle;rounded=0;orthogonalLoop=1;jettySize=auto;html=1;exitX=0;exitY=0.5;exitDx=0;exitDy=0;entryX=0.5;entryY=0;entryDx=0;entryDy=0;" edge="1" parent="1" source="3vqmChRI_nULsQmvLEs1-42" target="3vqmChRI_nULsQmvLEs1-43">
          <mxGeometry relative="1" as="geometry" />
        </mxCell>
        <mxCell id="3vqmChRI_nULsQmvLEs1-42" value="100" style="rounded=0;whiteSpace=wrap;html=1;" vertex="1" parent="1">
          <mxGeometry x="-195" y="1240" width="90" height="60" as="geometry" />
        </mxCell>
        <mxCell id="3vqmChRI_nULsQmvLEs1-43" value="95" style="rounded=0;whiteSpace=wrap;html=1;" vertex="1" parent="1">
          <mxGeometry x="-290" y="1320" width="90" height="60" as="geometry" />
        </mxCell>
        <mxCell id="3vqmChRI_nULsQmvLEs1-45" value="c)" style="text;html=1;align=center;verticalAlign=middle;resizable=0;points=[];autosize=1;strokeColor=none;fillColor=none;" vertex="1" parent="1">
          <mxGeometry x="-470" y="1440" width="30" height="30" as="geometry" />
        </mxCell>
        <mxCell id="3vqmChRI_nULsQmvLEs1-46" style="edgeStyle=orthogonalEdgeStyle;rounded=0;orthogonalLoop=1;jettySize=auto;html=1;exitX=1;exitY=0.5;exitDx=0;exitDy=0;" edge="1" parent="1" source="3vqmChRI_nULsQmvLEs1-48" target="3vqmChRI_nULsQmvLEs1-53">
          <mxGeometry relative="1" as="geometry" />
        </mxCell>
        <mxCell id="3vqmChRI_nULsQmvLEs1-48" value="90" style="rounded=0;whiteSpace=wrap;html=1;" vertex="1" parent="1">
          <mxGeometry x="-315" y="1440" width="90" height="60" as="geometry" />
        </mxCell>
        <mxCell id="3vqmChRI_nULsQmvLEs1-49" value="110" style="rounded=0;whiteSpace=wrap;html=1;" vertex="1" parent="1">
          <mxGeometry x="-95" y="1620" width="90" height="60" as="geometry" />
        </mxCell>
        <mxCell id="3vqmChRI_nULsQmvLEs1-51" style="edgeStyle=orthogonalEdgeStyle;rounded=0;orthogonalLoop=1;jettySize=auto;html=1;exitX=1;exitY=0.5;exitDx=0;exitDy=0;entryX=0.5;entryY=0;entryDx=0;entryDy=0;" edge="1" parent="1" source="3vqmChRI_nULsQmvLEs1-53" target="3vqmChRI_nULsQmvLEs1-49">
          <mxGeometry relative="1" as="geometry" />
        </mxCell>
        <mxCell id="3vqmChRI_nULsQmvLEs1-52" style="edgeStyle=orthogonalEdgeStyle;rounded=0;orthogonalLoop=1;jettySize=auto;html=1;exitX=0;exitY=0.5;exitDx=0;exitDy=0;entryX=0.5;entryY=0;entryDx=0;entryDy=0;" edge="1" parent="1" source="3vqmChRI_nULsQmvLEs1-53" target="3vqmChRI_nULsQmvLEs1-54">
          <mxGeometry relative="1" as="geometry" />
        </mxCell>
        <mxCell id="3vqmChRI_nULsQmvLEs1-53" value="100" style="rounded=0;whiteSpace=wrap;html=1;" vertex="1" parent="1">
          <mxGeometry x="-195" y="1540" width="90" height="60" as="geometry" />
        </mxCell>
        <mxCell id="3vqmChRI_nULsQmvLEs1-54" value="95" style="rounded=0;whiteSpace=wrap;html=1;" vertex="1" parent="1">
          <mxGeometry x="-290" y="1620" width="90" height="60" as="geometry" />
        </mxCell>
        <mxCell id="3vqmChRI_nULsQmvLEs1-55" value="d)" style="text;html=1;align=center;verticalAlign=middle;resizable=0;points=[];autosize=1;strokeColor=none;fillColor=none;" vertex="1" parent="1">
          <mxGeometry x="-435" y="1750" width="30" height="30" as="geometry" />
        </mxCell>
        <mxCell id="3vqmChRI_nULsQmvLEs1-56" style="edgeStyle=orthogonalEdgeStyle;rounded=0;orthogonalLoop=1;jettySize=auto;html=1;exitX=1;exitY=0.5;exitDx=0;exitDy=0;" edge="1" parent="1" source="3vqmChRI_nULsQmvLEs1-57" target="3vqmChRI_nULsQmvLEs1-61">
          <mxGeometry relative="1" as="geometry" />
        </mxCell>
        <mxCell id="3vqmChRI_nULsQmvLEs1-64" style="edgeStyle=orthogonalEdgeStyle;rounded=0;orthogonalLoop=1;jettySize=auto;html=1;exitX=0;exitY=0.5;exitDx=0;exitDy=0;entryX=0.5;entryY=0;entryDx=0;entryDy=0;" edge="1" parent="1" source="3vqmChRI_nULsQmvLEs1-57" target="3vqmChRI_nULsQmvLEs1-63">
          <mxGeometry relative="1" as="geometry" />
        </mxCell>
        <mxCell id="3vqmChRI_nULsQmvLEs1-57" value="90" style="rounded=0;whiteSpace=wrap;html=1;" vertex="1" parent="1">
          <mxGeometry x="-280" y="1754" width="90" height="60" as="geometry" />
        </mxCell>
        <mxCell id="3vqmChRI_nULsQmvLEs1-58" value="110" style="rounded=0;whiteSpace=wrap;html=1;" vertex="1" parent="1">
          <mxGeometry x="-60" y="1930" width="90" height="60" as="geometry" />
        </mxCell>
        <mxCell id="3vqmChRI_nULsQmvLEs1-59" style="edgeStyle=orthogonalEdgeStyle;rounded=0;orthogonalLoop=1;jettySize=auto;html=1;exitX=1;exitY=0.5;exitDx=0;exitDy=0;entryX=0.5;entryY=0;entryDx=0;entryDy=0;" edge="1" parent="1" source="3vqmChRI_nULsQmvLEs1-61" target="3vqmChRI_nULsQmvLEs1-58">
          <mxGeometry relative="1" as="geometry" />
        </mxCell>
        <mxCell id="3vqmChRI_nULsQmvLEs1-60" style="edgeStyle=orthogonalEdgeStyle;rounded=0;orthogonalLoop=1;jettySize=auto;html=1;exitX=0;exitY=0.5;exitDx=0;exitDy=0;entryX=0.5;entryY=0;entryDx=0;entryDy=0;" edge="1" parent="1" source="3vqmChRI_nULsQmvLEs1-61" target="3vqmChRI_nULsQmvLEs1-62">
          <mxGeometry relative="1" as="geometry" />
        </mxCell>
        <mxCell id="3vqmChRI_nULsQmvLEs1-61" value="100" style="rounded=0;whiteSpace=wrap;html=1;" vertex="1" parent="1">
          <mxGeometry x="-160" y="1850" width="90" height="60" as="geometry" />
        </mxCell>
        <mxCell id="3vqmChRI_nULsQmvLEs1-62" value="95" style="rounded=0;whiteSpace=wrap;html=1;" vertex="1" parent="1">
          <mxGeometry x="-255" y="1930" width="90" height="60" as="geometry" />
        </mxCell>
        <mxCell id="3vqmChRI_nULsQmvLEs1-63" value="80" style="rounded=0;whiteSpace=wrap;html=1;" vertex="1" parent="1">
          <mxGeometry x="-400" y="1840" width="90" height="60" as="geometry" />
        </mxCell>
        <mxCell id="3vqmChRI_nULsQmvLEs1-65" style="edgeStyle=orthogonalEdgeStyle;rounded=0;orthogonalLoop=1;jettySize=auto;html=1;exitX=1;exitY=0.5;exitDx=0;exitDy=0;" edge="1" parent="1" source="3vqmChRI_nULsQmvLEs1-67" target="3vqmChRI_nULsQmvLEs1-71">
          <mxGeometry relative="1" as="geometry" />
        </mxCell>
        <mxCell id="3vqmChRI_nULsQmvLEs1-66" style="edgeStyle=orthogonalEdgeStyle;rounded=0;orthogonalLoop=1;jettySize=auto;html=1;exitX=0;exitY=0.5;exitDx=0;exitDy=0;entryX=0.5;entryY=0;entryDx=0;entryDy=0;" edge="1" parent="1" source="3vqmChRI_nULsQmvLEs1-67" target="3vqmChRI_nULsQmvLEs1-73">
          <mxGeometry relative="1" as="geometry" />
        </mxCell>
        <mxCell id="3vqmChRI_nULsQmvLEs1-67" value="95" style="rounded=0;whiteSpace=wrap;html=1;" vertex="1" parent="1">
          <mxGeometry x="-285" y="2040" width="90" height="60" as="geometry" />
        </mxCell>
        <mxCell id="3vqmChRI_nULsQmvLEs1-68" value="110" style="rounded=0;whiteSpace=wrap;html=1;" vertex="1" parent="1">
          <mxGeometry x="-65" y="2216" width="90" height="60" as="geometry" />
        </mxCell>
        <mxCell id="3vqmChRI_nULsQmvLEs1-69" style="edgeStyle=orthogonalEdgeStyle;rounded=0;orthogonalLoop=1;jettySize=auto;html=1;exitX=1;exitY=0.5;exitDx=0;exitDy=0;entryX=0.5;entryY=0;entryDx=0;entryDy=0;" edge="1" parent="1" source="3vqmChRI_nULsQmvLEs1-71" target="3vqmChRI_nULsQmvLEs1-68">
          <mxGeometry relative="1" as="geometry" />
        </mxCell>
        <mxCell id="3vqmChRI_nULsQmvLEs1-71" value="100" style="rounded=0;whiteSpace=wrap;html=1;" vertex="1" parent="1">
          <mxGeometry x="-165" y="2136" width="90" height="60" as="geometry" />
        </mxCell>
        <mxCell id="3vqmChRI_nULsQmvLEs1-73" value="80" style="rounded=0;whiteSpace=wrap;html=1;" vertex="1" parent="1">
          <mxGeometry x="-405" y="2126" width="90" height="60" as="geometry" />
        </mxCell>
        <mxCell id="3vqmChRI_nULsQmvLEs1-74" value="d)" style="text;html=1;align=center;verticalAlign=middle;resizable=0;points=[];autosize=1;strokeColor=none;fillColor=none;" vertex="1" parent="1">
          <mxGeometry x="-470" y="2070" width="30" height="30" as="geometry" />
        </mxCell>
        <mxCell id="3vqmChRI_nULsQmvLEs1-75" style="edgeStyle=orthogonalEdgeStyle;rounded=0;orthogonalLoop=1;jettySize=auto;html=1;exitX=1;exitY=0.5;exitDx=0;exitDy=0;" edge="1" parent="1" source="3vqmChRI_nULsQmvLEs1-77" target="3vqmChRI_nULsQmvLEs1-80">
          <mxGeometry relative="1" as="geometry" />
        </mxCell>
        <mxCell id="3vqmChRI_nULsQmvLEs1-76" style="edgeStyle=orthogonalEdgeStyle;rounded=0;orthogonalLoop=1;jettySize=auto;html=1;exitX=0;exitY=0.5;exitDx=0;exitDy=0;entryX=0.5;entryY=0;entryDx=0;entryDy=0;" edge="1" parent="1" source="3vqmChRI_nULsQmvLEs1-77" target="3vqmChRI_nULsQmvLEs1-81">
          <mxGeometry relative="1" as="geometry" />
        </mxCell>
        <mxCell id="3vqmChRI_nULsQmvLEs1-77" value="100" style="rounded=0;whiteSpace=wrap;html=1;" vertex="1" parent="1">
          <mxGeometry x="-297.5" y="2320" width="90" height="60" as="geometry" />
        </mxCell>
        <mxCell id="3vqmChRI_nULsQmvLEs1-78" value="120" style="rounded=0;whiteSpace=wrap;html=1;" vertex="1" parent="1">
          <mxGeometry x="-77.5" y="2496" width="90" height="60" as="geometry" />
        </mxCell>
        <mxCell id="3vqmChRI_nULsQmvLEs1-79" style="edgeStyle=orthogonalEdgeStyle;rounded=0;orthogonalLoop=1;jettySize=auto;html=1;exitX=1;exitY=0.5;exitDx=0;exitDy=0;entryX=0.5;entryY=0;entryDx=0;entryDy=0;" edge="1" parent="1" source="3vqmChRI_nULsQmvLEs1-80" target="3vqmChRI_nULsQmvLEs1-78">
          <mxGeometry relative="1" as="geometry" />
        </mxCell>
        <mxCell id="3vqmChRI_nULsQmvLEs1-80" value="110" style="rounded=0;whiteSpace=wrap;html=1;" vertex="1" parent="1">
          <mxGeometry x="-177.5" y="2416" width="90" height="60" as="geometry" />
        </mxCell>
        <mxCell id="3vqmChRI_nULsQmvLEs1-83" style="edgeStyle=orthogonalEdgeStyle;rounded=0;orthogonalLoop=1;jettySize=auto;html=1;exitX=1;exitY=0.5;exitDx=0;exitDy=0;" edge="1" parent="1" source="3vqmChRI_nULsQmvLEs1-81" target="3vqmChRI_nULsQmvLEs1-84">
          <mxGeometry relative="1" as="geometry">
            <mxPoint x="-290" y="2510" as="targetPoint" />
          </mxGeometry>
        </mxCell>
        <mxCell id="3vqmChRI_nULsQmvLEs1-88" style="edgeStyle=orthogonalEdgeStyle;rounded=0;orthogonalLoop=1;jettySize=auto;html=1;exitX=0;exitY=0.5;exitDx=0;exitDy=0;" edge="1" parent="1" source="3vqmChRI_nULsQmvLEs1-81">
          <mxGeometry relative="1" as="geometry">
            <mxPoint x="-460" y="2520" as="targetPoint" />
          </mxGeometry>
        </mxCell>
        <mxCell id="3vqmChRI_nULsQmvLEs1-81" value="90" style="rounded=0;whiteSpace=wrap;html=1;" vertex="1" parent="1">
          <mxGeometry x="-417.5" y="2406" width="90" height="60" as="geometry" />
        </mxCell>
        <mxCell id="3vqmChRI_nULsQmvLEs1-82" value="e)" style="text;html=1;align=center;verticalAlign=middle;resizable=0;points=[];autosize=1;strokeColor=none;fillColor=none;" vertex="1" parent="1">
          <mxGeometry x="-482.5" y="2350" width="30" height="30" as="geometry" />
        </mxCell>
        <mxCell id="3vqmChRI_nULsQmvLEs1-85" style="edgeStyle=orthogonalEdgeStyle;rounded=0;orthogonalLoop=1;jettySize=auto;html=1;exitX=1;exitY=0.5;exitDx=0;exitDy=0;" edge="1" parent="1" source="3vqmChRI_nULsQmvLEs1-84" target="3vqmChRI_nULsQmvLEs1-86">
          <mxGeometry relative="1" as="geometry">
            <mxPoint x="-210" y="2580" as="targetPoint" />
          </mxGeometry>
        </mxCell>
        <mxCell id="3vqmChRI_nULsQmvLEs1-84" value="95" style="rounded=0;whiteSpace=wrap;html=1;" vertex="1" parent="1">
          <mxGeometry x="-325" y="2476" width="80" height="60" as="geometry" />
        </mxCell>
        <mxCell id="3vqmChRI_nULsQmvLEs1-86" value="96" style="rounded=0;whiteSpace=wrap;html=1;" vertex="1" parent="1">
          <mxGeometry x="-245" y="2556" width="90" height="60" as="geometry" />
        </mxCell>
        <mxCell id="3vqmChRI_nULsQmvLEs1-90" value="80" style="rounded=0;whiteSpace=wrap;html=1;" vertex="1" parent="1">
          <mxGeometry x="-508" y="2520" width="95" height="60" as="geometry" />
        </mxCell>
        <mxCell id="3vqmChRI_nULsQmvLEs1-91" style="edgeStyle=orthogonalEdgeStyle;rounded=0;orthogonalLoop=1;jettySize=auto;html=1;exitX=1;exitY=0.5;exitDx=0;exitDy=0;" edge="1" parent="1" source="3vqmChRI_nULsQmvLEs1-93" target="3vqmChRI_nULsQmvLEs1-96">
          <mxGeometry relative="1" as="geometry" />
        </mxCell>
        <mxCell id="3vqmChRI_nULsQmvLEs1-92" style="edgeStyle=orthogonalEdgeStyle;rounded=0;orthogonalLoop=1;jettySize=auto;html=1;exitX=0;exitY=0.5;exitDx=0;exitDy=0;entryX=0.5;entryY=0;entryDx=0;entryDy=0;" edge="1" parent="1" source="3vqmChRI_nULsQmvLEs1-93" target="3vqmChRI_nULsQmvLEs1-99">
          <mxGeometry relative="1" as="geometry" />
        </mxCell>
        <mxCell id="3vqmChRI_nULsQmvLEs1-93" value="100" style="rounded=0;whiteSpace=wrap;html=1;" vertex="1" parent="1">
          <mxGeometry x="-314.75" y="2650" width="90" height="60" as="geometry" />
        </mxCell>
        <mxCell id="3vqmChRI_nULsQmvLEs1-94" value="120" style="rounded=0;whiteSpace=wrap;html=1;" vertex="1" parent="1">
          <mxGeometry x="-94.75" y="2826" width="90" height="60" as="geometry" />
        </mxCell>
        <mxCell id="3vqmChRI_nULsQmvLEs1-95" style="edgeStyle=orthogonalEdgeStyle;rounded=0;orthogonalLoop=1;jettySize=auto;html=1;exitX=1;exitY=0.5;exitDx=0;exitDy=0;entryX=0.5;entryY=0;entryDx=0;entryDy=0;" edge="1" parent="1" source="3vqmChRI_nULsQmvLEs1-96" target="3vqmChRI_nULsQmvLEs1-94">
          <mxGeometry relative="1" as="geometry" />
        </mxCell>
        <mxCell id="3vqmChRI_nULsQmvLEs1-96" value="110" style="rounded=0;whiteSpace=wrap;html=1;" vertex="1" parent="1">
          <mxGeometry x="-194.75" y="2746" width="90" height="60" as="geometry" />
        </mxCell>
        <mxCell id="3vqmChRI_nULsQmvLEs1-97" style="edgeStyle=orthogonalEdgeStyle;rounded=0;orthogonalLoop=1;jettySize=auto;html=1;exitX=1;exitY=0.5;exitDx=0;exitDy=0;" edge="1" parent="1" source="3vqmChRI_nULsQmvLEs1-99" target="3vqmChRI_nULsQmvLEs1-102">
          <mxGeometry relative="1" as="geometry">
            <mxPoint x="-307.25" y="2840" as="targetPoint" />
          </mxGeometry>
        </mxCell>
        <mxCell id="3vqmChRI_nULsQmvLEs1-99" value="90" style="rounded=0;whiteSpace=wrap;html=1;" vertex="1" parent="1">
          <mxGeometry x="-434.75" y="2736" width="90" height="60" as="geometry" />
        </mxCell>
        <mxCell id="3vqmChRI_nULsQmvLEs1-100" value="e)" style="text;html=1;align=center;verticalAlign=middle;resizable=0;points=[];autosize=1;strokeColor=none;fillColor=none;" vertex="1" parent="1">
          <mxGeometry x="-499.75" y="2680" width="30" height="30" as="geometry" />
        </mxCell>
        <mxCell id="3vqmChRI_nULsQmvLEs1-101" style="edgeStyle=orthogonalEdgeStyle;rounded=0;orthogonalLoop=1;jettySize=auto;html=1;exitX=1;exitY=0.5;exitDx=0;exitDy=0;" edge="1" parent="1" source="3vqmChRI_nULsQmvLEs1-102" target="3vqmChRI_nULsQmvLEs1-103">
          <mxGeometry relative="1" as="geometry">
            <mxPoint x="-227.25" y="2910" as="targetPoint" />
          </mxGeometry>
        </mxCell>
        <mxCell id="3vqmChRI_nULsQmvLEs1-102" value="95" style="rounded=0;whiteSpace=wrap;html=1;" vertex="1" parent="1">
          <mxGeometry x="-342.25" y="2806" width="80" height="60" as="geometry" />
        </mxCell>
        <mxCell id="3vqmChRI_nULsQmvLEs1-103" value="96" style="rounded=0;whiteSpace=wrap;html=1;" vertex="1" parent="1">
          <mxGeometry x="-262.25" y="2886" width="90" height="60" as="geometry" />
        </mxCell>
        <mxCell id="3vqmChRI_nULsQmvLEs1-105" style="edgeStyle=orthogonalEdgeStyle;rounded=0;orthogonalLoop=1;jettySize=auto;html=1;exitX=1;exitY=0.5;exitDx=0;exitDy=0;" edge="1" target="3vqmChRI_nULsQmvLEs1-109" parent="1">
          <mxGeometry relative="1" as="geometry">
            <mxPoint x="-225" y="2680" as="sourcePoint" />
          </mxGeometry>
        </mxCell>
        <mxCell id="3vqmChRI_nULsQmvLEs1-106" style="edgeStyle=orthogonalEdgeStyle;rounded=0;orthogonalLoop=1;jettySize=auto;html=1;exitX=0;exitY=0.5;exitDx=0;exitDy=0;entryX=0.5;entryY=0;entryDx=0;entryDy=0;" edge="1" target="3vqmChRI_nULsQmvLEs1-111" parent="1">
          <mxGeometry relative="1" as="geometry">
            <mxPoint x="-315" y="2680" as="sourcePoint" />
          </mxGeometry>
        </mxCell>
        <mxCell id="3vqmChRI_nULsQmvLEs1-107" value="120" style="rounded=0;whiteSpace=wrap;html=1;" vertex="1" parent="1">
          <mxGeometry x="-94.75" y="2826" width="90" height="60" as="geometry" />
        </mxCell>
        <mxCell id="3vqmChRI_nULsQmvLEs1-108" style="edgeStyle=orthogonalEdgeStyle;rounded=0;orthogonalLoop=1;jettySize=auto;html=1;exitX=1;exitY=0.5;exitDx=0;exitDy=0;entryX=0.5;entryY=0;entryDx=0;entryDy=0;" edge="1" source="3vqmChRI_nULsQmvLEs1-109" target="3vqmChRI_nULsQmvLEs1-107" parent="1">
          <mxGeometry relative="1" as="geometry" />
        </mxCell>
        <mxCell id="3vqmChRI_nULsQmvLEs1-109" value="110" style="rounded=0;whiteSpace=wrap;html=1;" vertex="1" parent="1">
          <mxGeometry x="-194.75" y="2746" width="90" height="60" as="geometry" />
        </mxCell>
        <mxCell id="3vqmChRI_nULsQmvLEs1-110" style="edgeStyle=orthogonalEdgeStyle;rounded=0;orthogonalLoop=1;jettySize=auto;html=1;exitX=1;exitY=0.5;exitDx=0;exitDy=0;" edge="1" source="3vqmChRI_nULsQmvLEs1-111" target="3vqmChRI_nULsQmvLEs1-114" parent="1">
          <mxGeometry relative="1" as="geometry">
            <mxPoint x="-307.25" y="2840" as="targetPoint" />
          </mxGeometry>
        </mxCell>
        <mxCell id="3vqmChRI_nULsQmvLEs1-111" value="90" style="rounded=0;whiteSpace=wrap;html=1;" vertex="1" parent="1">
          <mxGeometry x="-434.75" y="2736" width="90" height="60" as="geometry" />
        </mxCell>
        <mxCell id="3vqmChRI_nULsQmvLEs1-112" value="e)" style="text;html=1;align=center;verticalAlign=middle;resizable=0;points=[];autosize=1;strokeColor=none;fillColor=none;" vertex="1" parent="1">
          <mxGeometry x="-499.75" y="2680" width="30" height="30" as="geometry" />
        </mxCell>
        <mxCell id="3vqmChRI_nULsQmvLEs1-113" style="edgeStyle=orthogonalEdgeStyle;rounded=0;orthogonalLoop=1;jettySize=auto;html=1;exitX=1;exitY=0.5;exitDx=0;exitDy=0;" edge="1" source="3vqmChRI_nULsQmvLEs1-114" target="3vqmChRI_nULsQmvLEs1-115" parent="1">
          <mxGeometry relative="1" as="geometry">
            <mxPoint x="-227.25" y="2910" as="targetPoint" />
          </mxGeometry>
        </mxCell>
        <mxCell id="3vqmChRI_nULsQmvLEs1-114" value="95" style="rounded=0;whiteSpace=wrap;html=1;" vertex="1" parent="1">
          <mxGeometry x="-342.25" y="2806" width="80" height="60" as="geometry" />
        </mxCell>
        <mxCell id="3vqmChRI_nULsQmvLEs1-115" value="96" style="rounded=0;whiteSpace=wrap;html=1;" vertex="1" parent="1">
          <mxGeometry x="-262.25" y="2886" width="90" height="60" as="geometry" />
        </mxCell>
        <mxCell id="3vqmChRI_nULsQmvLEs1-124" value="f)" style="text;html=1;align=center;verticalAlign=middle;resizable=0;points=[];autosize=1;strokeColor=none;fillColor=none;" vertex="1" parent="1">
          <mxGeometry x="-512.5" y="3010" width="30" height="30" as="geometry" />
        </mxCell>
        <mxCell id="3vqmChRI_nULsQmvLEs1-128" style="edgeStyle=orthogonalEdgeStyle;rounded=0;orthogonalLoop=1;jettySize=auto;html=1;exitX=1;exitY=0.5;exitDx=0;exitDy=0;" edge="1" parent="1" source="3vqmChRI_nULsQmvLEs1-130" target="3vqmChRI_nULsQmvLEs1-133">
          <mxGeometry relative="1" as="geometry" />
        </mxCell>
        <mxCell id="3vqmChRI_nULsQmvLEs1-129" style="edgeStyle=orthogonalEdgeStyle;rounded=0;orthogonalLoop=1;jettySize=auto;html=1;exitX=0;exitY=0.5;exitDx=0;exitDy=0;entryX=0.5;entryY=0;entryDx=0;entryDy=0;" edge="1" parent="1" source="3vqmChRI_nULsQmvLEs1-130" target="3vqmChRI_nULsQmvLEs1-136">
          <mxGeometry relative="1" as="geometry" />
        </mxCell>
        <mxCell id="3vqmChRI_nULsQmvLEs1-130" value="100" style="rounded=0;whiteSpace=wrap;html=1;" vertex="1" parent="1">
          <mxGeometry x="-319.75" y="2980" width="90" height="60" as="geometry" />
        </mxCell>
        <mxCell id="3vqmChRI_nULsQmvLEs1-142" style="edgeStyle=orthogonalEdgeStyle;rounded=0;orthogonalLoop=1;jettySize=auto;html=1;exitX=0;exitY=0.5;exitDx=0;exitDy=0;" edge="1" parent="1" source="3vqmChRI_nULsQmvLEs1-131" target="3vqmChRI_nULsQmvLEs1-143">
          <mxGeometry relative="1" as="geometry">
            <mxPoint x="-160" y="3260" as="targetPoint" />
          </mxGeometry>
        </mxCell>
        <mxCell id="3vqmChRI_nULsQmvLEs1-131" value="120" style="rounded=0;whiteSpace=wrap;html=1;" vertex="1" parent="1">
          <mxGeometry x="-99.75" y="3156" width="90" height="60" as="geometry" />
        </mxCell>
        <mxCell id="3vqmChRI_nULsQmvLEs1-132" style="edgeStyle=orthogonalEdgeStyle;rounded=0;orthogonalLoop=1;jettySize=auto;html=1;exitX=1;exitY=0.5;exitDx=0;exitDy=0;entryX=0.5;entryY=0;entryDx=0;entryDy=0;" edge="1" parent="1" source="3vqmChRI_nULsQmvLEs1-133" target="3vqmChRI_nULsQmvLEs1-131">
          <mxGeometry relative="1" as="geometry" />
        </mxCell>
        <mxCell id="3vqmChRI_nULsQmvLEs1-133" value="110" style="rounded=0;whiteSpace=wrap;html=1;" vertex="1" parent="1">
          <mxGeometry x="-199.75" y="3076" width="90" height="60" as="geometry" />
        </mxCell>
        <mxCell id="3vqmChRI_nULsQmvLEs1-135" style="edgeStyle=orthogonalEdgeStyle;rounded=0;orthogonalLoop=1;jettySize=auto;html=1;exitX=0;exitY=0.5;exitDx=0;exitDy=0;" edge="1" parent="1" source="3vqmChRI_nULsQmvLEs1-136">
          <mxGeometry relative="1" as="geometry">
            <mxPoint x="-482.25" y="3180" as="targetPoint" />
          </mxGeometry>
        </mxCell>
        <mxCell id="3vqmChRI_nULsQmvLEs1-136" value="90" style="rounded=0;whiteSpace=wrap;html=1;" vertex="1" parent="1">
          <mxGeometry x="-439.75" y="3066" width="90" height="60" as="geometry" />
        </mxCell>
        <mxCell id="3vqmChRI_nULsQmvLEs1-141" value="80" style="rounded=0;whiteSpace=wrap;html=1;" vertex="1" parent="1">
          <mxGeometry x="-530.25" y="3180" width="95" height="60" as="geometry" />
        </mxCell>
        <mxCell id="3vqmChRI_nULsQmvLEs1-143" value="96" style="rounded=0;whiteSpace=wrap;html=1;" vertex="1" parent="1">
          <mxGeometry x="-189.75" y="3230" width="70" height="60" as="geometry" />
        </mxCell>
        <mxCell id="3vqmChRI_nULsQmvLEs1-144" value="f)" style="text;html=1;align=center;verticalAlign=middle;resizable=0;points=[];autosize=1;strokeColor=none;fillColor=none;" vertex="1" parent="1">
          <mxGeometry x="-527.5" y="3340" width="30" height="30" as="geometry" />
        </mxCell>
        <mxCell id="3vqmChRI_nULsQmvLEs1-145" style="edgeStyle=orthogonalEdgeStyle;rounded=0;orthogonalLoop=1;jettySize=auto;html=1;exitX=1;exitY=0.5;exitDx=0;exitDy=0;" edge="1" parent="1" source="3vqmChRI_nULsQmvLEs1-147" target="3vqmChRI_nULsQmvLEs1-151">
          <mxGeometry relative="1" as="geometry" />
        </mxCell>
        <mxCell id="3vqmChRI_nULsQmvLEs1-146" style="edgeStyle=orthogonalEdgeStyle;rounded=0;orthogonalLoop=1;jettySize=auto;html=1;exitX=0;exitY=0.5;exitDx=0;exitDy=0;entryX=0.5;entryY=0;entryDx=0;entryDy=0;" edge="1" parent="1" source="3vqmChRI_nULsQmvLEs1-147" target="3vqmChRI_nULsQmvLEs1-153">
          <mxGeometry relative="1" as="geometry" />
        </mxCell>
        <mxCell id="3vqmChRI_nULsQmvLEs1-147" value="100" style="rounded=0;whiteSpace=wrap;html=1;" vertex="1" parent="1">
          <mxGeometry x="-334.75" y="3310" width="90" height="60" as="geometry" />
        </mxCell>
        <mxCell id="3vqmChRI_nULsQmvLEs1-148" style="edgeStyle=orthogonalEdgeStyle;rounded=0;orthogonalLoop=1;jettySize=auto;html=1;exitX=0;exitY=0.5;exitDx=0;exitDy=0;" edge="1" parent="1" source="3vqmChRI_nULsQmvLEs1-149" target="3vqmChRI_nULsQmvLEs1-155">
          <mxGeometry relative="1" as="geometry">
            <mxPoint x="-175" y="3590" as="targetPoint" />
          </mxGeometry>
        </mxCell>
        <mxCell id="3vqmChRI_nULsQmvLEs1-149" value="120" style="rounded=0;whiteSpace=wrap;html=1;" vertex="1" parent="1">
          <mxGeometry x="-114.75" y="3486" width="90" height="60" as="geometry" />
        </mxCell>
        <mxCell id="3vqmChRI_nULsQmvLEs1-150" style="edgeStyle=orthogonalEdgeStyle;rounded=0;orthogonalLoop=1;jettySize=auto;html=1;exitX=1;exitY=0.5;exitDx=0;exitDy=0;entryX=0.5;entryY=0;entryDx=0;entryDy=0;" edge="1" parent="1" source="3vqmChRI_nULsQmvLEs1-151" target="3vqmChRI_nULsQmvLEs1-149">
          <mxGeometry relative="1" as="geometry" />
        </mxCell>
        <mxCell id="3vqmChRI_nULsQmvLEs1-151" value="110" style="rounded=0;whiteSpace=wrap;html=1;" vertex="1" parent="1">
          <mxGeometry x="-214.75" y="3406" width="90" height="60" as="geometry" />
        </mxCell>
        <mxCell id="3vqmChRI_nULsQmvLEs1-153" value="90" style="rounded=0;whiteSpace=wrap;html=1;" vertex="1" parent="1">
          <mxGeometry x="-454.75" y="3396" width="90" height="60" as="geometry" />
        </mxCell>
        <mxCell id="3vqmChRI_nULsQmvLEs1-155" value="96" style="rounded=0;whiteSpace=wrap;html=1;" vertex="1" parent="1">
          <mxGeometry x="-204.75" y="3560" width="70" height="60" as="geometry" />
        </mxCell>
        <mxCell id="3vqmChRI_nULsQmvLEs1-156" value="g)" style="text;html=1;align=center;verticalAlign=middle;resizable=0;points=[];autosize=1;strokeColor=none;fillColor=none;" vertex="1" parent="1">
          <mxGeometry x="-546.38" y="3680" width="30" height="30" as="geometry" />
        </mxCell>
        <mxCell id="3vqmChRI_nULsQmvLEs1-157" style="edgeStyle=orthogonalEdgeStyle;rounded=0;orthogonalLoop=1;jettySize=auto;html=1;exitX=1;exitY=0.5;exitDx=0;exitDy=0;" edge="1" parent="1" source="3vqmChRI_nULsQmvLEs1-159" target="3vqmChRI_nULsQmvLEs1-163">
          <mxGeometry relative="1" as="geometry" />
        </mxCell>
        <mxCell id="3vqmChRI_nULsQmvLEs1-158" style="edgeStyle=orthogonalEdgeStyle;rounded=0;orthogonalLoop=1;jettySize=auto;html=1;exitX=0;exitY=0.5;exitDx=0;exitDy=0;entryX=0.5;entryY=0;entryDx=0;entryDy=0;" edge="1" parent="1" source="3vqmChRI_nULsQmvLEs1-159" target="3vqmChRI_nULsQmvLEs1-164">
          <mxGeometry relative="1" as="geometry" />
        </mxCell>
        <mxCell id="3vqmChRI_nULsQmvLEs1-159" value="100" style="rounded=0;whiteSpace=wrap;html=1;" vertex="1" parent="1">
          <mxGeometry x="-353.63" y="3650" width="90" height="60" as="geometry" />
        </mxCell>
        <mxCell id="3vqmChRI_nULsQmvLEs1-161" value="120" style="rounded=0;whiteSpace=wrap;html=1;" vertex="1" parent="1">
          <mxGeometry x="-133.63" y="3826" width="90" height="60" as="geometry" />
        </mxCell>
        <mxCell id="3vqmChRI_nULsQmvLEs1-162" style="edgeStyle=orthogonalEdgeStyle;rounded=0;orthogonalLoop=1;jettySize=auto;html=1;exitX=1;exitY=0.5;exitDx=0;exitDy=0;entryX=0.5;entryY=0;entryDx=0;entryDy=0;" edge="1" parent="1" source="3vqmChRI_nULsQmvLEs1-163" target="3vqmChRI_nULsQmvLEs1-161">
          <mxGeometry relative="1" as="geometry" />
        </mxCell>
        <mxCell id="3vqmChRI_nULsQmvLEs1-163" value="110" style="rounded=0;whiteSpace=wrap;html=1;" vertex="1" parent="1">
          <mxGeometry x="-233.63" y="3746" width="90" height="60" as="geometry" />
        </mxCell>
        <mxCell id="3vqmChRI_nULsQmvLEs1-166" style="edgeStyle=orthogonalEdgeStyle;rounded=0;orthogonalLoop=1;jettySize=auto;html=1;exitX=0;exitY=0.5;exitDx=0;exitDy=0;" edge="1" parent="1" source="3vqmChRI_nULsQmvLEs1-164" target="3vqmChRI_nULsQmvLEs1-167">
          <mxGeometry relative="1" as="geometry">
            <mxPoint x="-510" y="3810" as="targetPoint" />
          </mxGeometry>
        </mxCell>
        <mxCell id="3vqmChRI_nULsQmvLEs1-168" style="edgeStyle=orthogonalEdgeStyle;rounded=0;orthogonalLoop=1;jettySize=auto;html=1;exitX=1;exitY=0.5;exitDx=0;exitDy=0;" edge="1" parent="1" source="3vqmChRI_nULsQmvLEs1-164" target="3vqmChRI_nULsQmvLEs1-169">
          <mxGeometry relative="1" as="geometry">
            <mxPoint x="-340" y="3820" as="targetPoint" />
          </mxGeometry>
        </mxCell>
        <mxCell id="3vqmChRI_nULsQmvLEs1-164" value="90" style="rounded=0;whiteSpace=wrap;html=1;" vertex="1" parent="1">
          <mxGeometry x="-473.63" y="3736" width="90" height="60" as="geometry" />
        </mxCell>
        <mxCell id="3vqmChRI_nULsQmvLEs1-165" value="96" style="rounded=0;whiteSpace=wrap;html=1;" vertex="1" parent="1">
          <mxGeometry x="-300" y="3900" width="70" height="60" as="geometry" />
        </mxCell>
        <mxCell id="3vqmChRI_nULsQmvLEs1-167" value="80" style="rounded=0;whiteSpace=wrap;html=1;" vertex="1" parent="1">
          <mxGeometry x="-573.88" y="3820" width="85" height="60" as="geometry" />
        </mxCell>
        <mxCell id="3vqmChRI_nULsQmvLEs1-169" value="95" style="rounded=0;whiteSpace=wrap;html=1;" vertex="1" parent="1">
          <mxGeometry x="-375" y="3806" width="80" height="60" as="geometry" />
        </mxCell>
        <mxCell id="3vqmChRI_nULsQmvLEs1-171" style="edgeStyle=orthogonalEdgeStyle;rounded=0;orthogonalLoop=1;jettySize=auto;html=1;exitX=1;exitY=0.5;exitDx=0;exitDy=0;entryX=0.631;entryY=0.014;entryDx=0;entryDy=0;entryPerimeter=0;" edge="1" parent="1" source="3vqmChRI_nULsQmvLEs1-169" target="3vqmChRI_nULsQmvLEs1-165">
          <mxGeometry relative="1" as="geometry" />
        </mxCell>
        <mxCell id="3vqmChRI_nULsQmvLEs1-172" value="g)" style="text;html=1;align=center;verticalAlign=middle;resizable=0;points=[];autosize=1;strokeColor=none;fillColor=none;" vertex="1" parent="1">
          <mxGeometry x="-518.88" y="4050" width="30" height="30" as="geometry" />
        </mxCell>
        <mxCell id="3vqmChRI_nULsQmvLEs1-173" style="edgeStyle=orthogonalEdgeStyle;rounded=0;orthogonalLoop=1;jettySize=auto;html=1;exitX=1;exitY=0.5;exitDx=0;exitDy=0;" edge="1" parent="1" source="3vqmChRI_nULsQmvLEs1-175" target="3vqmChRI_nULsQmvLEs1-178">
          <mxGeometry relative="1" as="geometry" />
        </mxCell>
        <mxCell id="3vqmChRI_nULsQmvLEs1-174" style="edgeStyle=orthogonalEdgeStyle;rounded=0;orthogonalLoop=1;jettySize=auto;html=1;exitX=0;exitY=0.5;exitDx=0;exitDy=0;entryX=0.5;entryY=0;entryDx=0;entryDy=0;" edge="1" parent="1" source="3vqmChRI_nULsQmvLEs1-175" target="3vqmChRI_nULsQmvLEs1-181">
          <mxGeometry relative="1" as="geometry" />
        </mxCell>
        <mxCell id="3vqmChRI_nULsQmvLEs1-175" value="100" style="rounded=0;whiteSpace=wrap;html=1;" vertex="1" parent="1">
          <mxGeometry x="-326.13" y="4020" width="90" height="60" as="geometry" />
        </mxCell>
        <mxCell id="3vqmChRI_nULsQmvLEs1-176" value="120" style="rounded=0;whiteSpace=wrap;html=1;" vertex="1" parent="1">
          <mxGeometry x="-106.13" y="4196" width="90" height="60" as="geometry" />
        </mxCell>
        <mxCell id="3vqmChRI_nULsQmvLEs1-177" style="edgeStyle=orthogonalEdgeStyle;rounded=0;orthogonalLoop=1;jettySize=auto;html=1;exitX=1;exitY=0.5;exitDx=0;exitDy=0;entryX=0.5;entryY=0;entryDx=0;entryDy=0;" edge="1" parent="1" source="3vqmChRI_nULsQmvLEs1-178" target="3vqmChRI_nULsQmvLEs1-176">
          <mxGeometry relative="1" as="geometry" />
        </mxCell>
        <mxCell id="3vqmChRI_nULsQmvLEs1-178" value="110" style="rounded=0;whiteSpace=wrap;html=1;" vertex="1" parent="1">
          <mxGeometry x="-206.13" y="4116" width="90" height="60" as="geometry" />
        </mxCell>
        <mxCell id="3vqmChRI_nULsQmvLEs1-179" style="edgeStyle=orthogonalEdgeStyle;rounded=0;orthogonalLoop=1;jettySize=auto;html=1;exitX=0;exitY=0.5;exitDx=0;exitDy=0;" edge="1" parent="1" source="3vqmChRI_nULsQmvLEs1-181" target="3vqmChRI_nULsQmvLEs1-183">
          <mxGeometry relative="1" as="geometry">
            <mxPoint x="-482.5" y="4180" as="targetPoint" />
          </mxGeometry>
        </mxCell>
        <mxCell id="3vqmChRI_nULsQmvLEs1-181" value="95" style="rounded=0;whiteSpace=wrap;html=1;" vertex="1" parent="1">
          <mxGeometry x="-446.13" y="4106" width="90" height="60" as="geometry" />
        </mxCell>
        <mxCell id="3vqmChRI_nULsQmvLEs1-182" value="96" style="rounded=0;whiteSpace=wrap;html=1;" vertex="1" parent="1">
          <mxGeometry x="-465" y="4300" width="70" height="60" as="geometry" />
        </mxCell>
        <mxCell id="3vqmChRI_nULsQmvLEs1-183" value="80" style="rounded=0;whiteSpace=wrap;html=1;" vertex="1" parent="1">
          <mxGeometry x="-546.38" y="4190" width="85" height="60" as="geometry" />
        </mxCell>
        <mxCell id="3vqmChRI_nULsQmvLEs1-185" style="edgeStyle=orthogonalEdgeStyle;rounded=0;orthogonalLoop=1;jettySize=auto;html=1;exitX=1;exitY=0.25;exitDx=0;exitDy=0;entryX=0.631;entryY=0.014;entryDx=0;entryDy=0;entryPerimeter=0;" edge="1" parent="1" source="3vqmChRI_nULsQmvLEs1-183" target="3vqmChRI_nULsQmvLEs1-182">
          <mxGeometry relative="1" as="geometry">
            <mxPoint x="-267.5" y="4206" as="sourcePoint" />
            <Array as="points">
              <mxPoint x="-461" y="4220" />
              <mxPoint x="-431" y="4220" />
            </Array>
          </mxGeometry>
        </mxCell>
        <mxCell id="3vqmChRI_nULsQmvLEs1-186" style="edgeStyle=orthogonalEdgeStyle;rounded=0;orthogonalLoop=1;jettySize=auto;html=1;exitX=1;exitY=0.5;exitDx=0;exitDy=0;" edge="1" parent="1" source="3vqmChRI_nULsQmvLEs1-188" target="3vqmChRI_nULsQmvLEs1-191">
          <mxGeometry relative="1" as="geometry" />
        </mxCell>
        <mxCell id="3vqmChRI_nULsQmvLEs1-187" style="edgeStyle=orthogonalEdgeStyle;rounded=0;orthogonalLoop=1;jettySize=auto;html=1;exitX=0;exitY=0.5;exitDx=0;exitDy=0;entryX=0.5;entryY=0;entryDx=0;entryDy=0;" edge="1" parent="1" source="3vqmChRI_nULsQmvLEs1-188" target="3vqmChRI_nULsQmvLEs1-193">
          <mxGeometry relative="1" as="geometry" />
        </mxCell>
        <mxCell id="3vqmChRI_nULsQmvLEs1-188" value="100" style="rounded=0;whiteSpace=wrap;html=1;" vertex="1" parent="1">
          <mxGeometry x="-319.75" y="4380" width="90" height="60" as="geometry" />
        </mxCell>
        <mxCell id="3vqmChRI_nULsQmvLEs1-189" value="120" style="rounded=0;whiteSpace=wrap;html=1;" vertex="1" parent="1">
          <mxGeometry x="-99.75" y="4556" width="90" height="60" as="geometry" />
        </mxCell>
        <mxCell id="3vqmChRI_nULsQmvLEs1-190" style="edgeStyle=orthogonalEdgeStyle;rounded=0;orthogonalLoop=1;jettySize=auto;html=1;exitX=1;exitY=0.5;exitDx=0;exitDy=0;entryX=0.5;entryY=0;entryDx=0;entryDy=0;" edge="1" parent="1" source="3vqmChRI_nULsQmvLEs1-191" target="3vqmChRI_nULsQmvLEs1-189">
          <mxGeometry relative="1" as="geometry" />
        </mxCell>
        <mxCell id="3vqmChRI_nULsQmvLEs1-191" value="110" style="rounded=0;whiteSpace=wrap;html=1;" vertex="1" parent="1">
          <mxGeometry x="-199.75" y="4476" width="90" height="60" as="geometry" />
        </mxCell>
        <mxCell id="3vqmChRI_nULsQmvLEs1-192" style="edgeStyle=orthogonalEdgeStyle;rounded=0;orthogonalLoop=1;jettySize=auto;html=1;exitX=0;exitY=0.5;exitDx=0;exitDy=0;" edge="1" parent="1" source="3vqmChRI_nULsQmvLEs1-193" target="3vqmChRI_nULsQmvLEs1-195">
          <mxGeometry relative="1" as="geometry">
            <mxPoint x="-476.12" y="4540" as="targetPoint" />
          </mxGeometry>
        </mxCell>
        <mxCell id="3vqmChRI_nULsQmvLEs1-199" style="edgeStyle=orthogonalEdgeStyle;rounded=0;orthogonalLoop=1;jettySize=auto;html=1;exitX=1;exitY=0.5;exitDx=0;exitDy=0;" edge="1" parent="1" source="3vqmChRI_nULsQmvLEs1-193" target="3vqmChRI_nULsQmvLEs1-194">
          <mxGeometry relative="1" as="geometry" />
        </mxCell>
        <mxCell id="3vqmChRI_nULsQmvLEs1-193" value="90" style="rounded=0;whiteSpace=wrap;html=1;" vertex="1" parent="1">
          <mxGeometry x="-439.75" y="4466" width="90" height="60" as="geometry" />
        </mxCell>
        <mxCell id="3vqmChRI_nULsQmvLEs1-194" value="95" style="rounded=0;whiteSpace=wrap;html=1;" vertex="1" parent="1">
          <mxGeometry x="-345" y="4556" width="70" height="60" as="geometry" />
        </mxCell>
        <mxCell id="3vqmChRI_nULsQmvLEs1-195" value="80" style="rounded=0;whiteSpace=wrap;html=1;" vertex="1" parent="1">
          <mxGeometry x="-540" y="4550" width="85" height="60" as="geometry" />
        </mxCell>
        <mxCell id="3vqmChRI_nULsQmvLEs1-197" value="h)" style="text;html=1;align=center;verticalAlign=middle;resizable=0;points=[];autosize=1;strokeColor=none;fillColor=none;" vertex="1" parent="1">
          <mxGeometry x="-603.88" y="4430" width="30" height="30" as="geometry" />
        </mxCell>
        <mxCell id="3vqmChRI_nULsQmvLEs1-200" style="edgeStyle=orthogonalEdgeStyle;rounded=0;orthogonalLoop=1;jettySize=auto;html=1;exitX=1;exitY=0.5;exitDx=0;exitDy=0;" edge="1" parent="1" source="3vqmChRI_nULsQmvLEs1-202" target="3vqmChRI_nULsQmvLEs1-205">
          <mxGeometry relative="1" as="geometry" />
        </mxCell>
        <mxCell id="3vqmChRI_nULsQmvLEs1-201" style="edgeStyle=orthogonalEdgeStyle;rounded=0;orthogonalLoop=1;jettySize=auto;html=1;exitX=0;exitY=0.5;exitDx=0;exitDy=0;entryX=0.5;entryY=0;entryDx=0;entryDy=0;" edge="1" parent="1" source="3vqmChRI_nULsQmvLEs1-202" target="3vqmChRI_nULsQmvLEs1-208">
          <mxGeometry relative="1" as="geometry" />
        </mxCell>
        <mxCell id="3vqmChRI_nULsQmvLEs1-202" value="100" style="rounded=0;whiteSpace=wrap;html=1;" vertex="1" parent="1">
          <mxGeometry x="-340" y="4690" width="90" height="60" as="geometry" />
        </mxCell>
        <mxCell id="3vqmChRI_nULsQmvLEs1-203" value="120" style="rounded=0;whiteSpace=wrap;html=1;" vertex="1" parent="1">
          <mxGeometry x="-120" y="4866" width="90" height="60" as="geometry" />
        </mxCell>
        <mxCell id="3vqmChRI_nULsQmvLEs1-204" style="edgeStyle=orthogonalEdgeStyle;rounded=0;orthogonalLoop=1;jettySize=auto;html=1;exitX=1;exitY=0.5;exitDx=0;exitDy=0;entryX=0.5;entryY=0;entryDx=0;entryDy=0;" edge="1" parent="1" source="3vqmChRI_nULsQmvLEs1-205" target="3vqmChRI_nULsQmvLEs1-203">
          <mxGeometry relative="1" as="geometry" />
        </mxCell>
        <mxCell id="3vqmChRI_nULsQmvLEs1-205" value="110" style="rounded=0;whiteSpace=wrap;html=1;" vertex="1" parent="1">
          <mxGeometry x="-220" y="4786" width="90" height="60" as="geometry" />
        </mxCell>
        <mxCell id="3vqmChRI_nULsQmvLEs1-206" style="edgeStyle=orthogonalEdgeStyle;rounded=0;orthogonalLoop=1;jettySize=auto;html=1;exitX=0;exitY=0.5;exitDx=0;exitDy=0;" edge="1" parent="1" source="3vqmChRI_nULsQmvLEs1-208" target="3vqmChRI_nULsQmvLEs1-210">
          <mxGeometry relative="1" as="geometry">
            <mxPoint x="-496.37" y="4850" as="targetPoint" />
          </mxGeometry>
        </mxCell>
        <mxCell id="3vqmChRI_nULsQmvLEs1-208" value="95" style="rounded=0;whiteSpace=wrap;html=1;" vertex="1" parent="1">
          <mxGeometry x="-460" y="4776" width="90" height="60" as="geometry" />
        </mxCell>
        <mxCell id="3vqmChRI_nULsQmvLEs1-210" value="80" style="rounded=0;whiteSpace=wrap;html=1;" vertex="1" parent="1">
          <mxGeometry x="-560.25" y="4860" width="85" height="60" as="geometry" />
        </mxCell>
        <mxCell id="3vqmChRI_nULsQmvLEs1-211" value="h)" style="text;html=1;align=center;verticalAlign=middle;resizable=0;points=[];autosize=1;strokeColor=none;fillColor=none;" vertex="1" parent="1">
          <mxGeometry x="-624.13" y="4740" width="30" height="30" as="geometry" />
        </mxCell>
        <mxCell id="3vqmChRI_nULsQmvLEs1-212" style="edgeStyle=orthogonalEdgeStyle;rounded=0;orthogonalLoop=1;jettySize=auto;html=1;exitX=1;exitY=0.5;exitDx=0;exitDy=0;" edge="1" parent="1" source="3vqmChRI_nULsQmvLEs1-214" target="3vqmChRI_nULsQmvLEs1-217">
          <mxGeometry relative="1" as="geometry" />
        </mxCell>
        <mxCell id="3vqmChRI_nULsQmvLEs1-213" style="edgeStyle=orthogonalEdgeStyle;rounded=0;orthogonalLoop=1;jettySize=auto;html=1;exitX=0;exitY=0.5;exitDx=0;exitDy=0;entryX=0.5;entryY=0;entryDx=0;entryDy=0;" edge="1" parent="1" source="3vqmChRI_nULsQmvLEs1-214" target="3vqmChRI_nULsQmvLEs1-219">
          <mxGeometry relative="1" as="geometry" />
        </mxCell>
        <mxCell id="3vqmChRI_nULsQmvLEs1-214" value="100" style="rounded=0;whiteSpace=wrap;html=1;" vertex="1" parent="1">
          <mxGeometry x="-347.93" y="4960" width="90" height="60" as="geometry" />
        </mxCell>
        <mxCell id="3vqmChRI_nULsQmvLEs1-215" value="120" style="rounded=0;whiteSpace=wrap;html=1;" vertex="1" parent="1">
          <mxGeometry x="-127.93" y="5136" width="90" height="60" as="geometry" />
        </mxCell>
        <mxCell id="3vqmChRI_nULsQmvLEs1-216" style="edgeStyle=orthogonalEdgeStyle;rounded=0;orthogonalLoop=1;jettySize=auto;html=1;exitX=1;exitY=0.5;exitDx=0;exitDy=0;entryX=0.5;entryY=0;entryDx=0;entryDy=0;" edge="1" parent="1" source="3vqmChRI_nULsQmvLEs1-217" target="3vqmChRI_nULsQmvLEs1-215">
          <mxGeometry relative="1" as="geometry" />
        </mxCell>
        <mxCell id="3vqmChRI_nULsQmvLEs1-222" style="edgeStyle=orthogonalEdgeStyle;rounded=0;orthogonalLoop=1;jettySize=auto;html=1;exitX=0;exitY=0.5;exitDx=0;exitDy=0;" edge="1" parent="1" source="3vqmChRI_nULsQmvLEs1-217" target="3vqmChRI_nULsQmvLEs1-223">
          <mxGeometry relative="1" as="geometry">
            <mxPoint x="-260" y="5160" as="targetPoint" />
          </mxGeometry>
        </mxCell>
        <mxCell id="3vqmChRI_nULsQmvLEs1-217" value="110" style="rounded=0;whiteSpace=wrap;html=1;" vertex="1" parent="1">
          <mxGeometry x="-227.93" y="5056" width="90" height="60" as="geometry" />
        </mxCell>
        <mxCell id="3vqmChRI_nULsQmvLEs1-218" style="edgeStyle=orthogonalEdgeStyle;rounded=0;orthogonalLoop=1;jettySize=auto;html=1;exitX=0;exitY=0.5;exitDx=0;exitDy=0;" edge="1" parent="1" source="3vqmChRI_nULsQmvLEs1-219" target="3vqmChRI_nULsQmvLEs1-220">
          <mxGeometry relative="1" as="geometry">
            <mxPoint x="-504.3" y="5120" as="targetPoint" />
          </mxGeometry>
        </mxCell>
        <mxCell id="3vqmChRI_nULsQmvLEs1-219" value="90" style="rounded=0;whiteSpace=wrap;html=1;" vertex="1" parent="1">
          <mxGeometry x="-467.93" y="5046" width="90" height="60" as="geometry" />
        </mxCell>
        <mxCell id="3vqmChRI_nULsQmvLEs1-220" value="80" style="rounded=0;whiteSpace=wrap;html=1;" vertex="1" parent="1">
          <mxGeometry x="-568.18" y="5130" width="85" height="60" as="geometry" />
        </mxCell>
        <mxCell id="3vqmChRI_nULsQmvLEs1-221" value="i)" style="text;html=1;align=center;verticalAlign=middle;resizable=0;points=[];autosize=1;strokeColor=none;fillColor=none;" vertex="1" parent="1">
          <mxGeometry x="-632.06" y="5010" width="30" height="30" as="geometry" />
        </mxCell>
        <mxCell id="3vqmChRI_nULsQmvLEs1-224" style="edgeStyle=orthogonalEdgeStyle;rounded=0;orthogonalLoop=1;jettySize=auto;html=1;exitX=0;exitY=0.5;exitDx=0;exitDy=0;" edge="1" parent="1" source="3vqmChRI_nULsQmvLEs1-223" target="3vqmChRI_nULsQmvLEs1-225">
          <mxGeometry relative="1" as="geometry">
            <mxPoint x="-350" y="5220" as="targetPoint" />
          </mxGeometry>
        </mxCell>
        <mxCell id="3vqmChRI_nULsQmvLEs1-223" value="105" style="rounded=0;whiteSpace=wrap;html=1;" vertex="1" parent="1">
          <mxGeometry x="-310" y="5136" width="80" height="60" as="geometry" />
        </mxCell>
        <mxCell id="3vqmChRI_nULsQmvLEs1-225" value="104" style="rounded=0;whiteSpace=wrap;html=1;" vertex="1" parent="1">
          <mxGeometry x="-400" y="5210" width="80" height="60" as="geometry" />
        </mxCell>
        <mxCell id="3vqmChRI_nULsQmvLEs1-226" style="edgeStyle=orthogonalEdgeStyle;rounded=0;orthogonalLoop=1;jettySize=auto;html=1;exitX=1;exitY=0.5;exitDx=0;exitDy=0;" edge="1" parent="1" source="3vqmChRI_nULsQmvLEs1-228" target="3vqmChRI_nULsQmvLEs1-232">
          <mxGeometry relative="1" as="geometry" />
        </mxCell>
        <mxCell id="3vqmChRI_nULsQmvLEs1-227" style="edgeStyle=orthogonalEdgeStyle;rounded=0;orthogonalLoop=1;jettySize=auto;html=1;exitX=0;exitY=0.5;exitDx=0;exitDy=0;entryX=0.5;entryY=0;entryDx=0;entryDy=0;" edge="1" parent="1" source="3vqmChRI_nULsQmvLEs1-228" target="3vqmChRI_nULsQmvLEs1-234">
          <mxGeometry relative="1" as="geometry" />
        </mxCell>
        <mxCell id="3vqmChRI_nULsQmvLEs1-228" value="100" style="rounded=0;whiteSpace=wrap;html=1;" vertex="1" parent="1">
          <mxGeometry x="-353.63" y="5330" width="90" height="60" as="geometry" />
        </mxCell>
        <mxCell id="3vqmChRI_nULsQmvLEs1-229" value="120" style="rounded=0;whiteSpace=wrap;html=1;" vertex="1" parent="1">
          <mxGeometry x="-133.63" y="5506" width="90" height="60" as="geometry" />
        </mxCell>
        <mxCell id="3vqmChRI_nULsQmvLEs1-230" style="edgeStyle=orthogonalEdgeStyle;rounded=0;orthogonalLoop=1;jettySize=auto;html=1;exitX=1;exitY=0.5;exitDx=0;exitDy=0;entryX=0.5;entryY=0;entryDx=0;entryDy=0;" edge="1" parent="1" source="3vqmChRI_nULsQmvLEs1-232" target="3vqmChRI_nULsQmvLEs1-229">
          <mxGeometry relative="1" as="geometry" />
        </mxCell>
        <mxCell id="3vqmChRI_nULsQmvLEs1-231" style="edgeStyle=orthogonalEdgeStyle;rounded=0;orthogonalLoop=1;jettySize=auto;html=1;exitX=0;exitY=0.5;exitDx=0;exitDy=0;" edge="1" parent="1" source="3vqmChRI_nULsQmvLEs1-232" target="3vqmChRI_nULsQmvLEs1-238">
          <mxGeometry relative="1" as="geometry">
            <mxPoint x="-265.7" y="5530" as="targetPoint" />
          </mxGeometry>
        </mxCell>
        <mxCell id="3vqmChRI_nULsQmvLEs1-232" value="110" style="rounded=0;whiteSpace=wrap;html=1;" vertex="1" parent="1">
          <mxGeometry x="-233.63" y="5426" width="90" height="60" as="geometry" />
        </mxCell>
        <mxCell id="3vqmChRI_nULsQmvLEs1-234" value="90" style="rounded=0;whiteSpace=wrap;html=1;" vertex="1" parent="1">
          <mxGeometry x="-473.63" y="5416" width="90" height="60" as="geometry" />
        </mxCell>
        <mxCell id="3vqmChRI_nULsQmvLEs1-236" value="i)" style="text;html=1;align=center;verticalAlign=middle;resizable=0;points=[];autosize=1;strokeColor=none;fillColor=none;" vertex="1" parent="1">
          <mxGeometry x="-637.76" y="5380" width="30" height="30" as="geometry" />
        </mxCell>
        <mxCell id="3vqmChRI_nULsQmvLEs1-237" style="edgeStyle=orthogonalEdgeStyle;rounded=0;orthogonalLoop=1;jettySize=auto;html=1;exitX=0;exitY=0.5;exitDx=0;exitDy=0;" edge="1" parent="1" source="3vqmChRI_nULsQmvLEs1-238" target="3vqmChRI_nULsQmvLEs1-239">
          <mxGeometry relative="1" as="geometry">
            <mxPoint x="-355.7" y="5590" as="targetPoint" />
          </mxGeometry>
        </mxCell>
        <mxCell id="3vqmChRI_nULsQmvLEs1-238" value="105" style="rounded=0;whiteSpace=wrap;html=1;" vertex="1" parent="1">
          <mxGeometry x="-315.7" y="5506" width="80" height="60" as="geometry" />
        </mxCell>
        <mxCell id="3vqmChRI_nULsQmvLEs1-239" value="104" style="rounded=0;whiteSpace=wrap;html=1;" vertex="1" parent="1">
          <mxGeometry x="-405.7" y="5580" width="80" height="60" as="geometry" />
        </mxCell>
        <mxCell id="3vqmChRI_nULsQmvLEs1-240" style="edgeStyle=orthogonalEdgeStyle;rounded=0;orthogonalLoop=1;jettySize=auto;html=1;exitX=1;exitY=0.5;exitDx=0;exitDy=0;" edge="1" parent="1" source="3vqmChRI_nULsQmvLEs1-242" target="3vqmChRI_nULsQmvLEs1-246">
          <mxGeometry relative="1" as="geometry" />
        </mxCell>
        <mxCell id="3vqmChRI_nULsQmvLEs1-241" style="edgeStyle=orthogonalEdgeStyle;rounded=0;orthogonalLoop=1;jettySize=auto;html=1;exitX=0;exitY=0.5;exitDx=0;exitDy=0;entryX=0.5;entryY=0;entryDx=0;entryDy=0;" edge="1" parent="1" source="3vqmChRI_nULsQmvLEs1-242" target="3vqmChRI_nULsQmvLEs1-247">
          <mxGeometry relative="1" as="geometry" />
        </mxCell>
        <mxCell id="3vqmChRI_nULsQmvLEs1-242" value="100" style="rounded=0;whiteSpace=wrap;html=1;" vertex="1" parent="1">
          <mxGeometry x="-353.63" y="5700" width="90" height="60" as="geometry" />
        </mxCell>
        <mxCell id="3vqmChRI_nULsQmvLEs1-243" value="120" style="rounded=0;whiteSpace=wrap;html=1;" vertex="1" parent="1">
          <mxGeometry x="-133.63" y="5876" width="90" height="60" as="geometry" />
        </mxCell>
        <mxCell id="3vqmChRI_nULsQmvLEs1-244" style="edgeStyle=orthogonalEdgeStyle;rounded=0;orthogonalLoop=1;jettySize=auto;html=1;exitX=1;exitY=0.5;exitDx=0;exitDy=0;entryX=0.5;entryY=0;entryDx=0;entryDy=0;" edge="1" parent="1" source="3vqmChRI_nULsQmvLEs1-246" target="3vqmChRI_nULsQmvLEs1-243">
          <mxGeometry relative="1" as="geometry" />
        </mxCell>
        <mxCell id="3vqmChRI_nULsQmvLEs1-245" style="edgeStyle=orthogonalEdgeStyle;rounded=0;orthogonalLoop=1;jettySize=auto;html=1;exitX=0;exitY=0.5;exitDx=0;exitDy=0;" edge="1" parent="1" source="3vqmChRI_nULsQmvLEs1-246" target="3vqmChRI_nULsQmvLEs1-250">
          <mxGeometry relative="1" as="geometry">
            <mxPoint x="-265.7" y="5900" as="targetPoint" />
          </mxGeometry>
        </mxCell>
        <mxCell id="3vqmChRI_nULsQmvLEs1-246" value="110" style="rounded=0;whiteSpace=wrap;html=1;" vertex="1" parent="1">
          <mxGeometry x="-233.63" y="5796" width="90" height="60" as="geometry" />
        </mxCell>
        <mxCell id="3vqmChRI_nULsQmvLEs1-267" style="edgeStyle=orthogonalEdgeStyle;rounded=0;orthogonalLoop=1;jettySize=auto;html=1;exitX=0;exitY=0.5;exitDx=0;exitDy=0;" edge="1" parent="1" source="3vqmChRI_nULsQmvLEs1-247" target="3vqmChRI_nULsQmvLEs1-268">
          <mxGeometry relative="1" as="geometry">
            <mxPoint x="-530" y="5860" as="targetPoint" />
          </mxGeometry>
        </mxCell>
        <mxCell id="3vqmChRI_nULsQmvLEs1-247" value="90" style="rounded=0;whiteSpace=wrap;html=1;" vertex="1" parent="1">
          <mxGeometry x="-473.63" y="5786" width="90" height="60" as="geometry" />
        </mxCell>
        <mxCell id="3vqmChRI_nULsQmvLEs1-248" value="j)" style="text;html=1;align=center;verticalAlign=middle;resizable=0;points=[];autosize=1;strokeColor=none;fillColor=none;" vertex="1" parent="1">
          <mxGeometry x="-637.76" y="5750" width="30" height="30" as="geometry" />
        </mxCell>
        <mxCell id="3vqmChRI_nULsQmvLEs1-252" style="edgeStyle=orthogonalEdgeStyle;rounded=0;orthogonalLoop=1;jettySize=auto;html=1;exitX=1;exitY=0.5;exitDx=0;exitDy=0;" edge="1" parent="1" source="3vqmChRI_nULsQmvLEs1-250" target="3vqmChRI_nULsQmvLEs1-253">
          <mxGeometry relative="1" as="geometry">
            <mxPoint x="-200" y="6000" as="targetPoint" />
          </mxGeometry>
        </mxCell>
        <mxCell id="3vqmChRI_nULsQmvLEs1-250" value="105" style="rounded=0;whiteSpace=wrap;html=1;" vertex="1" parent="1">
          <mxGeometry x="-315.7" y="5876" width="80" height="60" as="geometry" />
        </mxCell>
        <mxCell id="3vqmChRI_nULsQmvLEs1-253" value="106" style="rounded=0;whiteSpace=wrap;html=1;" vertex="1" parent="1">
          <mxGeometry x="-236.13" y="5970" width="90" height="60" as="geometry" />
        </mxCell>
        <mxCell id="3vqmChRI_nULsQmvLEs1-254" style="edgeStyle=orthogonalEdgeStyle;rounded=0;orthogonalLoop=1;jettySize=auto;html=1;exitX=1;exitY=0.5;exitDx=0;exitDy=0;" edge="1" parent="1" source="3vqmChRI_nULsQmvLEs1-256" target="3vqmChRI_nULsQmvLEs1-260">
          <mxGeometry relative="1" as="geometry" />
        </mxCell>
        <mxCell id="3vqmChRI_nULsQmvLEs1-255" style="edgeStyle=orthogonalEdgeStyle;rounded=0;orthogonalLoop=1;jettySize=auto;html=1;exitX=0;exitY=0.5;exitDx=0;exitDy=0;entryX=0.5;entryY=0;entryDx=0;entryDy=0;" edge="1" parent="1" source="3vqmChRI_nULsQmvLEs1-256" target="3vqmChRI_nULsQmvLEs1-261">
          <mxGeometry relative="1" as="geometry" />
        </mxCell>
        <mxCell id="3vqmChRI_nULsQmvLEs1-256" value="100" style="rounded=0;whiteSpace=wrap;html=1;" vertex="1" parent="1">
          <mxGeometry x="-365.87" y="6080" width="90" height="60" as="geometry" />
        </mxCell>
        <mxCell id="3vqmChRI_nULsQmvLEs1-257" value="120" style="rounded=0;whiteSpace=wrap;html=1;" vertex="1" parent="1">
          <mxGeometry x="-145.87" y="6256" width="90" height="60" as="geometry" />
        </mxCell>
        <mxCell id="3vqmChRI_nULsQmvLEs1-258" style="edgeStyle=orthogonalEdgeStyle;rounded=0;orthogonalLoop=1;jettySize=auto;html=1;exitX=1;exitY=0.5;exitDx=0;exitDy=0;entryX=0.5;entryY=0;entryDx=0;entryDy=0;" edge="1" parent="1" source="3vqmChRI_nULsQmvLEs1-260" target="3vqmChRI_nULsQmvLEs1-257">
          <mxGeometry relative="1" as="geometry" />
        </mxCell>
        <mxCell id="3vqmChRI_nULsQmvLEs1-259" style="edgeStyle=orthogonalEdgeStyle;rounded=0;orthogonalLoop=1;jettySize=auto;html=1;exitX=0;exitY=0.5;exitDx=0;exitDy=0;" edge="1" parent="1" source="3vqmChRI_nULsQmvLEs1-260" target="3vqmChRI_nULsQmvLEs1-264">
          <mxGeometry relative="1" as="geometry">
            <mxPoint x="-277.94" y="6280" as="targetPoint" />
          </mxGeometry>
        </mxCell>
        <mxCell id="3vqmChRI_nULsQmvLEs1-260" value="110" style="rounded=0;whiteSpace=wrap;html=1;" vertex="1" parent="1">
          <mxGeometry x="-245.87" y="6176" width="90" height="60" as="geometry" />
        </mxCell>
        <mxCell id="3vqmChRI_nULsQmvLEs1-261" value="90" style="rounded=0;whiteSpace=wrap;html=1;" vertex="1" parent="1">
          <mxGeometry x="-485.87" y="6166" width="90" height="60" as="geometry" />
        </mxCell>
        <mxCell id="3vqmChRI_nULsQmvLEs1-262" value="j)" style="text;html=1;align=center;verticalAlign=middle;resizable=0;points=[];autosize=1;strokeColor=none;fillColor=none;" vertex="1" parent="1">
          <mxGeometry x="-650" y="6130" width="30" height="30" as="geometry" />
        </mxCell>
        <mxCell id="3vqmChRI_nULsQmvLEs1-263" style="edgeStyle=orthogonalEdgeStyle;rounded=0;orthogonalLoop=1;jettySize=auto;html=1;exitX=1;exitY=0.5;exitDx=0;exitDy=0;" edge="1" parent="1" source="3vqmChRI_nULsQmvLEs1-264" target="3vqmChRI_nULsQmvLEs1-265">
          <mxGeometry relative="1" as="geometry">
            <mxPoint x="-212.24" y="6380" as="targetPoint" />
          </mxGeometry>
        </mxCell>
        <mxCell id="3vqmChRI_nULsQmvLEs1-264" value="105" style="rounded=0;whiteSpace=wrap;html=1;" vertex="1" parent="1">
          <mxGeometry x="-327.94" y="6256" width="80" height="60" as="geometry" />
        </mxCell>
        <mxCell id="3vqmChRI_nULsQmvLEs1-265" value="106" style="rounded=0;whiteSpace=wrap;html=1;" vertex="1" parent="1">
          <mxGeometry x="-248.37" y="6350" width="90" height="60" as="geometry" />
        </mxCell>
        <mxCell id="3vqmChRI_nULsQmvLEs1-268" value="80" style="rounded=0;whiteSpace=wrap;html=1;" vertex="1" parent="1">
          <mxGeometry x="-589.75" y="5870" width="90" height="60" as="geometry" />
        </mxCell>
        <mxCell id="3vqmChRI_nULsQmvLEs1-269" style="edgeStyle=orthogonalEdgeStyle;rounded=0;orthogonalLoop=1;jettySize=auto;html=1;exitX=1;exitY=0.5;exitDx=0;exitDy=0;" edge="1" parent="1" source="3vqmChRI_nULsQmvLEs1-271" target="3vqmChRI_nULsQmvLEs1-275">
          <mxGeometry relative="1" as="geometry" />
        </mxCell>
        <mxCell id="3vqmChRI_nULsQmvLEs1-270" style="edgeStyle=orthogonalEdgeStyle;rounded=0;orthogonalLoop=1;jettySize=auto;html=1;exitX=0;exitY=0.5;exitDx=0;exitDy=0;entryX=0.5;entryY=0;entryDx=0;entryDy=0;" edge="1" parent="1" source="3vqmChRI_nULsQmvLEs1-271" target="3vqmChRI_nULsQmvLEs1-276">
          <mxGeometry relative="1" as="geometry" />
        </mxCell>
        <mxCell id="3vqmChRI_nULsQmvLEs1-271" value="100" style="rounded=0;whiteSpace=wrap;html=1;" vertex="1" parent="1">
          <mxGeometry x="-353.63" y="6480" width="90" height="60" as="geometry" />
        </mxCell>
        <mxCell id="3vqmChRI_nULsQmvLEs1-272" value="120" style="rounded=0;whiteSpace=wrap;html=1;" vertex="1" parent="1">
          <mxGeometry x="-133.63" y="6656" width="90" height="60" as="geometry" />
        </mxCell>
        <mxCell id="3vqmChRI_nULsQmvLEs1-273" style="edgeStyle=orthogonalEdgeStyle;rounded=0;orthogonalLoop=1;jettySize=auto;html=1;exitX=1;exitY=0.5;exitDx=0;exitDy=0;entryX=0.5;entryY=0;entryDx=0;entryDy=0;" edge="1" parent="1" source="3vqmChRI_nULsQmvLEs1-275" target="3vqmChRI_nULsQmvLEs1-272">
          <mxGeometry relative="1" as="geometry" />
        </mxCell>
        <mxCell id="3vqmChRI_nULsQmvLEs1-274" style="edgeStyle=orthogonalEdgeStyle;rounded=0;orthogonalLoop=1;jettySize=auto;html=1;exitX=0;exitY=0.5;exitDx=0;exitDy=0;" edge="1" parent="1" source="3vqmChRI_nULsQmvLEs1-275" target="3vqmChRI_nULsQmvLEs1-279">
          <mxGeometry relative="1" as="geometry">
            <mxPoint x="-265.7" y="6680" as="targetPoint" />
          </mxGeometry>
        </mxCell>
        <mxCell id="3vqmChRI_nULsQmvLEs1-275" value="110" style="rounded=0;whiteSpace=wrap;html=1;" vertex="1" parent="1">
          <mxGeometry x="-233.63" y="6576" width="90" height="60" as="geometry" />
        </mxCell>
        <mxCell id="3vqmChRI_nULsQmvLEs1-281" style="edgeStyle=orthogonalEdgeStyle;rounded=0;orthogonalLoop=1;jettySize=auto;html=1;exitX=0;exitY=0.5;exitDx=0;exitDy=0;" edge="1" parent="1" source="3vqmChRI_nULsQmvLEs1-276" target="3vqmChRI_nULsQmvLEs1-282">
          <mxGeometry relative="1" as="geometry">
            <mxPoint x="-530" y="6690" as="targetPoint" />
          </mxGeometry>
        </mxCell>
        <mxCell id="3vqmChRI_nULsQmvLEs1-276" value="90" style="rounded=0;whiteSpace=wrap;html=1;" vertex="1" parent="1">
          <mxGeometry x="-473.63" y="6566" width="90" height="60" as="geometry" />
        </mxCell>
        <mxCell id="3vqmChRI_nULsQmvLEs1-277" value="k)" style="text;html=1;align=center;verticalAlign=middle;resizable=0;points=[];autosize=1;strokeColor=none;fillColor=none;" vertex="1" parent="1">
          <mxGeometry x="-637.76" y="6530" width="30" height="30" as="geometry" />
        </mxCell>
        <mxCell id="3vqmChRI_nULsQmvLEs1-278" style="edgeStyle=orthogonalEdgeStyle;rounded=0;orthogonalLoop=1;jettySize=auto;html=1;exitX=1;exitY=0.5;exitDx=0;exitDy=0;" edge="1" parent="1" source="3vqmChRI_nULsQmvLEs1-279" target="3vqmChRI_nULsQmvLEs1-280">
          <mxGeometry relative="1" as="geometry">
            <mxPoint x="-200" y="6780" as="targetPoint" />
          </mxGeometry>
        </mxCell>
        <mxCell id="3vqmChRI_nULsQmvLEs1-283" style="edgeStyle=orthogonalEdgeStyle;rounded=0;orthogonalLoop=1;jettySize=auto;html=1;exitX=0;exitY=0.5;exitDx=0;exitDy=0;" edge="1" parent="1" source="3vqmChRI_nULsQmvLEs1-279" target="3vqmChRI_nULsQmvLEs1-284">
          <mxGeometry relative="1" as="geometry">
            <mxPoint x="-370" y="6770" as="targetPoint" />
          </mxGeometry>
        </mxCell>
        <mxCell id="3vqmChRI_nULsQmvLEs1-279" value="105" style="rounded=0;whiteSpace=wrap;html=1;" vertex="1" parent="1">
          <mxGeometry x="-315.7" y="6656" width="80" height="60" as="geometry" />
        </mxCell>
        <mxCell id="3vqmChRI_nULsQmvLEs1-280" value="106" style="rounded=0;whiteSpace=wrap;html=1;" vertex="1" parent="1">
          <mxGeometry x="-236.13" y="6750" width="90" height="60" as="geometry" />
        </mxCell>
        <mxCell id="3vqmChRI_nULsQmvLEs1-282" value="80" style="rounded=0;whiteSpace=wrap;html=1;" vertex="1" parent="1">
          <mxGeometry x="-590" y="6660" width="90" height="60" as="geometry" />
        </mxCell>
        <mxCell id="3vqmChRI_nULsQmvLEs1-284" value="104" style="rounded=0;whiteSpace=wrap;html=1;" vertex="1" parent="1">
          <mxGeometry x="-410" y="6740" width="100" height="60" as="geometry" />
        </mxCell>
        <mxCell id="3vqmChRI_nULsQmvLEs1-285" style="edgeStyle=orthogonalEdgeStyle;rounded=0;orthogonalLoop=1;jettySize=auto;html=1;exitX=1;exitY=0.5;exitDx=0;exitDy=0;" edge="1" parent="1" source="3vqmChRI_nULsQmvLEs1-287" target="3vqmChRI_nULsQmvLEs1-291">
          <mxGeometry relative="1" as="geometry" />
        </mxCell>
        <mxCell id="3vqmChRI_nULsQmvLEs1-286" style="edgeStyle=orthogonalEdgeStyle;rounded=0;orthogonalLoop=1;jettySize=auto;html=1;exitX=0;exitY=0.5;exitDx=0;exitDy=0;entryX=0.5;entryY=0;entryDx=0;entryDy=0;" edge="1" parent="1" source="3vqmChRI_nULsQmvLEs1-287" target="3vqmChRI_nULsQmvLEs1-293">
          <mxGeometry relative="1" as="geometry" />
        </mxCell>
        <mxCell id="3vqmChRI_nULsQmvLEs1-287" value="100" style="rounded=0;whiteSpace=wrap;html=1;" vertex="1" parent="1">
          <mxGeometry x="-365.87" y="6910" width="90" height="60" as="geometry" />
        </mxCell>
        <mxCell id="3vqmChRI_nULsQmvLEs1-288" value="120" style="rounded=0;whiteSpace=wrap;html=1;" vertex="1" parent="1">
          <mxGeometry x="-145.87" y="7086" width="90" height="60" as="geometry" />
        </mxCell>
        <mxCell id="3vqmChRI_nULsQmvLEs1-289" style="edgeStyle=orthogonalEdgeStyle;rounded=0;orthogonalLoop=1;jettySize=auto;html=1;exitX=1;exitY=0.5;exitDx=0;exitDy=0;entryX=0.5;entryY=0;entryDx=0;entryDy=0;" edge="1" parent="1" source="3vqmChRI_nULsQmvLEs1-291" target="3vqmChRI_nULsQmvLEs1-288">
          <mxGeometry relative="1" as="geometry" />
        </mxCell>
        <mxCell id="3vqmChRI_nULsQmvLEs1-290" style="edgeStyle=orthogonalEdgeStyle;rounded=0;orthogonalLoop=1;jettySize=auto;html=1;exitX=0;exitY=0.5;exitDx=0;exitDy=0;" edge="1" parent="1" source="3vqmChRI_nULsQmvLEs1-291" target="3vqmChRI_nULsQmvLEs1-297">
          <mxGeometry relative="1" as="geometry">
            <mxPoint x="-277.94" y="7110" as="targetPoint" />
          </mxGeometry>
        </mxCell>
        <mxCell id="3vqmChRI_nULsQmvLEs1-291" value="110" style="rounded=0;whiteSpace=wrap;html=1;" vertex="1" parent="1">
          <mxGeometry x="-245.87" y="7006" width="90" height="60" as="geometry" />
        </mxCell>
        <mxCell id="3vqmChRI_nULsQmvLEs1-293" value="90" style="rounded=0;whiteSpace=wrap;html=1;" vertex="1" parent="1">
          <mxGeometry x="-485.87" y="6996" width="90" height="60" as="geometry" />
        </mxCell>
        <mxCell id="3vqmChRI_nULsQmvLEs1-294" value="k)" style="text;html=1;align=center;verticalAlign=middle;resizable=0;points=[];autosize=1;strokeColor=none;fillColor=none;" vertex="1" parent="1">
          <mxGeometry x="-650" y="6960" width="30" height="30" as="geometry" />
        </mxCell>
        <mxCell id="3vqmChRI_nULsQmvLEs1-295" style="edgeStyle=orthogonalEdgeStyle;rounded=0;orthogonalLoop=1;jettySize=auto;html=1;exitX=1;exitY=0.5;exitDx=0;exitDy=0;" edge="1" parent="1" source="3vqmChRI_nULsQmvLEs1-297" target="3vqmChRI_nULsQmvLEs1-298">
          <mxGeometry relative="1" as="geometry">
            <mxPoint x="-212.24" y="7210" as="targetPoint" />
          </mxGeometry>
        </mxCell>
        <mxCell id="3vqmChRI_nULsQmvLEs1-296" style="edgeStyle=orthogonalEdgeStyle;rounded=0;orthogonalLoop=1;jettySize=auto;html=1;exitX=0;exitY=0.5;exitDx=0;exitDy=0;" edge="1" parent="1" source="3vqmChRI_nULsQmvLEs1-297" target="3vqmChRI_nULsQmvLEs1-300">
          <mxGeometry relative="1" as="geometry">
            <mxPoint x="-382.24" y="7200" as="targetPoint" />
          </mxGeometry>
        </mxCell>
        <mxCell id="3vqmChRI_nULsQmvLEs1-297" value="105" style="rounded=0;whiteSpace=wrap;html=1;" vertex="1" parent="1">
          <mxGeometry x="-327.94" y="7086" width="80" height="60" as="geometry" />
        </mxCell>
        <mxCell id="3vqmChRI_nULsQmvLEs1-298" value="106" style="rounded=0;whiteSpace=wrap;html=1;" vertex="1" parent="1">
          <mxGeometry x="-248.37" y="7180" width="90" height="60" as="geometry" />
        </mxCell>
        <mxCell id="3vqmChRI_nULsQmvLEs1-300" value="104" style="rounded=0;whiteSpace=wrap;html=1;" vertex="1" parent="1">
          <mxGeometry x="-422.24" y="7170" width="100" height="60" as="geometry" />
        </mxCell>
        <mxCell id="3vqmChRI_nULsQmvLEs1-301" value="&lt;p style=&quot;margin: 12px 0px; color: rgb(45, 59, 69); font-family: LatoWeb, &amp;quot;Lato Extended&amp;quot;, Lato, &amp;quot;Helvetica Neue&amp;quot;, Helvetica, Arial, sans-serif; font-size: 16px; font-style: normal; font-variant-ligatures: normal; font-variant-caps: normal; font-weight: 400; letter-spacing: normal; orphans: 2; text-align: start; text-indent: 0px; text-transform: none; widows: 2; word-spacing: 0px; -webkit-text-stroke-width: 0px; white-space: normal; background-color: rgb(255, 255, 255); text-decoration-thickness: initial; text-decoration-style: initial; text-decoration-color: initial;&quot;&gt;&lt;strong style=&quot;font-weight: bold;&quot;&gt;&lt;br class=&quot;Apple-interchange-newline&quot;&gt;Exercício 2:&lt;/strong&gt;&lt;/p&gt;&lt;p style=&quot;margin: 12px 0px; color: rgb(45, 59, 69); font-family: LatoWeb, &amp;quot;Lato Extended&amp;quot;, Lato, &amp;quot;Helvetica Neue&amp;quot;, Helvetica, Arial, sans-serif; font-size: 16px; font-style: normal; font-variant-ligatures: normal; font-variant-caps: normal; font-weight: 400; letter-spacing: normal; orphans: 2; text-align: start; text-indent: 0px; text-transform: none; widows: 2; word-spacing: 0px; -webkit-text-stroke-width: 0px; white-space: normal; background-color: rgb(255, 255, 255); text-decoration-thickness: initial; text-decoration-style: initial; text-decoration-color: initial;&quot;&gt;a)&lt;br&gt;Inserção: 100-90-110-120&lt;br&gt;Remover: 120&lt;/p&gt;&lt;p style=&quot;margin: 12px 0px; color: rgb(45, 59, 69); font-family: LatoWeb, &amp;quot;Lato Extended&amp;quot;, Lato, &amp;quot;Helvetica Neue&amp;quot;, Helvetica, Arial, sans-serif; font-size: 16px; font-style: normal; font-variant-ligatures: normal; font-variant-caps: normal; font-weight: 400; letter-spacing: normal; orphans: 2; text-align: start; text-indent: 0px; text-transform: none; widows: 2; word-spacing: 0px; -webkit-text-stroke-width: 0px; white-space: normal; background-color: rgb(255, 255, 255); text-decoration-thickness: initial; text-decoration-style: initial; text-decoration-color: initial;&quot;&gt;&lt;br&gt;b)&lt;br&gt;Inserção: 100-90-110-120&lt;br&gt;Remover: 110&lt;/p&gt;&lt;p style=&quot;margin: 12px 0px; color: rgb(45, 59, 69); font-family: LatoWeb, &amp;quot;Lato Extended&amp;quot;, Lato, &amp;quot;Helvetica Neue&amp;quot;, Helvetica, Arial, sans-serif; font-size: 16px; font-style: normal; font-variant-ligatures: normal; font-variant-caps: normal; font-weight: 400; letter-spacing: normal; orphans: 2; text-align: start; text-indent: 0px; text-transform: none; widows: 2; word-spacing: 0px; -webkit-text-stroke-width: 0px; white-space: normal; background-color: rgb(255, 255, 255); text-decoration-thickness: initial; text-decoration-style: initial; text-decoration-color: initial;&quot;&gt;&lt;br&gt;c)&lt;br&gt;Inserção: 100-90-110-105-120&lt;br&gt;Remover: 120&lt;/p&gt;&lt;p style=&quot;margin: 12px 0px; color: rgb(45, 59, 69); font-family: LatoWeb, &amp;quot;Lato Extended&amp;quot;, Lato, &amp;quot;Helvetica Neue&amp;quot;, Helvetica, Arial, sans-serif; font-size: 16px; font-style: normal; font-variant-ligatures: normal; font-variant-caps: normal; font-weight: 400; letter-spacing: normal; orphans: 2; text-align: start; text-indent: 0px; text-transform: none; widows: 2; word-spacing: 0px; -webkit-text-stroke-width: 0px; white-space: normal; background-color: rgb(255, 255, 255); text-decoration-thickness: initial; text-decoration-style: initial; text-decoration-color: initial;&quot;&gt;&lt;br&gt;d)&lt;br&gt;Inserção: 100-90-110-105-120&lt;br&gt;Remover: 110&lt;/p&gt;&lt;p style=&quot;margin: 12px 0px; color: rgb(45, 59, 69); font-family: LatoWeb, &amp;quot;Lato Extended&amp;quot;, Lato, &amp;quot;Helvetica Neue&amp;quot;, Helvetica, Arial, sans-serif; font-size: 16px; font-style: normal; font-variant-ligatures: normal; font-variant-caps: normal; font-weight: 400; letter-spacing: normal; orphans: 2; text-align: start; text-indent: 0px; text-transform: none; widows: 2; word-spacing: 0px; -webkit-text-stroke-width: 0px; white-space: normal; background-color: rgb(255, 255, 255); text-decoration-thickness: initial; text-decoration-style: initial; text-decoration-color: initial;&quot;&gt;&lt;br&gt;e)&lt;br&gt;Inserção: 100-90-110-80-105-120-104&lt;br&gt;Remover: 110&lt;/p&gt;&lt;p style=&quot;margin: 12px 0px; color: rgb(45, 59, 69); font-family: LatoWeb, &amp;quot;Lato Extended&amp;quot;, Lato, &amp;quot;Helvetica Neue&amp;quot;, Helvetica, Arial, sans-serif; font-size: 16px; font-style: normal; font-variant-ligatures: normal; font-variant-caps: normal; font-weight: 400; letter-spacing: normal; orphans: 2; text-align: start; text-indent: 0px; text-transform: none; widows: 2; word-spacing: 0px; -webkit-text-stroke-width: 0px; white-space: normal; background-color: rgb(255, 255, 255); text-decoration-thickness: initial; text-decoration-style: initial; text-decoration-color: initial;&quot;&gt;&lt;br&gt;f)&lt;br&gt;Inserção: 100-90-110-80-105-120-104&lt;br&gt;Remover: 120&lt;/p&gt;&lt;p style=&quot;margin: 12px 0px; color: rgb(45, 59, 69); font-family: LatoWeb, &amp;quot;Lato Extended&amp;quot;, Lato, &amp;quot;Helvetica Neue&amp;quot;, Helvetica, Arial, sans-serif; font-size: 16px; font-style: normal; font-variant-ligatures: normal; font-variant-caps: normal; font-weight: 400; letter-spacing: normal; orphans: 2; text-align: start; text-indent: 0px; text-transform: none; widows: 2; word-spacing: 0px; -webkit-text-stroke-width: 0px; white-space: normal; background-color: rgb(255, 255, 255); text-decoration-thickness: initial; text-decoration-style: initial; text-decoration-color: initial;&quot;&gt;g)&lt;br&gt;Inserção: 100-90-110-80-105-120-130&lt;br&gt;Remover: 110&lt;/p&gt;&lt;p style=&quot;margin: 12px 0px; color: rgb(45, 59, 69); font-family: LatoWeb, &amp;quot;Lato Extended&amp;quot;, Lato, &amp;quot;Helvetica Neue&amp;quot;, Helvetica, Arial, sans-serif; font-size: 16px; font-style: normal; font-variant-ligatures: normal; font-variant-caps: normal; font-weight: 400; letter-spacing: normal; orphans: 2; text-align: start; text-indent: 0px; text-transform: none; widows: 2; word-spacing: 0px; -webkit-text-stroke-width: 0px; white-space: normal; background-color: rgb(255, 255, 255); text-decoration-thickness: initial; text-decoration-style: initial; text-decoration-color: initial;&quot;&gt;&lt;br&gt;h)&lt;br&gt;Inserção: 100-90-110-80-105-120-104-106&lt;br&gt;Remover: 120&lt;/p&gt;&lt;p style=&quot;margin: 12px 0px; color: rgb(45, 59, 69); font-family: LatoWeb, &amp;quot;Lato Extended&amp;quot;, Lato, &amp;quot;Helvetica Neue&amp;quot;, Helvetica, Arial, sans-serif; font-size: 16px; font-style: normal; font-variant-ligatures: normal; font-variant-caps: normal; font-weight: 400; letter-spacing: normal; orphans: 2; text-align: start; text-indent: 0px; text-transform: none; widows: 2; word-spacing: 0px; -webkit-text-stroke-width: 0px; white-space: normal; background-color: rgb(255, 255, 255); text-decoration-thickness: initial; text-decoration-style: initial; text-decoration-color: initial;&quot;&gt;&lt;br&gt;i)&lt;br&gt;Inserção: 100-90-110-80-95-120-97&lt;br&gt;Remover: 120&lt;/p&gt;&lt;p style=&quot;margin: 12px 0px; color: rgb(45, 59, 69); font-family: LatoWeb, &amp;quot;Lato Extended&amp;quot;, Lato, &amp;quot;Helvetica Neue&amp;quot;, Helvetica, Arial, sans-serif; font-size: 16px; font-style: normal; font-variant-ligatures: normal; font-variant-caps: normal; font-weight: 400; letter-spacing: normal; orphans: 2; text-align: start; text-indent: 0px; text-transform: none; widows: 2; word-spacing: 0px; -webkit-text-stroke-width: 0px; white-space: normal; background-color: rgb(255, 255, 255); text-decoration-thickness: initial; text-decoration-style: initial; text-decoration-color: initial;&quot;&gt;&lt;br&gt;j)&lt;br&gt;Inserção: 100-90-110-80-95-120-94&lt;br&gt;Remover: 120&lt;/p&gt;&lt;p style=&quot;margin: 12px 0px; color: rgb(45, 59, 69); font-family: LatoWeb, &amp;quot;Lato Extended&amp;quot;, Lato, &amp;quot;Helvetica Neue&amp;quot;, Helvetica, Arial, sans-serif; font-size: 16px; font-style: normal; font-variant-ligatures: normal; font-variant-caps: normal; font-weight: 400; letter-spacing: normal; orphans: 2; text-align: start; text-indent: 0px; text-transform: none; widows: 2; word-spacing: 0px; -webkit-text-stroke-width: 0px; white-space: normal; background-color: rgb(255, 255, 255); text-decoration-thickness: initial; text-decoration-style: initial; text-decoration-color: initial;&quot;&gt;&lt;br&gt;k)&lt;br&gt;Inserção: 100-90-110-80-95-120-94-96&lt;br&gt;Remover: 120&lt;/p&gt;" style="text;whiteSpace=wrap;html=1;" vertex="1" parent="1">
          <mxGeometry x="-848.88" y="7360" width="330" height="1020" as="geometry" />
        </mxCell>
        <mxCell id="3vqmChRI_nULsQmvLEs1-302" value="a)" style="text;html=1;align=center;verticalAlign=middle;resizable=0;points=[];autosize=1;strokeColor=none;fillColor=none;" vertex="1" parent="1">
          <mxGeometry x="-1005" y="8448" width="30" height="30" as="geometry" />
        </mxCell>
        <mxCell id="3vqmChRI_nULsQmvLEs1-307" style="edgeStyle=orthogonalEdgeStyle;rounded=0;orthogonalLoop=1;jettySize=auto;html=1;exitX=0;exitY=0.5;exitDx=0;exitDy=0;entryX=0.5;entryY=0;entryDx=0;entryDy=0;" edge="1" parent="1" source="3vqmChRI_nULsQmvLEs1-303" target="3vqmChRI_nULsQmvLEs1-306">
          <mxGeometry relative="1" as="geometry" />
        </mxCell>
        <mxCell id="3vqmChRI_nULsQmvLEs1-308" style="edgeStyle=orthogonalEdgeStyle;rounded=0;orthogonalLoop=1;jettySize=auto;html=1;exitX=1;exitY=0.5;exitDx=0;exitDy=0;entryX=0.5;entryY=0;entryDx=0;entryDy=0;" edge="1" parent="1" source="3vqmChRI_nULsQmvLEs1-303" target="3vqmChRI_nULsQmvLEs1-305">
          <mxGeometry relative="1" as="geometry" />
        </mxCell>
        <mxCell id="3vqmChRI_nULsQmvLEs1-303" value="100" style="whiteSpace=wrap;html=1;" vertex="1" parent="1">
          <mxGeometry x="-870" y="8420" width="120" height="60" as="geometry" />
        </mxCell>
        <mxCell id="3vqmChRI_nULsQmvLEs1-305" value="110" style="whiteSpace=wrap;html=1;" vertex="1" parent="1">
          <mxGeometry x="-727.76" y="8520" width="120" height="60" as="geometry" />
        </mxCell>
        <mxCell id="3vqmChRI_nULsQmvLEs1-306" value="90" style="whiteSpace=wrap;html=1;" vertex="1" parent="1">
          <mxGeometry x="-1005" y="8520" width="120" height="60" as="geometry" />
        </mxCell>
        <mxCell id="3vqmChRI_nULsQmvLEs1-309" value="b)" style="text;html=1;align=center;verticalAlign=middle;resizable=0;points=[];autosize=1;strokeColor=none;fillColor=none;" vertex="1" parent="1">
          <mxGeometry x="-1055" y="8718" width="30" height="30" as="geometry" />
        </mxCell>
        <mxCell id="3vqmChRI_nULsQmvLEs1-310" style="edgeStyle=orthogonalEdgeStyle;rounded=0;orthogonalLoop=1;jettySize=auto;html=1;exitX=0;exitY=0.5;exitDx=0;exitDy=0;entryX=0.5;entryY=0;entryDx=0;entryDy=0;" edge="1" parent="1" source="3vqmChRI_nULsQmvLEs1-312" target="3vqmChRI_nULsQmvLEs1-314">
          <mxGeometry relative="1" as="geometry" />
        </mxCell>
        <mxCell id="3vqmChRI_nULsQmvLEs1-311" style="edgeStyle=orthogonalEdgeStyle;rounded=0;orthogonalLoop=1;jettySize=auto;html=1;exitX=1;exitY=0.5;exitDx=0;exitDy=0;entryX=0.5;entryY=0;entryDx=0;entryDy=0;" edge="1" parent="1" source="3vqmChRI_nULsQmvLEs1-312" target="3vqmChRI_nULsQmvLEs1-313">
          <mxGeometry relative="1" as="geometry" />
        </mxCell>
        <mxCell id="3vqmChRI_nULsQmvLEs1-312" value="100" style="whiteSpace=wrap;html=1;" vertex="1" parent="1">
          <mxGeometry x="-890" y="8660" width="120" height="60" as="geometry" />
        </mxCell>
        <mxCell id="3vqmChRI_nULsQmvLEs1-315" style="edgeStyle=orthogonalEdgeStyle;rounded=0;orthogonalLoop=1;jettySize=auto;html=1;exitX=1;exitY=0.5;exitDx=0;exitDy=0;" edge="1" parent="1" source="3vqmChRI_nULsQmvLEs1-313">
          <mxGeometry relative="1" as="geometry">
            <mxPoint x="-550" y="8850" as="targetPoint" />
          </mxGeometry>
        </mxCell>
        <mxCell id="3vqmChRI_nULsQmvLEs1-313" value="110" style="whiteSpace=wrap;html=1;" vertex="1" parent="1">
          <mxGeometry x="-747.76" y="8760" width="120" height="60" as="geometry" />
        </mxCell>
        <mxCell id="3vqmChRI_nULsQmvLEs1-314" value="90" style="whiteSpace=wrap;html=1;" vertex="1" parent="1">
          <mxGeometry x="-1025" y="8760" width="120" height="60" as="geometry" />
        </mxCell>
        <mxCell id="3vqmChRI_nULsQmvLEs1-316" value="120" style="whiteSpace=wrap;html=1;" vertex="1" parent="1">
          <mxGeometry x="-607.76" y="8850" width="120" height="60" as="geometry" />
        </mxCell>
        <mxCell id="3vqmChRI_nULsQmvLEs1-317" value="b)" style="text;html=1;align=center;verticalAlign=middle;resizable=0;points=[];autosize=1;strokeColor=none;fillColor=none;" vertex="1" parent="1">
          <mxGeometry x="-1075.24" y="8958" width="30" height="30" as="geometry" />
        </mxCell>
        <mxCell id="3vqmChRI_nULsQmvLEs1-318" style="edgeStyle=orthogonalEdgeStyle;rounded=0;orthogonalLoop=1;jettySize=auto;html=1;exitX=0;exitY=0.5;exitDx=0;exitDy=0;entryX=0.5;entryY=0;entryDx=0;entryDy=0;" edge="1" parent="1" source="3vqmChRI_nULsQmvLEs1-320" target="3vqmChRI_nULsQmvLEs1-323">
          <mxGeometry relative="1" as="geometry" />
        </mxCell>
        <mxCell id="3vqmChRI_nULsQmvLEs1-319" style="edgeStyle=orthogonalEdgeStyle;rounded=0;orthogonalLoop=1;jettySize=auto;html=1;exitX=1;exitY=0.5;exitDx=0;exitDy=0;entryX=0.5;entryY=0;entryDx=0;entryDy=0;" edge="1" parent="1" source="3vqmChRI_nULsQmvLEs1-320">
          <mxGeometry relative="1" as="geometry">
            <mxPoint x="-708" y="9000" as="targetPoint" />
          </mxGeometry>
        </mxCell>
        <mxCell id="3vqmChRI_nULsQmvLEs1-320" value="100" style="whiteSpace=wrap;html=1;" vertex="1" parent="1">
          <mxGeometry x="-910.24" y="8900" width="120" height="60" as="geometry" />
        </mxCell>
        <mxCell id="3vqmChRI_nULsQmvLEs1-323" value="90" style="whiteSpace=wrap;html=1;" vertex="1" parent="1">
          <mxGeometry x="-1045.24" y="9000" width="120" height="60" as="geometry" />
        </mxCell>
        <mxCell id="3vqmChRI_nULsQmvLEs1-324" value="120" style="whiteSpace=wrap;html=1;" vertex="1" parent="1">
          <mxGeometry x="-770" y="9000" width="120" height="60" as="geometry" />
        </mxCell>
        <mxCell id="3vqmChRI_nULsQmvLEs1-325" value="c)" style="text;html=1;align=center;verticalAlign=middle;resizable=0;points=[];autosize=1;strokeColor=none;fillColor=none;" vertex="1" parent="1">
          <mxGeometry x="-1113.29" y="9178" width="30" height="30" as="geometry" />
        </mxCell>
        <mxCell id="3vqmChRI_nULsQmvLEs1-326" style="edgeStyle=orthogonalEdgeStyle;rounded=0;orthogonalLoop=1;jettySize=auto;html=1;exitX=0;exitY=0.5;exitDx=0;exitDy=0;entryX=0.5;entryY=0;entryDx=0;entryDy=0;" edge="1" parent="1" source="3vqmChRI_nULsQmvLEs1-328" target="3vqmChRI_nULsQmvLEs1-331">
          <mxGeometry relative="1" as="geometry" />
        </mxCell>
        <mxCell id="3vqmChRI_nULsQmvLEs1-327" style="edgeStyle=orthogonalEdgeStyle;rounded=0;orthogonalLoop=1;jettySize=auto;html=1;exitX=1;exitY=0.5;exitDx=0;exitDy=0;entryX=0.5;entryY=0;entryDx=0;entryDy=0;" edge="1" parent="1" source="3vqmChRI_nULsQmvLEs1-328" target="3vqmChRI_nULsQmvLEs1-330">
          <mxGeometry relative="1" as="geometry" />
        </mxCell>
        <mxCell id="3vqmChRI_nULsQmvLEs1-328" value="100" style="whiteSpace=wrap;html=1;" vertex="1" parent="1">
          <mxGeometry x="-948.29" y="9120" width="120" height="60" as="geometry" />
        </mxCell>
        <mxCell id="3vqmChRI_nULsQmvLEs1-329" style="edgeStyle=orthogonalEdgeStyle;rounded=0;orthogonalLoop=1;jettySize=auto;html=1;exitX=1;exitY=0.5;exitDx=0;exitDy=0;" edge="1" parent="1" source="3vqmChRI_nULsQmvLEs1-330">
          <mxGeometry relative="1" as="geometry">
            <mxPoint x="-608.29" y="9310" as="targetPoint" />
          </mxGeometry>
        </mxCell>
        <mxCell id="3vqmChRI_nULsQmvLEs1-333" style="edgeStyle=orthogonalEdgeStyle;rounded=0;orthogonalLoop=1;jettySize=auto;html=1;exitX=0;exitY=0.5;exitDx=0;exitDy=0;" edge="1" parent="1" source="3vqmChRI_nULsQmvLEs1-330">
          <mxGeometry relative="1" as="geometry">
            <mxPoint x="-850" y="9300" as="targetPoint" />
          </mxGeometry>
        </mxCell>
        <mxCell id="3vqmChRI_nULsQmvLEs1-330" value="110" style="whiteSpace=wrap;html=1;" vertex="1" parent="1">
          <mxGeometry x="-806.05" y="9220" width="120" height="60" as="geometry" />
        </mxCell>
        <mxCell id="3vqmChRI_nULsQmvLEs1-331" value="90" style="whiteSpace=wrap;html=1;" vertex="1" parent="1">
          <mxGeometry x="-1083.29" y="9220" width="120" height="60" as="geometry" />
        </mxCell>
        <mxCell id="3vqmChRI_nULsQmvLEs1-332" value="120" style="whiteSpace=wrap;html=1;" vertex="1" parent="1">
          <mxGeometry x="-666.38" y="9310" width="120" height="60" as="geometry" />
        </mxCell>
        <mxCell id="3vqmChRI_nULsQmvLEs1-334" value="105" style="whiteSpace=wrap;html=1;" vertex="1" parent="1">
          <mxGeometry x="-910.24" y="9300" width="120" height="60" as="geometry" />
        </mxCell>
        <mxCell id="3vqmChRI_nULsQmvLEs1-335" value="c)" style="text;html=1;align=center;verticalAlign=middle;resizable=0;points=[];autosize=1;strokeColor=none;fillColor=none;" vertex="1" parent="1">
          <mxGeometry x="-1140" y="9468" width="30" height="30" as="geometry" />
        </mxCell>
        <mxCell id="3vqmChRI_nULsQmvLEs1-336" style="edgeStyle=orthogonalEdgeStyle;rounded=0;orthogonalLoop=1;jettySize=auto;html=1;exitX=0;exitY=0.5;exitDx=0;exitDy=0;entryX=0.5;entryY=0;entryDx=0;entryDy=0;" edge="1" parent="1" source="3vqmChRI_nULsQmvLEs1-338" target="3vqmChRI_nULsQmvLEs1-342">
          <mxGeometry relative="1" as="geometry" />
        </mxCell>
        <mxCell id="3vqmChRI_nULsQmvLEs1-337" style="edgeStyle=orthogonalEdgeStyle;rounded=0;orthogonalLoop=1;jettySize=auto;html=1;exitX=1;exitY=0.5;exitDx=0;exitDy=0;entryX=0.5;entryY=0;entryDx=0;entryDy=0;" edge="1" parent="1" source="3vqmChRI_nULsQmvLEs1-338" target="3vqmChRI_nULsQmvLEs1-341">
          <mxGeometry relative="1" as="geometry" />
        </mxCell>
        <mxCell id="3vqmChRI_nULsQmvLEs1-338" value="100" style="whiteSpace=wrap;html=1;" vertex="1" parent="1">
          <mxGeometry x="-975" y="9410" width="120" height="60" as="geometry" />
        </mxCell>
        <mxCell id="3vqmChRI_nULsQmvLEs1-340" style="edgeStyle=orthogonalEdgeStyle;rounded=0;orthogonalLoop=1;jettySize=auto;html=1;exitX=0;exitY=0.5;exitDx=0;exitDy=0;" edge="1" parent="1" source="3vqmChRI_nULsQmvLEs1-341">
          <mxGeometry relative="1" as="geometry">
            <mxPoint x="-876.71" y="9590" as="targetPoint" />
          </mxGeometry>
        </mxCell>
        <mxCell id="3vqmChRI_nULsQmvLEs1-341" value="110" style="whiteSpace=wrap;html=1;" vertex="1" parent="1">
          <mxGeometry x="-832.76" y="9510" width="120" height="60" as="geometry" />
        </mxCell>
        <mxCell id="3vqmChRI_nULsQmvLEs1-342" value="90" style="whiteSpace=wrap;html=1;" vertex="1" parent="1">
          <mxGeometry x="-1110" y="9510" width="120" height="60" as="geometry" />
        </mxCell>
        <mxCell id="3vqmChRI_nULsQmvLEs1-344" value="105" style="whiteSpace=wrap;html=1;" vertex="1" parent="1">
          <mxGeometry x="-936.95" y="9590" width="120" height="60" as="geometry" />
        </mxCell>
        <mxCell id="3vqmChRI_nULsQmvLEs1-345" value="d)" style="text;html=1;align=center;verticalAlign=middle;resizable=0;points=[];autosize=1;strokeColor=none;fillColor=none;" vertex="1" parent="1">
          <mxGeometry x="-1113.29" y="9768" width="30" height="30" as="geometry" />
        </mxCell>
        <mxCell id="3vqmChRI_nULsQmvLEs1-346" style="edgeStyle=orthogonalEdgeStyle;rounded=0;orthogonalLoop=1;jettySize=auto;html=1;exitX=0;exitY=0.5;exitDx=0;exitDy=0;entryX=0.5;entryY=0;entryDx=0;entryDy=0;" edge="1" parent="1" source="3vqmChRI_nULsQmvLEs1-348" target="3vqmChRI_nULsQmvLEs1-352">
          <mxGeometry relative="1" as="geometry" />
        </mxCell>
        <mxCell id="3vqmChRI_nULsQmvLEs1-347" style="edgeStyle=orthogonalEdgeStyle;rounded=0;orthogonalLoop=1;jettySize=auto;html=1;exitX=1;exitY=0.5;exitDx=0;exitDy=0;entryX=0.5;entryY=0;entryDx=0;entryDy=0;" edge="1" parent="1" source="3vqmChRI_nULsQmvLEs1-348" target="3vqmChRI_nULsQmvLEs1-351">
          <mxGeometry relative="1" as="geometry" />
        </mxCell>
        <mxCell id="3vqmChRI_nULsQmvLEs1-348" value="100" style="whiteSpace=wrap;html=1;" vertex="1" parent="1">
          <mxGeometry x="-948.29" y="9710" width="120" height="60" as="geometry" />
        </mxCell>
        <mxCell id="3vqmChRI_nULsQmvLEs1-349" style="edgeStyle=orthogonalEdgeStyle;rounded=0;orthogonalLoop=1;jettySize=auto;html=1;exitX=1;exitY=0.5;exitDx=0;exitDy=0;" edge="1" parent="1" source="3vqmChRI_nULsQmvLEs1-351">
          <mxGeometry relative="1" as="geometry">
            <mxPoint x="-608.29" y="9900" as="targetPoint" />
          </mxGeometry>
        </mxCell>
        <mxCell id="3vqmChRI_nULsQmvLEs1-350" style="edgeStyle=orthogonalEdgeStyle;rounded=0;orthogonalLoop=1;jettySize=auto;html=1;exitX=0;exitY=0.5;exitDx=0;exitDy=0;" edge="1" parent="1" source="3vqmChRI_nULsQmvLEs1-351">
          <mxGeometry relative="1" as="geometry">
            <mxPoint x="-850" y="9890" as="targetPoint" />
          </mxGeometry>
        </mxCell>
        <mxCell id="3vqmChRI_nULsQmvLEs1-351" value="110" style="whiteSpace=wrap;html=1;" vertex="1" parent="1">
          <mxGeometry x="-806.05" y="9810" width="120" height="60" as="geometry" />
        </mxCell>
        <mxCell id="3vqmChRI_nULsQmvLEs1-352" value="90" style="whiteSpace=wrap;html=1;" vertex="1" parent="1">
          <mxGeometry x="-1083.29" y="9810" width="120" height="60" as="geometry" />
        </mxCell>
        <mxCell id="3vqmChRI_nULsQmvLEs1-353" value="105" style="whiteSpace=wrap;html=1;" vertex="1" parent="1">
          <mxGeometry x="-910.24" y="9890" width="120" height="60" as="geometry" />
        </mxCell>
        <mxCell id="3vqmChRI_nULsQmvLEs1-354" value="120" style="rounded=0;whiteSpace=wrap;html=1;" vertex="1" parent="1">
          <mxGeometry x="-669.13" y="9900" width="120" height="60" as="geometry" />
        </mxCell>
        <mxCell id="3vqmChRI_nULsQmvLEs1-355" value="d)" style="text;html=1;align=center;verticalAlign=middle;resizable=0;points=[];autosize=1;strokeColor=none;fillColor=none;" vertex="1" parent="1">
          <mxGeometry x="-1140" y="10068" width="30" height="30" as="geometry" />
        </mxCell>
        <mxCell id="3vqmChRI_nULsQmvLEs1-356" style="edgeStyle=orthogonalEdgeStyle;rounded=0;orthogonalLoop=1;jettySize=auto;html=1;exitX=0;exitY=0.5;exitDx=0;exitDy=0;entryX=0.5;entryY=0;entryDx=0;entryDy=0;" edge="1" parent="1" source="3vqmChRI_nULsQmvLEs1-358" target="3vqmChRI_nULsQmvLEs1-362">
          <mxGeometry relative="1" as="geometry" />
        </mxCell>
        <mxCell id="3vqmChRI_nULsQmvLEs1-357" style="edgeStyle=orthogonalEdgeStyle;rounded=0;orthogonalLoop=1;jettySize=auto;html=1;exitX=1;exitY=0.5;exitDx=0;exitDy=0;entryX=0.5;entryY=0;entryDx=0;entryDy=0;" edge="1" parent="1" source="3vqmChRI_nULsQmvLEs1-358" target="3vqmChRI_nULsQmvLEs1-361">
          <mxGeometry relative="1" as="geometry" />
        </mxCell>
        <mxCell id="3vqmChRI_nULsQmvLEs1-358" value="100" style="whiteSpace=wrap;html=1;" vertex="1" parent="1">
          <mxGeometry x="-975" y="10010" width="120" height="60" as="geometry" />
        </mxCell>
        <mxCell id="3vqmChRI_nULsQmvLEs1-360" style="edgeStyle=orthogonalEdgeStyle;rounded=0;orthogonalLoop=1;jettySize=auto;html=1;exitX=0;exitY=0.5;exitDx=0;exitDy=0;" edge="1" parent="1" source="3vqmChRI_nULsQmvLEs1-361">
          <mxGeometry relative="1" as="geometry">
            <mxPoint x="-876.71" y="10190" as="targetPoint" />
          </mxGeometry>
        </mxCell>
        <mxCell id="3vqmChRI_nULsQmvLEs1-361" value="120" style="whiteSpace=wrap;html=1;" vertex="1" parent="1">
          <mxGeometry x="-832.76" y="10110" width="120" height="60" as="geometry" />
        </mxCell>
        <mxCell id="3vqmChRI_nULsQmvLEs1-362" value="90" style="whiteSpace=wrap;html=1;" vertex="1" parent="1">
          <mxGeometry x="-1110" y="10110" width="120" height="60" as="geometry" />
        </mxCell>
        <mxCell id="3vqmChRI_nULsQmvLEs1-363" value="105" style="whiteSpace=wrap;html=1;" vertex="1" parent="1">
          <mxGeometry x="-936.95" y="10190" width="120" height="60" as="geometry" />
        </mxCell>
        <mxCell id="3vqmChRI_nULsQmvLEs1-365" value="e)" style="text;html=1;align=center;verticalAlign=middle;resizable=0;points=[];autosize=1;strokeColor=none;fillColor=none;" vertex="1" parent="1">
          <mxGeometry x="-1145" y="10308" width="30" height="30" as="geometry" />
        </mxCell>
        <mxCell id="3vqmChRI_nULsQmvLEs1-366" style="edgeStyle=orthogonalEdgeStyle;rounded=0;orthogonalLoop=1;jettySize=auto;html=1;exitX=0;exitY=0.5;exitDx=0;exitDy=0;entryX=0.5;entryY=0;entryDx=0;entryDy=0;" edge="1" parent="1" source="3vqmChRI_nULsQmvLEs1-368" target="3vqmChRI_nULsQmvLEs1-372">
          <mxGeometry relative="1" as="geometry" />
        </mxCell>
        <mxCell id="3vqmChRI_nULsQmvLEs1-367" style="edgeStyle=orthogonalEdgeStyle;rounded=0;orthogonalLoop=1;jettySize=auto;html=1;exitX=1;exitY=0.5;exitDx=0;exitDy=0;entryX=0.5;entryY=0;entryDx=0;entryDy=0;" edge="1" parent="1" source="3vqmChRI_nULsQmvLEs1-368" target="3vqmChRI_nULsQmvLEs1-371">
          <mxGeometry relative="1" as="geometry" />
        </mxCell>
        <mxCell id="3vqmChRI_nULsQmvLEs1-368" value="100" style="whiteSpace=wrap;html=1;" vertex="1" parent="1">
          <mxGeometry x="-989.16" y="10280" width="120" height="60" as="geometry" />
        </mxCell>
        <mxCell id="3vqmChRI_nULsQmvLEs1-369" style="edgeStyle=orthogonalEdgeStyle;rounded=0;orthogonalLoop=1;jettySize=auto;html=1;exitX=1;exitY=0.5;exitDx=0;exitDy=0;" edge="1" parent="1" source="3vqmChRI_nULsQmvLEs1-371">
          <mxGeometry relative="1" as="geometry">
            <mxPoint x="-649.16" y="10470" as="targetPoint" />
          </mxGeometry>
        </mxCell>
        <mxCell id="3vqmChRI_nULsQmvLEs1-370" style="edgeStyle=orthogonalEdgeStyle;rounded=0;orthogonalLoop=1;jettySize=auto;html=1;exitX=0;exitY=0.5;exitDx=0;exitDy=0;" edge="1" parent="1" source="3vqmChRI_nULsQmvLEs1-371">
          <mxGeometry relative="1" as="geometry">
            <mxPoint x="-890.87" y="10460" as="targetPoint" />
          </mxGeometry>
        </mxCell>
        <mxCell id="3vqmChRI_nULsQmvLEs1-371" value="110" style="whiteSpace=wrap;html=1;" vertex="1" parent="1">
          <mxGeometry x="-846.92" y="10380" width="120" height="60" as="geometry" />
        </mxCell>
        <mxCell id="3vqmChRI_nULsQmvLEs1-375" style="edgeStyle=orthogonalEdgeStyle;rounded=0;orthogonalLoop=1;jettySize=auto;html=1;exitX=0;exitY=0.5;exitDx=0;exitDy=0;" edge="1" parent="1" source="3vqmChRI_nULsQmvLEs1-372" target="3vqmChRI_nULsQmvLEs1-376">
          <mxGeometry relative="1" as="geometry">
            <mxPoint x="-1180" y="10470" as="targetPoint" />
          </mxGeometry>
        </mxCell>
        <mxCell id="3vqmChRI_nULsQmvLEs1-372" value="90" style="whiteSpace=wrap;html=1;" vertex="1" parent="1">
          <mxGeometry x="-1124.1599999999999" y="10380" width="120" height="60" as="geometry" />
        </mxCell>
        <mxCell id="3vqmChRI_nULsQmvLEs1-377" style="edgeStyle=orthogonalEdgeStyle;rounded=0;orthogonalLoop=1;jettySize=auto;html=1;exitX=0;exitY=0.5;exitDx=0;exitDy=0;" edge="1" parent="1" source="3vqmChRI_nULsQmvLEs1-373" target="3vqmChRI_nULsQmvLEs1-378">
          <mxGeometry relative="1" as="geometry">
            <mxPoint x="-960" y="10550" as="targetPoint" />
          </mxGeometry>
        </mxCell>
        <mxCell id="3vqmChRI_nULsQmvLEs1-373" value="105" style="whiteSpace=wrap;html=1;" vertex="1" parent="1">
          <mxGeometry x="-920" y="10460" width="88.89" height="60" as="geometry" />
        </mxCell>
        <mxCell id="3vqmChRI_nULsQmvLEs1-374" value="120" style="rounded=0;whiteSpace=wrap;html=1;" vertex="1" parent="1">
          <mxGeometry x="-710" y="10470" width="120" height="60" as="geometry" />
        </mxCell>
        <mxCell id="3vqmChRI_nULsQmvLEs1-376" value="80" style="rounded=0;whiteSpace=wrap;html=1;" vertex="1" parent="1">
          <mxGeometry x="-1240" y="10461" width="120" height="60" as="geometry" />
        </mxCell>
        <mxCell id="3vqmChRI_nULsQmvLEs1-378" value="104" style="rounded=0;whiteSpace=wrap;html=1;" vertex="1" parent="1">
          <mxGeometry x="-1015.24" y="10530" width="90" height="60" as="geometry" />
        </mxCell>
        <mxCell id="3vqmChRI_nULsQmvLEs1-379" value="e)" style="text;html=1;align=center;verticalAlign=middle;resizable=0;points=[];autosize=1;strokeColor=none;fillColor=none;" vertex="1" parent="1">
          <mxGeometry x="-1157.06" y="10668" width="30" height="30" as="geometry" />
        </mxCell>
        <mxCell id="3vqmChRI_nULsQmvLEs1-380" style="edgeStyle=orthogonalEdgeStyle;rounded=0;orthogonalLoop=1;jettySize=auto;html=1;exitX=0;exitY=0.5;exitDx=0;exitDy=0;entryX=0.5;entryY=0;entryDx=0;entryDy=0;" edge="1" parent="1" source="3vqmChRI_nULsQmvLEs1-382" target="3vqmChRI_nULsQmvLEs1-387">
          <mxGeometry relative="1" as="geometry" />
        </mxCell>
        <mxCell id="3vqmChRI_nULsQmvLEs1-381" style="edgeStyle=orthogonalEdgeStyle;rounded=0;orthogonalLoop=1;jettySize=auto;html=1;exitX=1;exitY=0.5;exitDx=0;exitDy=0;entryX=0.5;entryY=0;entryDx=0;entryDy=0;" edge="1" parent="1" source="3vqmChRI_nULsQmvLEs1-382" target="3vqmChRI_nULsQmvLEs1-385">
          <mxGeometry relative="1" as="geometry" />
        </mxCell>
        <mxCell id="3vqmChRI_nULsQmvLEs1-382" value="100" style="whiteSpace=wrap;html=1;" vertex="1" parent="1">
          <mxGeometry x="-1001.2199999999999" y="10640" width="120" height="60" as="geometry" />
        </mxCell>
        <mxCell id="3vqmChRI_nULsQmvLEs1-384" style="edgeStyle=orthogonalEdgeStyle;rounded=0;orthogonalLoop=1;jettySize=auto;html=1;exitX=0;exitY=0.5;exitDx=0;exitDy=0;" edge="1" parent="1" source="3vqmChRI_nULsQmvLEs1-385">
          <mxGeometry relative="1" as="geometry">
            <mxPoint x="-902.93" y="10820" as="targetPoint" />
          </mxGeometry>
        </mxCell>
        <mxCell id="3vqmChRI_nULsQmvLEs1-385" value="120" style="whiteSpace=wrap;html=1;" vertex="1" parent="1">
          <mxGeometry x="-858.9799999999999" y="10740" width="120" height="60" as="geometry" />
        </mxCell>
        <mxCell id="3vqmChRI_nULsQmvLEs1-386" style="edgeStyle=orthogonalEdgeStyle;rounded=0;orthogonalLoop=1;jettySize=auto;html=1;exitX=0;exitY=0.5;exitDx=0;exitDy=0;" edge="1" parent="1" source="3vqmChRI_nULsQmvLEs1-387" target="3vqmChRI_nULsQmvLEs1-391">
          <mxGeometry relative="1" as="geometry">
            <mxPoint x="-1192.06" y="10830" as="targetPoint" />
          </mxGeometry>
        </mxCell>
        <mxCell id="3vqmChRI_nULsQmvLEs1-387" value="90" style="whiteSpace=wrap;html=1;" vertex="1" parent="1">
          <mxGeometry x="-1136.2199999999998" y="10740" width="120" height="60" as="geometry" />
        </mxCell>
        <mxCell id="3vqmChRI_nULsQmvLEs1-388" style="edgeStyle=orthogonalEdgeStyle;rounded=0;orthogonalLoop=1;jettySize=auto;html=1;exitX=0;exitY=0.5;exitDx=0;exitDy=0;" edge="1" parent="1" source="3vqmChRI_nULsQmvLEs1-389" target="3vqmChRI_nULsQmvLEs1-392">
          <mxGeometry relative="1" as="geometry">
            <mxPoint x="-972.06" y="10910" as="targetPoint" />
          </mxGeometry>
        </mxCell>
        <mxCell id="3vqmChRI_nULsQmvLEs1-389" value="105" style="whiteSpace=wrap;html=1;" vertex="1" parent="1">
          <mxGeometry x="-932.06" y="10820" width="88.89" height="60" as="geometry" />
        </mxCell>
        <mxCell id="3vqmChRI_nULsQmvLEs1-391" value="80" style="rounded=0;whiteSpace=wrap;html=1;" vertex="1" parent="1">
          <mxGeometry x="-1252.06" y="10821" width="120" height="60" as="geometry" />
        </mxCell>
        <mxCell id="3vqmChRI_nULsQmvLEs1-392" value="104" style="rounded=0;whiteSpace=wrap;html=1;" vertex="1" parent="1">
          <mxGeometry x="-1027.3" y="10890" width="90" height="60" as="geometry" />
        </mxCell>
        <mxCell id="3vqmChRI_nULsQmvLEs1-393" value="f)" style="text;html=1;align=center;verticalAlign=middle;resizable=0;points=[];autosize=1;strokeColor=none;fillColor=none;" vertex="1" parent="1">
          <mxGeometry x="-1151.54" y="11058" width="30" height="30" as="geometry" />
        </mxCell>
        <mxCell id="3vqmChRI_nULsQmvLEs1-394" style="edgeStyle=orthogonalEdgeStyle;rounded=0;orthogonalLoop=1;jettySize=auto;html=1;exitX=0;exitY=0.5;exitDx=0;exitDy=0;entryX=0.5;entryY=0;entryDx=0;entryDy=0;" edge="1" parent="1" source="3vqmChRI_nULsQmvLEs1-396" target="3vqmChRI_nULsQmvLEs1-400">
          <mxGeometry relative="1" as="geometry" />
        </mxCell>
        <mxCell id="3vqmChRI_nULsQmvLEs1-395" style="edgeStyle=orthogonalEdgeStyle;rounded=0;orthogonalLoop=1;jettySize=auto;html=1;exitX=1;exitY=0.5;exitDx=0;exitDy=0;entryX=0.5;entryY=0;entryDx=0;entryDy=0;" edge="1" parent="1" source="3vqmChRI_nULsQmvLEs1-396" target="3vqmChRI_nULsQmvLEs1-398">
          <mxGeometry relative="1" as="geometry" />
        </mxCell>
        <mxCell id="3vqmChRI_nULsQmvLEs1-396" value="100" style="whiteSpace=wrap;html=1;" vertex="1" parent="1">
          <mxGeometry x="-995.6999999999999" y="11030" width="120" height="60" as="geometry" />
        </mxCell>
        <mxCell id="3vqmChRI_nULsQmvLEs1-397" style="edgeStyle=orthogonalEdgeStyle;rounded=0;orthogonalLoop=1;jettySize=auto;html=1;exitX=0;exitY=0.5;exitDx=0;exitDy=0;" edge="1" parent="1" source="3vqmChRI_nULsQmvLEs1-398">
          <mxGeometry relative="1" as="geometry">
            <mxPoint x="-897.41" y="11210" as="targetPoint" />
          </mxGeometry>
        </mxCell>
        <mxCell id="3vqmChRI_nULsQmvLEs1-408" style="edgeStyle=orthogonalEdgeStyle;rounded=0;orthogonalLoop=1;jettySize=auto;html=1;exitX=1;exitY=0.5;exitDx=0;exitDy=0;entryX=0.5;entryY=0;entryDx=0;entryDy=0;" edge="1" parent="1" source="3vqmChRI_nULsQmvLEs1-398" target="3vqmChRI_nULsQmvLEs1-407">
          <mxGeometry relative="1" as="geometry" />
        </mxCell>
        <mxCell id="3vqmChRI_nULsQmvLEs1-398" value="110" style="whiteSpace=wrap;html=1;" vertex="1" parent="1">
          <mxGeometry x="-853.4599999999999" y="11130" width="120" height="60" as="geometry" />
        </mxCell>
        <mxCell id="3vqmChRI_nULsQmvLEs1-399" style="edgeStyle=orthogonalEdgeStyle;rounded=0;orthogonalLoop=1;jettySize=auto;html=1;exitX=0;exitY=0.5;exitDx=0;exitDy=0;" edge="1" parent="1" source="3vqmChRI_nULsQmvLEs1-400" target="3vqmChRI_nULsQmvLEs1-403">
          <mxGeometry relative="1" as="geometry">
            <mxPoint x="-1186.54" y="11220" as="targetPoint" />
          </mxGeometry>
        </mxCell>
        <mxCell id="3vqmChRI_nULsQmvLEs1-400" value="90" style="whiteSpace=wrap;html=1;" vertex="1" parent="1">
          <mxGeometry x="-1130.6999999999998" y="11130" width="120" height="60" as="geometry" />
        </mxCell>
        <mxCell id="3vqmChRI_nULsQmvLEs1-401" style="edgeStyle=orthogonalEdgeStyle;rounded=0;orthogonalLoop=1;jettySize=auto;html=1;exitX=0;exitY=0.5;exitDx=0;exitDy=0;" edge="1" parent="1" source="3vqmChRI_nULsQmvLEs1-402" target="3vqmChRI_nULsQmvLEs1-404">
          <mxGeometry relative="1" as="geometry">
            <mxPoint x="-966.54" y="11300" as="targetPoint" />
          </mxGeometry>
        </mxCell>
        <mxCell id="3vqmChRI_nULsQmvLEs1-402" value="105" style="whiteSpace=wrap;html=1;" vertex="1" parent="1">
          <mxGeometry x="-926.54" y="11210" width="88.89" height="60" as="geometry" />
        </mxCell>
        <mxCell id="3vqmChRI_nULsQmvLEs1-403" value="80" style="rounded=0;whiteSpace=wrap;html=1;" vertex="1" parent="1">
          <mxGeometry x="-1246.54" y="11211" width="120" height="60" as="geometry" />
        </mxCell>
        <mxCell id="3vqmChRI_nULsQmvLEs1-404" value="104" style="rounded=0;whiteSpace=wrap;html=1;" vertex="1" parent="1">
          <mxGeometry x="-1021.78" y="11280" width="90" height="60" as="geometry" />
        </mxCell>
        <mxCell id="3vqmChRI_nULsQmvLEs1-407" value="120" style="rounded=0;whiteSpace=wrap;html=1;" vertex="1" parent="1">
          <mxGeometry x="-722" y="11220" width="120" height="60" as="geometry" />
        </mxCell>
        <mxCell id="3vqmChRI_nULsQmvLEs1-409" value="f)" style="text;html=1;align=center;verticalAlign=middle;resizable=0;points=[];autosize=1;strokeColor=none;fillColor=none;" vertex="1" parent="1">
          <mxGeometry x="-1139.29" y="11438" width="30" height="30" as="geometry" />
        </mxCell>
        <mxCell id="3vqmChRI_nULsQmvLEs1-410" style="edgeStyle=orthogonalEdgeStyle;rounded=0;orthogonalLoop=1;jettySize=auto;html=1;exitX=0;exitY=0.5;exitDx=0;exitDy=0;entryX=0.5;entryY=0;entryDx=0;entryDy=0;" edge="1" parent="1" source="3vqmChRI_nULsQmvLEs1-412" target="3vqmChRI_nULsQmvLEs1-417">
          <mxGeometry relative="1" as="geometry" />
        </mxCell>
        <mxCell id="3vqmChRI_nULsQmvLEs1-411" style="edgeStyle=orthogonalEdgeStyle;rounded=0;orthogonalLoop=1;jettySize=auto;html=1;exitX=1;exitY=0.5;exitDx=0;exitDy=0;entryX=0.5;entryY=0;entryDx=0;entryDy=0;" edge="1" parent="1" source="3vqmChRI_nULsQmvLEs1-412" target="3vqmChRI_nULsQmvLEs1-415">
          <mxGeometry relative="1" as="geometry" />
        </mxCell>
        <mxCell id="3vqmChRI_nULsQmvLEs1-412" value="100" style="whiteSpace=wrap;html=1;" vertex="1" parent="1">
          <mxGeometry x="-983.4499999999999" y="11410" width="120" height="60" as="geometry" />
        </mxCell>
        <mxCell id="3vqmChRI_nULsQmvLEs1-413" style="edgeStyle=orthogonalEdgeStyle;rounded=0;orthogonalLoop=1;jettySize=auto;html=1;exitX=0;exitY=0.5;exitDx=0;exitDy=0;" edge="1" parent="1" source="3vqmChRI_nULsQmvLEs1-415">
          <mxGeometry relative="1" as="geometry">
            <mxPoint x="-885.16" y="11590" as="targetPoint" />
          </mxGeometry>
        </mxCell>
        <mxCell id="3vqmChRI_nULsQmvLEs1-415" value="110" style="whiteSpace=wrap;html=1;" vertex="1" parent="1">
          <mxGeometry x="-841.2099999999999" y="11510" width="120" height="60" as="geometry" />
        </mxCell>
        <mxCell id="3vqmChRI_nULsQmvLEs1-416" style="edgeStyle=orthogonalEdgeStyle;rounded=0;orthogonalLoop=1;jettySize=auto;html=1;exitX=0;exitY=0.5;exitDx=0;exitDy=0;" edge="1" parent="1" source="3vqmChRI_nULsQmvLEs1-417" target="3vqmChRI_nULsQmvLEs1-420">
          <mxGeometry relative="1" as="geometry">
            <mxPoint x="-1174.29" y="11600" as="targetPoint" />
          </mxGeometry>
        </mxCell>
        <mxCell id="3vqmChRI_nULsQmvLEs1-417" value="90" style="whiteSpace=wrap;html=1;" vertex="1" parent="1">
          <mxGeometry x="-1118.4499999999998" y="11510" width="120" height="60" as="geometry" />
        </mxCell>
        <mxCell id="3vqmChRI_nULsQmvLEs1-418" style="edgeStyle=orthogonalEdgeStyle;rounded=0;orthogonalLoop=1;jettySize=auto;html=1;exitX=0;exitY=0.5;exitDx=0;exitDy=0;" edge="1" parent="1" source="3vqmChRI_nULsQmvLEs1-419" target="3vqmChRI_nULsQmvLEs1-421">
          <mxGeometry relative="1" as="geometry">
            <mxPoint x="-954.29" y="11680" as="targetPoint" />
          </mxGeometry>
        </mxCell>
        <mxCell id="3vqmChRI_nULsQmvLEs1-419" value="105" style="whiteSpace=wrap;html=1;" vertex="1" parent="1">
          <mxGeometry x="-914.29" y="11590" width="88.89" height="60" as="geometry" />
        </mxCell>
        <mxCell id="3vqmChRI_nULsQmvLEs1-420" value="80" style="rounded=0;whiteSpace=wrap;html=1;" vertex="1" parent="1">
          <mxGeometry x="-1234.29" y="11591" width="120" height="60" as="geometry" />
        </mxCell>
        <mxCell id="3vqmChRI_nULsQmvLEs1-421" value="104" style="rounded=0;whiteSpace=wrap;html=1;" vertex="1" parent="1">
          <mxGeometry x="-1009.53" y="11660" width="90" height="60" as="geometry" />
        </mxCell>
        <mxCell id="3vqmChRI_nULsQmvLEs1-423" value="g)" style="text;html=1;align=center;verticalAlign=middle;resizable=0;points=[];autosize=1;strokeColor=none;fillColor=none;" vertex="1" parent="1">
          <mxGeometry x="-1139.54" y="11818" width="30" height="30" as="geometry" />
        </mxCell>
        <mxCell id="3vqmChRI_nULsQmvLEs1-424" style="edgeStyle=orthogonalEdgeStyle;rounded=0;orthogonalLoop=1;jettySize=auto;html=1;exitX=0;exitY=0.5;exitDx=0;exitDy=0;entryX=0.5;entryY=0;entryDx=0;entryDy=0;" edge="1" parent="1" source="3vqmChRI_nULsQmvLEs1-426" target="3vqmChRI_nULsQmvLEs1-431">
          <mxGeometry relative="1" as="geometry" />
        </mxCell>
        <mxCell id="3vqmChRI_nULsQmvLEs1-425" style="edgeStyle=orthogonalEdgeStyle;rounded=0;orthogonalLoop=1;jettySize=auto;html=1;exitX=1;exitY=0.5;exitDx=0;exitDy=0;entryX=0.5;entryY=0;entryDx=0;entryDy=0;" edge="1" parent="1" source="3vqmChRI_nULsQmvLEs1-426" target="3vqmChRI_nULsQmvLEs1-429">
          <mxGeometry relative="1" as="geometry" />
        </mxCell>
        <mxCell id="3vqmChRI_nULsQmvLEs1-426" value="100" style="whiteSpace=wrap;html=1;" vertex="1" parent="1">
          <mxGeometry x="-983.6999999999999" y="11790" width="120" height="60" as="geometry" />
        </mxCell>
        <mxCell id="3vqmChRI_nULsQmvLEs1-427" style="edgeStyle=orthogonalEdgeStyle;rounded=0;orthogonalLoop=1;jettySize=auto;html=1;exitX=0;exitY=0.5;exitDx=0;exitDy=0;" edge="1" parent="1" source="3vqmChRI_nULsQmvLEs1-429">
          <mxGeometry relative="1" as="geometry">
            <mxPoint x="-885.41" y="11970" as="targetPoint" />
          </mxGeometry>
        </mxCell>
        <mxCell id="3vqmChRI_nULsQmvLEs1-428" style="edgeStyle=orthogonalEdgeStyle;rounded=0;orthogonalLoop=1;jettySize=auto;html=1;exitX=1;exitY=0.5;exitDx=0;exitDy=0;entryX=0.5;entryY=0;entryDx=0;entryDy=0;" edge="1" parent="1" source="3vqmChRI_nULsQmvLEs1-429" target="3vqmChRI_nULsQmvLEs1-436">
          <mxGeometry relative="1" as="geometry" />
        </mxCell>
        <mxCell id="3vqmChRI_nULsQmvLEs1-429" value="110" style="whiteSpace=wrap;html=1;" vertex="1" parent="1">
          <mxGeometry x="-841.4599999999999" y="11890" width="120" height="60" as="geometry" />
        </mxCell>
        <mxCell id="3vqmChRI_nULsQmvLEs1-430" style="edgeStyle=orthogonalEdgeStyle;rounded=0;orthogonalLoop=1;jettySize=auto;html=1;exitX=0;exitY=0.5;exitDx=0;exitDy=0;" edge="1" parent="1" source="3vqmChRI_nULsQmvLEs1-431" target="3vqmChRI_nULsQmvLEs1-434">
          <mxGeometry relative="1" as="geometry">
            <mxPoint x="-1174.54" y="11980" as="targetPoint" />
          </mxGeometry>
        </mxCell>
        <mxCell id="3vqmChRI_nULsQmvLEs1-431" value="90" style="whiteSpace=wrap;html=1;" vertex="1" parent="1">
          <mxGeometry x="-1118.6999999999998" y="11890" width="120" height="60" as="geometry" />
        </mxCell>
        <mxCell id="3vqmChRI_nULsQmvLEs1-433" value="105" style="whiteSpace=wrap;html=1;" vertex="1" parent="1">
          <mxGeometry x="-914.54" y="11970" width="88.89" height="60" as="geometry" />
        </mxCell>
        <mxCell id="3vqmChRI_nULsQmvLEs1-434" value="80" style="rounded=0;whiteSpace=wrap;html=1;" vertex="1" parent="1">
          <mxGeometry x="-1234.54" y="11971" width="120" height="60" as="geometry" />
        </mxCell>
        <mxCell id="3vqmChRI_nULsQmvLEs1-437" style="edgeStyle=orthogonalEdgeStyle;rounded=0;orthogonalLoop=1;jettySize=auto;html=1;exitX=1;exitY=0.5;exitDx=0;exitDy=0;" edge="1" parent="1" source="3vqmChRI_nULsQmvLEs1-436" target="3vqmChRI_nULsQmvLEs1-438">
          <mxGeometry relative="1" as="geometry">
            <mxPoint x="-550" y="12060" as="targetPoint" />
          </mxGeometry>
        </mxCell>
        <mxCell id="3vqmChRI_nULsQmvLEs1-436" value="120" style="rounded=0;whiteSpace=wrap;html=1;" vertex="1" parent="1">
          <mxGeometry x="-710" y="11980" width="120" height="60" as="geometry" />
        </mxCell>
        <mxCell id="3vqmChRI_nULsQmvLEs1-438" value="130" style="rounded=0;whiteSpace=wrap;html=1;" vertex="1" parent="1">
          <mxGeometry x="-591.38" y="12070" width="120" height="60" as="geometry" />
        </mxCell>
        <mxCell id="3vqmChRI_nULsQmvLEs1-439" style="edgeStyle=orthogonalEdgeStyle;rounded=0;orthogonalLoop=1;jettySize=auto;html=1;exitX=0;exitY=0.5;exitDx=0;exitDy=0;entryX=0.5;entryY=0;entryDx=0;entryDy=0;" edge="1" parent="1" source="3vqmChRI_nULsQmvLEs1-441" target="3vqmChRI_nULsQmvLEs1-446">
          <mxGeometry relative="1" as="geometry" />
        </mxCell>
        <mxCell id="3vqmChRI_nULsQmvLEs1-440" style="edgeStyle=orthogonalEdgeStyle;rounded=0;orthogonalLoop=1;jettySize=auto;html=1;exitX=1;exitY=0.5;exitDx=0;exitDy=0;entryX=0.5;entryY=0;entryDx=0;entryDy=0;" edge="1" parent="1" source="3vqmChRI_nULsQmvLEs1-441" target="3vqmChRI_nULsQmvLEs1-444">
          <mxGeometry relative="1" as="geometry" />
        </mxCell>
        <mxCell id="3vqmChRI_nULsQmvLEs1-441" value="100" style="whiteSpace=wrap;html=1;" vertex="1" parent="1">
          <mxGeometry x="-1012.0699999999999" y="12150" width="120" height="60" as="geometry" />
        </mxCell>
        <mxCell id="3vqmChRI_nULsQmvLEs1-442" style="edgeStyle=orthogonalEdgeStyle;rounded=0;orthogonalLoop=1;jettySize=auto;html=1;exitX=0;exitY=0.5;exitDx=0;exitDy=0;" edge="1" parent="1" source="3vqmChRI_nULsQmvLEs1-444">
          <mxGeometry relative="1" as="geometry">
            <mxPoint x="-913.78" y="12330" as="targetPoint" />
          </mxGeometry>
        </mxCell>
        <mxCell id="3vqmChRI_nULsQmvLEs1-443" style="edgeStyle=orthogonalEdgeStyle;rounded=0;orthogonalLoop=1;jettySize=auto;html=1;exitX=1;exitY=0.5;exitDx=0;exitDy=0;entryX=0.5;entryY=0;entryDx=0;entryDy=0;" edge="1" parent="1" source="3vqmChRI_nULsQmvLEs1-444">
          <mxGeometry relative="1" as="geometry">
            <mxPoint x="-678.3699999999999" y="12340" as="targetPoint" />
          </mxGeometry>
        </mxCell>
        <mxCell id="3vqmChRI_nULsQmvLEs1-444" value="120" style="whiteSpace=wrap;html=1;" vertex="1" parent="1">
          <mxGeometry x="-869.8299999999999" y="12250" width="120" height="60" as="geometry" />
        </mxCell>
        <mxCell id="3vqmChRI_nULsQmvLEs1-445" style="edgeStyle=orthogonalEdgeStyle;rounded=0;orthogonalLoop=1;jettySize=auto;html=1;exitX=0;exitY=0.5;exitDx=0;exitDy=0;" edge="1" parent="1" source="3vqmChRI_nULsQmvLEs1-446" target="3vqmChRI_nULsQmvLEs1-448">
          <mxGeometry relative="1" as="geometry">
            <mxPoint x="-1202.9099999999999" y="12340" as="targetPoint" />
          </mxGeometry>
        </mxCell>
        <mxCell id="3vqmChRI_nULsQmvLEs1-446" value="90" style="whiteSpace=wrap;html=1;" vertex="1" parent="1">
          <mxGeometry x="-1147.0699999999997" y="12250" width="120" height="60" as="geometry" />
        </mxCell>
        <mxCell id="3vqmChRI_nULsQmvLEs1-447" value="105" style="whiteSpace=wrap;html=1;" vertex="1" parent="1">
          <mxGeometry x="-942.91" y="12330" width="88.89" height="60" as="geometry" />
        </mxCell>
        <mxCell id="3vqmChRI_nULsQmvLEs1-448" value="80" style="rounded=0;whiteSpace=wrap;html=1;" vertex="1" parent="1">
          <mxGeometry x="-1262.9099999999999" y="12331" width="120" height="60" as="geometry" />
        </mxCell>
        <mxCell id="3vqmChRI_nULsQmvLEs1-451" value="130" style="rounded=0;whiteSpace=wrap;html=1;" vertex="1" parent="1">
          <mxGeometry x="-740" y="12340" width="120" height="60" as="geometry" />
        </mxCell>
        <mxCell id="3vqmChRI_nULsQmvLEs1-452" value="g)" style="text;html=1;align=center;verticalAlign=middle;resizable=0;points=[];autosize=1;strokeColor=none;fillColor=none;" vertex="1" parent="1">
          <mxGeometry x="-1234.29" y="12190" width="30" height="30" as="geometry" />
        </mxCell>
        <mxCell id="3vqmChRI_nULsQmvLEs1-453" style="edgeStyle=orthogonalEdgeStyle;rounded=0;orthogonalLoop=1;jettySize=auto;html=1;exitX=0;exitY=0.5;exitDx=0;exitDy=0;entryX=0.5;entryY=0;entryDx=0;entryDy=0;" edge="1" parent="1" source="3vqmChRI_nULsQmvLEs1-455" target="3vqmChRI_nULsQmvLEs1-460">
          <mxGeometry relative="1" as="geometry" />
        </mxCell>
        <mxCell id="3vqmChRI_nULsQmvLEs1-454" style="edgeStyle=orthogonalEdgeStyle;rounded=0;orthogonalLoop=1;jettySize=auto;html=1;exitX=1;exitY=0.5;exitDx=0;exitDy=0;entryX=0.5;entryY=0;entryDx=0;entryDy=0;" edge="1" parent="1" source="3vqmChRI_nULsQmvLEs1-455" target="3vqmChRI_nULsQmvLEs1-458">
          <mxGeometry relative="1" as="geometry" />
        </mxCell>
        <mxCell id="3vqmChRI_nULsQmvLEs1-455" value="100" style="whiteSpace=wrap;html=1;" vertex="1" parent="1">
          <mxGeometry x="-1035.1499999999999" y="12480" width="120" height="60" as="geometry" />
        </mxCell>
        <mxCell id="3vqmChRI_nULsQmvLEs1-456" style="edgeStyle=orthogonalEdgeStyle;rounded=0;orthogonalLoop=1;jettySize=auto;html=1;exitX=0;exitY=0.5;exitDx=0;exitDy=0;" edge="1" parent="1" source="3vqmChRI_nULsQmvLEs1-458">
          <mxGeometry relative="1" as="geometry">
            <mxPoint x="-936.86" y="12660" as="targetPoint" />
          </mxGeometry>
        </mxCell>
        <mxCell id="3vqmChRI_nULsQmvLEs1-457" style="edgeStyle=orthogonalEdgeStyle;rounded=0;orthogonalLoop=1;jettySize=auto;html=1;exitX=1;exitY=0.5;exitDx=0;exitDy=0;entryX=0.5;entryY=0;entryDx=0;entryDy=0;" edge="1" parent="1" source="3vqmChRI_nULsQmvLEs1-458">
          <mxGeometry relative="1" as="geometry">
            <mxPoint x="-701.4499999999999" y="12670" as="targetPoint" />
          </mxGeometry>
        </mxCell>
        <mxCell id="3vqmChRI_nULsQmvLEs1-458" value="110" style="whiteSpace=wrap;html=1;" vertex="1" parent="1">
          <mxGeometry x="-892.91" y="12580" width="120" height="60" as="geometry" />
        </mxCell>
        <mxCell id="3vqmChRI_nULsQmvLEs1-459" style="edgeStyle=orthogonalEdgeStyle;rounded=0;orthogonalLoop=1;jettySize=auto;html=1;exitX=0;exitY=0.5;exitDx=0;exitDy=0;" edge="1" parent="1" source="3vqmChRI_nULsQmvLEs1-460" target="3vqmChRI_nULsQmvLEs1-462">
          <mxGeometry relative="1" as="geometry">
            <mxPoint x="-1225.9899999999998" y="12670" as="targetPoint" />
          </mxGeometry>
        </mxCell>
        <mxCell id="3vqmChRI_nULsQmvLEs1-460" value="90" style="whiteSpace=wrap;html=1;" vertex="1" parent="1">
          <mxGeometry x="-1170.1499999999996" y="12580" width="120" height="60" as="geometry" />
        </mxCell>
        <mxCell id="3vqmChRI_nULsQmvLEs1-489" style="edgeStyle=orthogonalEdgeStyle;rounded=0;orthogonalLoop=1;jettySize=auto;html=1;exitX=1;exitY=0.5;exitDx=0;exitDy=0;" edge="1" parent="1" source="3vqmChRI_nULsQmvLEs1-461">
          <mxGeometry relative="1" as="geometry">
            <mxPoint x="-860" y="12740" as="targetPoint" />
          </mxGeometry>
        </mxCell>
        <mxCell id="3vqmChRI_nULsQmvLEs1-490" style="edgeStyle=orthogonalEdgeStyle;rounded=0;orthogonalLoop=1;jettySize=auto;html=1;exitX=0;exitY=0.5;exitDx=0;exitDy=0;" edge="1" parent="1" source="3vqmChRI_nULsQmvLEs1-461" target="3vqmChRI_nULsQmvLEs1-491">
          <mxGeometry relative="1" as="geometry">
            <mxPoint x="-1030" y="12730" as="targetPoint" />
          </mxGeometry>
        </mxCell>
        <mxCell id="3vqmChRI_nULsQmvLEs1-461" value="105" style="whiteSpace=wrap;html=1;" vertex="1" parent="1">
          <mxGeometry x="-975" y="12661" width="75.99" height="60" as="geometry" />
        </mxCell>
        <mxCell id="3vqmChRI_nULsQmvLEs1-462" value="80" style="rounded=0;whiteSpace=wrap;html=1;" vertex="1" parent="1">
          <mxGeometry x="-1285.9899999999998" y="12661" width="120" height="60" as="geometry" />
        </mxCell>
        <mxCell id="3vqmChRI_nULsQmvLEs1-463" value="120" style="rounded=0;whiteSpace=wrap;html=1;" vertex="1" parent="1">
          <mxGeometry x="-763.08" y="12670" width="120" height="60" as="geometry" />
        </mxCell>
        <mxCell id="3vqmChRI_nULsQmvLEs1-464" value="h)" style="text;html=1;align=center;verticalAlign=middle;resizable=0;points=[];autosize=1;strokeColor=none;fillColor=none;" vertex="1" parent="1">
          <mxGeometry x="-1257.37" y="12520" width="30" height="30" as="geometry" />
        </mxCell>
        <mxCell id="3vqmChRI_nULsQmvLEs1-491" value="104" style="rounded=0;whiteSpace=wrap;html=1;" vertex="1" parent="1">
          <mxGeometry x="-1078.45" y="12730" width="80" height="60" as="geometry" />
        </mxCell>
        <mxCell id="3vqmChRI_nULsQmvLEs1-492" value="106" style="rounded=0;whiteSpace=wrap;html=1;" vertex="1" parent="1">
          <mxGeometry x="-903.53" y="12740" width="75.24" height="60" as="geometry" />
        </mxCell>
        <mxCell id="3vqmChRI_nULsQmvLEs1-493" style="edgeStyle=orthogonalEdgeStyle;rounded=0;orthogonalLoop=1;jettySize=auto;html=1;exitX=0;exitY=0.5;exitDx=0;exitDy=0;entryX=0.5;entryY=0;entryDx=0;entryDy=0;" edge="1" parent="1" source="3vqmChRI_nULsQmvLEs1-495" target="3vqmChRI_nULsQmvLEs1-500">
          <mxGeometry relative="1" as="geometry" />
        </mxCell>
        <mxCell id="3vqmChRI_nULsQmvLEs1-494" style="edgeStyle=orthogonalEdgeStyle;rounded=0;orthogonalLoop=1;jettySize=auto;html=1;exitX=1;exitY=0.5;exitDx=0;exitDy=0;entryX=0.5;entryY=0;entryDx=0;entryDy=0;" edge="1" parent="1" source="3vqmChRI_nULsQmvLEs1-495" target="3vqmChRI_nULsQmvLEs1-498">
          <mxGeometry relative="1" as="geometry" />
        </mxCell>
        <mxCell id="3vqmChRI_nULsQmvLEs1-495" value="100" style="whiteSpace=wrap;html=1;" vertex="1" parent="1">
          <mxGeometry x="-1029.83" y="12880" width="120" height="60" as="geometry" />
        </mxCell>
        <mxCell id="3vqmChRI_nULsQmvLEs1-496" style="edgeStyle=orthogonalEdgeStyle;rounded=0;orthogonalLoop=1;jettySize=auto;html=1;exitX=0;exitY=0.5;exitDx=0;exitDy=0;" edge="1" parent="1" source="3vqmChRI_nULsQmvLEs1-498">
          <mxGeometry relative="1" as="geometry">
            <mxPoint x="-931.54" y="13060" as="targetPoint" />
          </mxGeometry>
        </mxCell>
        <mxCell id="3vqmChRI_nULsQmvLEs1-498" value="110" style="whiteSpace=wrap;html=1;" vertex="1" parent="1">
          <mxGeometry x="-887.5899999999999" y="12980" width="120" height="60" as="geometry" />
        </mxCell>
        <mxCell id="3vqmChRI_nULsQmvLEs1-499" style="edgeStyle=orthogonalEdgeStyle;rounded=0;orthogonalLoop=1;jettySize=auto;html=1;exitX=0;exitY=0.5;exitDx=0;exitDy=0;" edge="1" parent="1" source="3vqmChRI_nULsQmvLEs1-500" target="3vqmChRI_nULsQmvLEs1-504">
          <mxGeometry relative="1" as="geometry">
            <mxPoint x="-1220.6699999999998" y="13070" as="targetPoint" />
          </mxGeometry>
        </mxCell>
        <mxCell id="3vqmChRI_nULsQmvLEs1-500" value="90" style="whiteSpace=wrap;html=1;" vertex="1" parent="1">
          <mxGeometry x="-1164.8299999999997" y="12980" width="120" height="60" as="geometry" />
        </mxCell>
        <mxCell id="3vqmChRI_nULsQmvLEs1-501" style="edgeStyle=orthogonalEdgeStyle;rounded=0;orthogonalLoop=1;jettySize=auto;html=1;exitX=1;exitY=0.5;exitDx=0;exitDy=0;" edge="1" parent="1" source="3vqmChRI_nULsQmvLEs1-503">
          <mxGeometry relative="1" as="geometry">
            <mxPoint x="-854.68" y="13140" as="targetPoint" />
          </mxGeometry>
        </mxCell>
        <mxCell id="3vqmChRI_nULsQmvLEs1-502" style="edgeStyle=orthogonalEdgeStyle;rounded=0;orthogonalLoop=1;jettySize=auto;html=1;exitX=0;exitY=0.5;exitDx=0;exitDy=0;" edge="1" parent="1" source="3vqmChRI_nULsQmvLEs1-503" target="3vqmChRI_nULsQmvLEs1-507">
          <mxGeometry relative="1" as="geometry">
            <mxPoint x="-1024.68" y="13130" as="targetPoint" />
          </mxGeometry>
        </mxCell>
        <mxCell id="3vqmChRI_nULsQmvLEs1-503" value="105" style="whiteSpace=wrap;html=1;" vertex="1" parent="1">
          <mxGeometry x="-969.68" y="13061" width="75.99" height="60" as="geometry" />
        </mxCell>
        <mxCell id="3vqmChRI_nULsQmvLEs1-504" value="80" style="rounded=0;whiteSpace=wrap;html=1;" vertex="1" parent="1">
          <mxGeometry x="-1280.6699999999998" y="13061" width="120" height="60" as="geometry" />
        </mxCell>
        <mxCell id="3vqmChRI_nULsQmvLEs1-506" value="h)" style="text;html=1;align=center;verticalAlign=middle;resizable=0;points=[];autosize=1;strokeColor=none;fillColor=none;" vertex="1" parent="1">
          <mxGeometry x="-1252.05" y="12920" width="30" height="30" as="geometry" />
        </mxCell>
        <mxCell id="3vqmChRI_nULsQmvLEs1-507" value="104" style="rounded=0;whiteSpace=wrap;html=1;" vertex="1" parent="1">
          <mxGeometry x="-1073.13" y="13130" width="80" height="60" as="geometry" />
        </mxCell>
        <mxCell id="3vqmChRI_nULsQmvLEs1-508" value="106" style="rounded=0;whiteSpace=wrap;html=1;" vertex="1" parent="1">
          <mxGeometry x="-898.2099999999999" y="13140" width="75.24" height="60" as="geometry" />
        </mxCell>
        <mxCell id="3vqmChRI_nULsQmvLEs1-509" style="edgeStyle=orthogonalEdgeStyle;rounded=0;orthogonalLoop=1;jettySize=auto;html=1;exitX=0;exitY=0.5;exitDx=0;exitDy=0;entryX=0.5;entryY=0;entryDx=0;entryDy=0;" edge="1" parent="1" source="3vqmChRI_nULsQmvLEs1-511" target="3vqmChRI_nULsQmvLEs1-515">
          <mxGeometry relative="1" as="geometry" />
        </mxCell>
        <mxCell id="3vqmChRI_nULsQmvLEs1-510" style="edgeStyle=orthogonalEdgeStyle;rounded=0;orthogonalLoop=1;jettySize=auto;html=1;exitX=1;exitY=0.5;exitDx=0;exitDy=0;entryX=0.5;entryY=0;entryDx=0;entryDy=0;" edge="1" parent="1" source="3vqmChRI_nULsQmvLEs1-511" target="3vqmChRI_nULsQmvLEs1-513">
          <mxGeometry relative="1" as="geometry" />
        </mxCell>
        <mxCell id="3vqmChRI_nULsQmvLEs1-511" value="100" style="whiteSpace=wrap;html=1;" vertex="1" parent="1">
          <mxGeometry x="-1028.99" y="13250" width="120" height="60" as="geometry" />
        </mxCell>
        <mxCell id="3vqmChRI_nULsQmvLEs1-523" style="edgeStyle=orthogonalEdgeStyle;rounded=0;orthogonalLoop=1;jettySize=auto;html=1;exitX=1;exitY=0.5;exitDx=0;exitDy=0;" edge="1" parent="1" source="3vqmChRI_nULsQmvLEs1-513" target="3vqmChRI_nULsQmvLEs1-524">
          <mxGeometry relative="1" as="geometry">
            <mxPoint x="-690" y="13450" as="targetPoint" />
          </mxGeometry>
        </mxCell>
        <mxCell id="3vqmChRI_nULsQmvLEs1-513" value="110" style="whiteSpace=wrap;html=1;" vertex="1" parent="1">
          <mxGeometry x="-886.7499999999999" y="13350" width="120" height="60" as="geometry" />
        </mxCell>
        <mxCell id="3vqmChRI_nULsQmvLEs1-514" style="edgeStyle=orthogonalEdgeStyle;rounded=0;orthogonalLoop=1;jettySize=auto;html=1;exitX=0;exitY=0.5;exitDx=0;exitDy=0;" edge="1" parent="1" source="3vqmChRI_nULsQmvLEs1-515" target="3vqmChRI_nULsQmvLEs1-519">
          <mxGeometry relative="1" as="geometry">
            <mxPoint x="-1219.83" y="13440" as="targetPoint" />
          </mxGeometry>
        </mxCell>
        <mxCell id="3vqmChRI_nULsQmvLEs1-525" style="edgeStyle=orthogonalEdgeStyle;rounded=0;orthogonalLoop=1;jettySize=auto;html=1;exitX=1;exitY=0.5;exitDx=0;exitDy=0;" edge="1" parent="1" source="3vqmChRI_nULsQmvLEs1-515" target="3vqmChRI_nULsQmvLEs1-526">
          <mxGeometry relative="1" as="geometry">
            <mxPoint x="-990" y="13450" as="targetPoint" />
          </mxGeometry>
        </mxCell>
        <mxCell id="3vqmChRI_nULsQmvLEs1-515" value="90" style="whiteSpace=wrap;html=1;" vertex="1" parent="1">
          <mxGeometry x="-1163.9899999999998" y="13350" width="120" height="60" as="geometry" />
        </mxCell>
        <mxCell id="3vqmChRI_nULsQmvLEs1-519" value="80" style="rounded=0;whiteSpace=wrap;html=1;" vertex="1" parent="1">
          <mxGeometry x="-1279.83" y="13431" width="120" height="60" as="geometry" />
        </mxCell>
        <mxCell id="3vqmChRI_nULsQmvLEs1-520" value="i)" style="text;html=1;align=center;verticalAlign=middle;resizable=0;points=[];autosize=1;strokeColor=none;fillColor=none;" vertex="1" parent="1">
          <mxGeometry x="-1251.21" y="13290" width="30" height="30" as="geometry" />
        </mxCell>
        <mxCell id="3vqmChRI_nULsQmvLEs1-524" value="120" style="rounded=0;whiteSpace=wrap;html=1;" vertex="1" parent="1">
          <mxGeometry x="-750" y="13420" width="120" height="60" as="geometry" />
        </mxCell>
        <mxCell id="3vqmChRI_nULsQmvLEs1-527" style="edgeStyle=orthogonalEdgeStyle;rounded=0;orthogonalLoop=1;jettySize=auto;html=1;exitX=1;exitY=0.5;exitDx=0;exitDy=0;" edge="1" parent="1" source="3vqmChRI_nULsQmvLEs1-526" target="3vqmChRI_nULsQmvLEs1-528">
          <mxGeometry relative="1" as="geometry">
            <mxPoint x="-890" y="13560" as="targetPoint" />
          </mxGeometry>
        </mxCell>
        <mxCell id="3vqmChRI_nULsQmvLEs1-526" value="95" style="rounded=0;whiteSpace=wrap;html=1;" vertex="1" parent="1">
          <mxGeometry x="-1046.54" y="13440" width="120" height="60" as="geometry" />
        </mxCell>
        <mxCell id="3vqmChRI_nULsQmvLEs1-528" value="97" style="rounded=0;whiteSpace=wrap;html=1;" vertex="1" parent="1">
          <mxGeometry x="-950" y="13530" width="120" height="60" as="geometry" />
        </mxCell>
        <mxCell id="3vqmChRI_nULsQmvLEs1-529" style="edgeStyle=orthogonalEdgeStyle;rounded=0;orthogonalLoop=1;jettySize=auto;html=1;exitX=0;exitY=0.5;exitDx=0;exitDy=0;entryX=0.5;entryY=0;entryDx=0;entryDy=0;" edge="1" parent="1" source="3vqmChRI_nULsQmvLEs1-531" target="3vqmChRI_nULsQmvLEs1-536">
          <mxGeometry relative="1" as="geometry" />
        </mxCell>
        <mxCell id="3vqmChRI_nULsQmvLEs1-530" style="edgeStyle=orthogonalEdgeStyle;rounded=0;orthogonalLoop=1;jettySize=auto;html=1;exitX=1;exitY=0.5;exitDx=0;exitDy=0;entryX=0.5;entryY=0;entryDx=0;entryDy=0;" edge="1" parent="1" source="3vqmChRI_nULsQmvLEs1-531" target="3vqmChRI_nULsQmvLEs1-533">
          <mxGeometry relative="1" as="geometry" />
        </mxCell>
        <mxCell id="3vqmChRI_nULsQmvLEs1-531" value="100" style="whiteSpace=wrap;html=1;" vertex="1" parent="1">
          <mxGeometry x="-1012.07" y="13670" width="120" height="60" as="geometry" />
        </mxCell>
        <mxCell id="3vqmChRI_nULsQmvLEs1-533" value="110" style="whiteSpace=wrap;html=1;" vertex="1" parent="1">
          <mxGeometry x="-869.8299999999999" y="13770" width="120" height="60" as="geometry" />
        </mxCell>
        <mxCell id="3vqmChRI_nULsQmvLEs1-534" style="edgeStyle=orthogonalEdgeStyle;rounded=0;orthogonalLoop=1;jettySize=auto;html=1;exitX=0;exitY=0.5;exitDx=0;exitDy=0;" edge="1" parent="1" source="3vqmChRI_nULsQmvLEs1-536" target="3vqmChRI_nULsQmvLEs1-537">
          <mxGeometry relative="1" as="geometry">
            <mxPoint x="-1202.9099999999999" y="13860" as="targetPoint" />
          </mxGeometry>
        </mxCell>
        <mxCell id="3vqmChRI_nULsQmvLEs1-535" style="edgeStyle=orthogonalEdgeStyle;rounded=0;orthogonalLoop=1;jettySize=auto;html=1;exitX=1;exitY=0.5;exitDx=0;exitDy=0;" edge="1" parent="1" source="3vqmChRI_nULsQmvLEs1-536" target="3vqmChRI_nULsQmvLEs1-541">
          <mxGeometry relative="1" as="geometry">
            <mxPoint x="-973.08" y="13870" as="targetPoint" />
          </mxGeometry>
        </mxCell>
        <mxCell id="3vqmChRI_nULsQmvLEs1-536" value="90" style="whiteSpace=wrap;html=1;" vertex="1" parent="1">
          <mxGeometry x="-1147.0699999999997" y="13770" width="120" height="60" as="geometry" />
        </mxCell>
        <mxCell id="3vqmChRI_nULsQmvLEs1-537" value="80" style="rounded=0;whiteSpace=wrap;html=1;" vertex="1" parent="1">
          <mxGeometry x="-1262.9099999999999" y="13851" width="120" height="60" as="geometry" />
        </mxCell>
        <mxCell id="3vqmChRI_nULsQmvLEs1-538" value="i)" style="text;html=1;align=center;verticalAlign=middle;resizable=0;points=[];autosize=1;strokeColor=none;fillColor=none;" vertex="1" parent="1">
          <mxGeometry x="-1234.29" y="13710" width="30" height="30" as="geometry" />
        </mxCell>
        <mxCell id="3vqmChRI_nULsQmvLEs1-540" style="edgeStyle=orthogonalEdgeStyle;rounded=0;orthogonalLoop=1;jettySize=auto;html=1;exitX=1;exitY=0.5;exitDx=0;exitDy=0;" edge="1" parent="1" source="3vqmChRI_nULsQmvLEs1-541" target="3vqmChRI_nULsQmvLEs1-542">
          <mxGeometry relative="1" as="geometry">
            <mxPoint x="-873.08" y="13980" as="targetPoint" />
          </mxGeometry>
        </mxCell>
        <mxCell id="3vqmChRI_nULsQmvLEs1-541" value="95" style="rounded=0;whiteSpace=wrap;html=1;" vertex="1" parent="1">
          <mxGeometry x="-1029.62" y="13860" width="120" height="60" as="geometry" />
        </mxCell>
        <mxCell id="3vqmChRI_nULsQmvLEs1-542" value="97" style="rounded=0;whiteSpace=wrap;html=1;" vertex="1" parent="1">
          <mxGeometry x="-933.08" y="13950" width="120" height="60" as="geometry" />
        </mxCell>
        <mxCell id="3vqmChRI_nULsQmvLEs1-543" style="edgeStyle=orthogonalEdgeStyle;rounded=0;orthogonalLoop=1;jettySize=auto;html=1;exitX=0;exitY=0.5;exitDx=0;exitDy=0;entryX=0.5;entryY=0;entryDx=0;entryDy=0;" edge="1" parent="1" source="3vqmChRI_nULsQmvLEs1-545" target="3vqmChRI_nULsQmvLEs1-549">
          <mxGeometry relative="1" as="geometry" />
        </mxCell>
        <mxCell id="3vqmChRI_nULsQmvLEs1-544" style="edgeStyle=orthogonalEdgeStyle;rounded=0;orthogonalLoop=1;jettySize=auto;html=1;exitX=1;exitY=0.5;exitDx=0;exitDy=0;entryX=0.5;entryY=0;entryDx=0;entryDy=0;" edge="1" parent="1" source="3vqmChRI_nULsQmvLEs1-545" target="3vqmChRI_nULsQmvLEs1-546">
          <mxGeometry relative="1" as="geometry" />
        </mxCell>
        <mxCell id="3vqmChRI_nULsQmvLEs1-545" value="100" style="whiteSpace=wrap;html=1;" vertex="1" parent="1">
          <mxGeometry x="-957.7700000000001" y="14090" width="120" height="60" as="geometry" />
        </mxCell>
        <mxCell id="3vqmChRI_nULsQmvLEs1-555" style="edgeStyle=orthogonalEdgeStyle;rounded=0;orthogonalLoop=1;jettySize=auto;html=1;exitX=1;exitY=0.5;exitDx=0;exitDy=0;" edge="1" parent="1" source="3vqmChRI_nULsQmvLEs1-546" target="3vqmChRI_nULsQmvLEs1-556">
          <mxGeometry relative="1" as="geometry">
            <mxPoint x="-600" y="14270" as="targetPoint" />
          </mxGeometry>
        </mxCell>
        <mxCell id="3vqmChRI_nULsQmvLEs1-546" value="110" style="whiteSpace=wrap;html=1;" vertex="1" parent="1">
          <mxGeometry x="-815.53" y="14190" width="120" height="60" as="geometry" />
        </mxCell>
        <mxCell id="3vqmChRI_nULsQmvLEs1-547" style="edgeStyle=orthogonalEdgeStyle;rounded=0;orthogonalLoop=1;jettySize=auto;html=1;exitX=0;exitY=0.5;exitDx=0;exitDy=0;" edge="1" parent="1" source="3vqmChRI_nULsQmvLEs1-549" target="3vqmChRI_nULsQmvLEs1-550">
          <mxGeometry relative="1" as="geometry">
            <mxPoint x="-1148.61" y="14280" as="targetPoint" />
          </mxGeometry>
        </mxCell>
        <mxCell id="3vqmChRI_nULsQmvLEs1-548" style="edgeStyle=orthogonalEdgeStyle;rounded=0;orthogonalLoop=1;jettySize=auto;html=1;exitX=1;exitY=0.5;exitDx=0;exitDy=0;" edge="1" parent="1" source="3vqmChRI_nULsQmvLEs1-549" target="3vqmChRI_nULsQmvLEs1-553">
          <mxGeometry relative="1" as="geometry">
            <mxPoint x="-918.7800000000001" y="14290" as="targetPoint" />
          </mxGeometry>
        </mxCell>
        <mxCell id="3vqmChRI_nULsQmvLEs1-549" value="90" style="whiteSpace=wrap;html=1;" vertex="1" parent="1">
          <mxGeometry x="-1092.7699999999998" y="14190" width="120" height="60" as="geometry" />
        </mxCell>
        <mxCell id="3vqmChRI_nULsQmvLEs1-550" value="80" style="rounded=0;whiteSpace=wrap;html=1;" vertex="1" parent="1">
          <mxGeometry x="-1208.61" y="14271" width="120" height="60" as="geometry" />
        </mxCell>
        <mxCell id="3vqmChRI_nULsQmvLEs1-551" value="j)" style="text;html=1;align=center;verticalAlign=middle;resizable=0;points=[];autosize=1;strokeColor=none;fillColor=none;" vertex="1" parent="1">
          <mxGeometry x="-1179.99" y="14130" width="30" height="30" as="geometry" />
        </mxCell>
        <mxCell id="3vqmChRI_nULsQmvLEs1-557" style="edgeStyle=orthogonalEdgeStyle;rounded=0;orthogonalLoop=1;jettySize=auto;html=1;exitX=0;exitY=0.5;exitDx=0;exitDy=0;entryX=0.5;entryY=0;entryDx=0;entryDy=0;" edge="1" parent="1" source="3vqmChRI_nULsQmvLEs1-553" target="3vqmChRI_nULsQmvLEs1-554">
          <mxGeometry relative="1" as="geometry" />
        </mxCell>
        <mxCell id="3vqmChRI_nULsQmvLEs1-553" value="95" style="rounded=0;whiteSpace=wrap;html=1;" vertex="1" parent="1">
          <mxGeometry x="-975.3199999999999" y="14280" width="120" height="60" as="geometry" />
        </mxCell>
        <mxCell id="3vqmChRI_nULsQmvLEs1-554" value="94" style="rounded=0;whiteSpace=wrap;html=1;" vertex="1" parent="1">
          <mxGeometry x="-1070" y="14380" width="120" height="60" as="geometry" />
        </mxCell>
        <mxCell id="3vqmChRI_nULsQmvLEs1-556" value="120" style="rounded=0;whiteSpace=wrap;html=1;" vertex="1" parent="1">
          <mxGeometry x="-660" y="14280" width="120" height="60" as="geometry" />
        </mxCell>
        <mxCell id="3vqmChRI_nULsQmvLEs1-558" style="edgeStyle=orthogonalEdgeStyle;rounded=0;orthogonalLoop=1;jettySize=auto;html=1;exitX=0;exitY=0.5;exitDx=0;exitDy=0;entryX=0.5;entryY=0;entryDx=0;entryDy=0;" edge="1" parent="1" source="3vqmChRI_nULsQmvLEs1-560" target="3vqmChRI_nULsQmvLEs1-565">
          <mxGeometry relative="1" as="geometry" />
        </mxCell>
        <mxCell id="3vqmChRI_nULsQmvLEs1-559" style="edgeStyle=orthogonalEdgeStyle;rounded=0;orthogonalLoop=1;jettySize=auto;html=1;exitX=1;exitY=0.5;exitDx=0;exitDy=0;entryX=0.5;entryY=0;entryDx=0;entryDy=0;" edge="1" parent="1" source="3vqmChRI_nULsQmvLEs1-560" target="3vqmChRI_nULsQmvLEs1-562">
          <mxGeometry relative="1" as="geometry" />
        </mxCell>
        <mxCell id="3vqmChRI_nULsQmvLEs1-560" value="100" style="whiteSpace=wrap;html=1;" vertex="1" parent="1">
          <mxGeometry x="-953.5600000000001" y="14490" width="120" height="60" as="geometry" />
        </mxCell>
        <mxCell id="3vqmChRI_nULsQmvLEs1-562" value="110" style="whiteSpace=wrap;html=1;" vertex="1" parent="1">
          <mxGeometry x="-811.3199999999999" y="14590" width="120" height="60" as="geometry" />
        </mxCell>
        <mxCell id="3vqmChRI_nULsQmvLEs1-563" style="edgeStyle=orthogonalEdgeStyle;rounded=0;orthogonalLoop=1;jettySize=auto;html=1;exitX=0;exitY=0.5;exitDx=0;exitDy=0;" edge="1" parent="1" source="3vqmChRI_nULsQmvLEs1-565" target="3vqmChRI_nULsQmvLEs1-566">
          <mxGeometry relative="1" as="geometry">
            <mxPoint x="-1144.3999999999999" y="14680" as="targetPoint" />
          </mxGeometry>
        </mxCell>
        <mxCell id="3vqmChRI_nULsQmvLEs1-564" style="edgeStyle=orthogonalEdgeStyle;rounded=0;orthogonalLoop=1;jettySize=auto;html=1;exitX=1;exitY=0.5;exitDx=0;exitDy=0;" edge="1" parent="1" source="3vqmChRI_nULsQmvLEs1-565" target="3vqmChRI_nULsQmvLEs1-569">
          <mxGeometry relative="1" as="geometry">
            <mxPoint x="-914.57" y="14690" as="targetPoint" />
          </mxGeometry>
        </mxCell>
        <mxCell id="3vqmChRI_nULsQmvLEs1-565" value="90" style="whiteSpace=wrap;html=1;" vertex="1" parent="1">
          <mxGeometry x="-1088.5599999999997" y="14590" width="120" height="60" as="geometry" />
        </mxCell>
        <mxCell id="3vqmChRI_nULsQmvLEs1-566" value="80" style="rounded=0;whiteSpace=wrap;html=1;" vertex="1" parent="1">
          <mxGeometry x="-1204.3999999999999" y="14671" width="120" height="60" as="geometry" />
        </mxCell>
        <mxCell id="3vqmChRI_nULsQmvLEs1-567" value="j)" style="text;html=1;align=center;verticalAlign=middle;resizable=0;points=[];autosize=1;strokeColor=none;fillColor=none;" vertex="1" parent="1">
          <mxGeometry x="-1175.78" y="14530" width="30" height="30" as="geometry" />
        </mxCell>
        <mxCell id="3vqmChRI_nULsQmvLEs1-568" style="edgeStyle=orthogonalEdgeStyle;rounded=0;orthogonalLoop=1;jettySize=auto;html=1;exitX=0;exitY=0.5;exitDx=0;exitDy=0;entryX=0.5;entryY=0;entryDx=0;entryDy=0;" edge="1" parent="1" source="3vqmChRI_nULsQmvLEs1-569" target="3vqmChRI_nULsQmvLEs1-570">
          <mxGeometry relative="1" as="geometry" />
        </mxCell>
        <mxCell id="3vqmChRI_nULsQmvLEs1-569" value="95" style="rounded=0;whiteSpace=wrap;html=1;" vertex="1" parent="1">
          <mxGeometry x="-971.1099999999999" y="14680" width="120" height="60" as="geometry" />
        </mxCell>
        <mxCell id="3vqmChRI_nULsQmvLEs1-570" value="94" style="rounded=0;whiteSpace=wrap;html=1;" vertex="1" parent="1">
          <mxGeometry x="-1065.79" y="14780" width="120" height="60" as="geometry" />
        </mxCell>
        <mxCell id="3vqmChRI_nULsQmvLEs1-572" style="edgeStyle=orthogonalEdgeStyle;rounded=0;orthogonalLoop=1;jettySize=auto;html=1;exitX=0;exitY=0.5;exitDx=0;exitDy=0;entryX=0.5;entryY=0;entryDx=0;entryDy=0;" edge="1" parent="1" source="3vqmChRI_nULsQmvLEs1-574" target="3vqmChRI_nULsQmvLEs1-578">
          <mxGeometry relative="1" as="geometry" />
        </mxCell>
        <mxCell id="3vqmChRI_nULsQmvLEs1-573" style="edgeStyle=orthogonalEdgeStyle;rounded=0;orthogonalLoop=1;jettySize=auto;html=1;exitX=1;exitY=0.5;exitDx=0;exitDy=0;entryX=0.5;entryY=0;entryDx=0;entryDy=0;" edge="1" parent="1" source="3vqmChRI_nULsQmvLEs1-574" target="3vqmChRI_nULsQmvLEs1-575">
          <mxGeometry relative="1" as="geometry" />
        </mxCell>
        <mxCell id="3vqmChRI_nULsQmvLEs1-574" value="100" style="whiteSpace=wrap;html=1;" vertex="1" parent="1">
          <mxGeometry x="-916.8100000000001" y="14880" width="120" height="60" as="geometry" />
        </mxCell>
        <mxCell id="3vqmChRI_nULsQmvLEs1-584" style="edgeStyle=orthogonalEdgeStyle;rounded=0;orthogonalLoop=1;jettySize=auto;html=1;exitX=1;exitY=0.5;exitDx=0;exitDy=0;" edge="1" parent="1" source="3vqmChRI_nULsQmvLEs1-575" target="3vqmChRI_nULsQmvLEs1-585">
          <mxGeometry relative="1" as="geometry">
            <mxPoint x="-560" y="15070" as="targetPoint" />
          </mxGeometry>
        </mxCell>
        <mxCell id="3vqmChRI_nULsQmvLEs1-575" value="110" style="whiteSpace=wrap;html=1;" vertex="1" parent="1">
          <mxGeometry x="-774.5699999999999" y="14980" width="120" height="60" as="geometry" />
        </mxCell>
        <mxCell id="3vqmChRI_nULsQmvLEs1-576" style="edgeStyle=orthogonalEdgeStyle;rounded=0;orthogonalLoop=1;jettySize=auto;html=1;exitX=0;exitY=0.5;exitDx=0;exitDy=0;" edge="1" parent="1" source="3vqmChRI_nULsQmvLEs1-578" target="3vqmChRI_nULsQmvLEs1-579">
          <mxGeometry relative="1" as="geometry">
            <mxPoint x="-1107.6499999999999" y="15070" as="targetPoint" />
          </mxGeometry>
        </mxCell>
        <mxCell id="3vqmChRI_nULsQmvLEs1-577" style="edgeStyle=orthogonalEdgeStyle;rounded=0;orthogonalLoop=1;jettySize=auto;html=1;exitX=1;exitY=0.5;exitDx=0;exitDy=0;" edge="1" parent="1" source="3vqmChRI_nULsQmvLEs1-578" target="3vqmChRI_nULsQmvLEs1-582">
          <mxGeometry relative="1" as="geometry">
            <mxPoint x="-877.82" y="15080" as="targetPoint" />
          </mxGeometry>
        </mxCell>
        <mxCell id="3vqmChRI_nULsQmvLEs1-578" value="90" style="whiteSpace=wrap;html=1;" vertex="1" parent="1">
          <mxGeometry x="-1051.8099999999997" y="14980" width="120" height="60" as="geometry" />
        </mxCell>
        <mxCell id="3vqmChRI_nULsQmvLEs1-579" value="80" style="rounded=0;whiteSpace=wrap;html=1;" vertex="1" parent="1">
          <mxGeometry x="-1167.6499999999999" y="15061" width="120" height="60" as="geometry" />
        </mxCell>
        <mxCell id="3vqmChRI_nULsQmvLEs1-580" value="k)" style="text;html=1;align=center;verticalAlign=middle;resizable=0;points=[];autosize=1;strokeColor=none;fillColor=none;" vertex="1" parent="1">
          <mxGeometry x="-1139.03" y="14920" width="30" height="30" as="geometry" />
        </mxCell>
        <mxCell id="3vqmChRI_nULsQmvLEs1-581" style="edgeStyle=orthogonalEdgeStyle;rounded=0;orthogonalLoop=1;jettySize=auto;html=1;exitX=0;exitY=0.5;exitDx=0;exitDy=0;entryX=0.5;entryY=0;entryDx=0;entryDy=0;" edge="1" parent="1" source="3vqmChRI_nULsQmvLEs1-582" target="3vqmChRI_nULsQmvLEs1-583">
          <mxGeometry relative="1" as="geometry" />
        </mxCell>
        <mxCell id="3vqmChRI_nULsQmvLEs1-586" style="edgeStyle=orthogonalEdgeStyle;rounded=0;orthogonalLoop=1;jettySize=auto;html=1;exitX=1;exitY=0.5;exitDx=0;exitDy=0;" edge="1" parent="1" source="3vqmChRI_nULsQmvLEs1-582" target="3vqmChRI_nULsQmvLEs1-587">
          <mxGeometry relative="1" as="geometry">
            <mxPoint x="-760" y="15160" as="targetPoint" />
          </mxGeometry>
        </mxCell>
        <mxCell id="3vqmChRI_nULsQmvLEs1-582" value="95" style="rounded=0;whiteSpace=wrap;html=1;" vertex="1" parent="1">
          <mxGeometry x="-934.3599999999999" y="15070" width="120" height="60" as="geometry" />
        </mxCell>
        <mxCell id="3vqmChRI_nULsQmvLEs1-583" value="94" style="rounded=0;whiteSpace=wrap;html=1;" vertex="1" parent="1">
          <mxGeometry x="-1029.04" y="15170" width="120" height="60" as="geometry" />
        </mxCell>
        <mxCell id="3vqmChRI_nULsQmvLEs1-585" value="120" style="rounded=0;whiteSpace=wrap;html=1;" vertex="1" parent="1">
          <mxGeometry x="-620" y="15080" width="120" height="60" as="geometry" />
        </mxCell>
        <mxCell id="3vqmChRI_nULsQmvLEs1-587" value="96" style="rounded=0;whiteSpace=wrap;html=1;" vertex="1" parent="1">
          <mxGeometry x="-796.81" y="15160" width="120" height="60" as="geometry" />
        </mxCell>
        <mxCell id="3vqmChRI_nULsQmvLEs1-588" style="edgeStyle=orthogonalEdgeStyle;rounded=0;orthogonalLoop=1;jettySize=auto;html=1;exitX=0;exitY=0.5;exitDx=0;exitDy=0;entryX=0.5;entryY=0;entryDx=0;entryDy=0;" edge="1" parent="1" source="3vqmChRI_nULsQmvLEs1-590" target="3vqmChRI_nULsQmvLEs1-595">
          <mxGeometry relative="1" as="geometry" />
        </mxCell>
        <mxCell id="3vqmChRI_nULsQmvLEs1-589" style="edgeStyle=orthogonalEdgeStyle;rounded=0;orthogonalLoop=1;jettySize=auto;html=1;exitX=1;exitY=0.5;exitDx=0;exitDy=0;entryX=0.5;entryY=0;entryDx=0;entryDy=0;" edge="1" parent="1" source="3vqmChRI_nULsQmvLEs1-590" target="3vqmChRI_nULsQmvLEs1-592">
          <mxGeometry relative="1" as="geometry" />
        </mxCell>
        <mxCell id="3vqmChRI_nULsQmvLEs1-590" value="100" style="whiteSpace=wrap;html=1;" vertex="1" parent="1">
          <mxGeometry x="-901.8100000000001" y="15360" width="120" height="60" as="geometry" />
        </mxCell>
        <mxCell id="3vqmChRI_nULsQmvLEs1-592" value="110" style="whiteSpace=wrap;html=1;" vertex="1" parent="1">
          <mxGeometry x="-759.5699999999999" y="15460" width="120" height="60" as="geometry" />
        </mxCell>
        <mxCell id="3vqmChRI_nULsQmvLEs1-593" style="edgeStyle=orthogonalEdgeStyle;rounded=0;orthogonalLoop=1;jettySize=auto;html=1;exitX=0;exitY=0.5;exitDx=0;exitDy=0;" edge="1" parent="1" source="3vqmChRI_nULsQmvLEs1-595" target="3vqmChRI_nULsQmvLEs1-596">
          <mxGeometry relative="1" as="geometry">
            <mxPoint x="-1092.6499999999999" y="15550" as="targetPoint" />
          </mxGeometry>
        </mxCell>
        <mxCell id="3vqmChRI_nULsQmvLEs1-594" style="edgeStyle=orthogonalEdgeStyle;rounded=0;orthogonalLoop=1;jettySize=auto;html=1;exitX=1;exitY=0.5;exitDx=0;exitDy=0;" edge="1" parent="1" source="3vqmChRI_nULsQmvLEs1-595" target="3vqmChRI_nULsQmvLEs1-600">
          <mxGeometry relative="1" as="geometry">
            <mxPoint x="-862.82" y="15560" as="targetPoint" />
          </mxGeometry>
        </mxCell>
        <mxCell id="3vqmChRI_nULsQmvLEs1-595" value="90" style="whiteSpace=wrap;html=1;" vertex="1" parent="1">
          <mxGeometry x="-1036.8099999999997" y="15460" width="120" height="60" as="geometry" />
        </mxCell>
        <mxCell id="3vqmChRI_nULsQmvLEs1-596" value="80" style="rounded=0;whiteSpace=wrap;html=1;" vertex="1" parent="1">
          <mxGeometry x="-1152.6499999999999" y="15541" width="120" height="60" as="geometry" />
        </mxCell>
        <mxCell id="3vqmChRI_nULsQmvLEs1-597" value="k)" style="text;html=1;align=center;verticalAlign=middle;resizable=0;points=[];autosize=1;strokeColor=none;fillColor=none;" vertex="1" parent="1">
          <mxGeometry x="-1118.45" y="15390" width="30" height="30" as="geometry" />
        </mxCell>
        <mxCell id="3vqmChRI_nULsQmvLEs1-598" style="edgeStyle=orthogonalEdgeStyle;rounded=0;orthogonalLoop=1;jettySize=auto;html=1;exitX=0;exitY=0.5;exitDx=0;exitDy=0;entryX=0.5;entryY=0;entryDx=0;entryDy=0;" edge="1" parent="1" source="3vqmChRI_nULsQmvLEs1-600" target="3vqmChRI_nULsQmvLEs1-601">
          <mxGeometry relative="1" as="geometry" />
        </mxCell>
        <mxCell id="3vqmChRI_nULsQmvLEs1-599" style="edgeStyle=orthogonalEdgeStyle;rounded=0;orthogonalLoop=1;jettySize=auto;html=1;exitX=1;exitY=0.5;exitDx=0;exitDy=0;" edge="1" parent="1" source="3vqmChRI_nULsQmvLEs1-600" target="3vqmChRI_nULsQmvLEs1-603">
          <mxGeometry relative="1" as="geometry">
            <mxPoint x="-745" y="15640" as="targetPoint" />
          </mxGeometry>
        </mxCell>
        <mxCell id="3vqmChRI_nULsQmvLEs1-600" value="95" style="rounded=0;whiteSpace=wrap;html=1;" vertex="1" parent="1">
          <mxGeometry x="-919.3599999999999" y="15550" width="120" height="60" as="geometry" />
        </mxCell>
        <mxCell id="3vqmChRI_nULsQmvLEs1-601" value="94" style="rounded=0;whiteSpace=wrap;html=1;" vertex="1" parent="1">
          <mxGeometry x="-1014.04" y="15650" width="120" height="60" as="geometry" />
        </mxCell>
        <mxCell id="3vqmChRI_nULsQmvLEs1-603" value="96" style="rounded=0;whiteSpace=wrap;html=1;" vertex="1" parent="1">
          <mxGeometry x="-781.81" y="15640" width="120" height="60" as="geometry" />
        </mxCell>
      </root>
    </mxGraphModel>
  </diagram>
</mxfile>
